<svg width="30" height="28" viewBox="0 0 30 28" fill="none" xmlns="http://www.w3.org/2000/svg">
    <path
        d="M15.0049 2.88461C13.0782 -0.875974 0 -2.96392 0 9.69732C0 17.813 7.50489 25.6305 14.9984 27.6908C22.4902 25.6305 30 17.8146 30 9.69732C30 -2.96392 16.9235 -0.875974 15.0049 2.88461ZM15.0326 22.9139C11.171 22.9139 4.58469 19.4791 4.58469 10.8178C4.58469 7.93836 6.92508 5.59797 9.8127 5.59797C12.7003 5.59797 14.0863 8.09797 15.0326 10.8178C16.5277 15.1159 18.6173 15.8211 20.2606 16.0459C22.9691 16.4156 25.4186 14.5524 25.4186 11.6664C25.4186 20.3292 18.8941 22.9139 15.0326 22.9139Z"
        fill="#BE046A" />
</svg>