<svg width="125" height="42" viewBox="0 0 125 42" fill="none" xmlns="http://www.w3.org/2000/svg">
    <path
        d="M36.9445 31.4134C36.8938 31.2938 36.7436 31.2588 36.64 31.3392C34.1719 33.3058 28.7409 34.6869 23.2719 33.7613C21.5757 33.4748 19.7717 32.7801 18.1031 31.9926C18.0079 31.9473 17.9656 31.8401 18.0079 31.7453C18.3907 30.8671 20.5902 28.113 21.2818 20.2527C21.783 14.557 20.3153 2.58616 18.6297 1.61729C17.5532 0.998855 13.2621 0.679335 11.1494 0.95763C10.5065 1.04421 10.295 1.12254 10.5192 1.53277C10.8047 2.0605 11.344 3.8086 11.4222 4.04773C15.69 17.1296 13.3383 25.6516 12.854 27.6286C12.854 27.6347 12.8519 27.6389 12.8497 27.643C12.7419 27.9708 12.634 28.2841 12.5262 28.5789C10.9273 27.41 9.22696 26.3608 6.97885 26.4391C-3.70551 26.8081 -1.69849 42.809 10.1089 39.4674C11.9636 38.9376 13.425 38.0863 14.5353 37.0576C14.603 36.9957 14.6981 36.9854 14.7743 37.037C19.3128 40.0817 29.4579 43.7635 39.9096 38.7768C40.0048 38.7315 40.0492 38.6202 40.0069 38.5233L36.9445 31.4134ZM4.85763 33.1429C4.85763 31.937 7.24744 31.1474 9.44691 33.1429C9.53151 33.2213 9.53151 33.3635 9.44691 33.4398C7.44201 35.1796 4.85974 34.388 4.85974 33.1409L4.85763 33.1429Z"
        fill="#BE046A" />
    <path
        d="M68.3231 4.27684C65.8022 1.52894 62.5114 0.143646 58.5397 0.143646C54.568 0.143646 51.2772 1.531 48.7563 4.27684C41.2125 12.4999 41.8406 34.9511 43.6954 40.2325C43.725 40.315 43.8032 40.3644 43.8921 40.3644L50.9832 40.3583C51.1334 40.3583 51.2307 40.2098 51.1736 40.0758C49.9258 37.2084 48.8557 30.3417 49.0185 23.5843C49.0397 22.7535 49.93 22.2217 50.6999 22.5783C52.4425 23.3885 54.1386 24.6604 55.1369 25.4066L55.7121 25.8354C58.3282 27.769 61.4921 30.1046 66.6481 30.6942C67.2889 30.7684 67.7479 31.3353 67.676 31.9599C67.2741 35.4665 66.6143 38.4287 65.8995 40.0758C65.8403 40.2098 65.9397 40.3562 66.0898 40.3562L73.1831 40.3624C73.2719 40.3624 73.3523 40.3129 73.3798 40.2304C75.2324 34.9511 75.8605 12.4979 68.3189 4.27478L68.3231 4.27684ZM53.0051 8.85324C54.4749 7.24944 56.1414 6.04762 58.5397 6.04762C60.938 6.04762 62.6045 7.24944 64.0743 8.85324C66.9379 11.9681 68.0038 18.1627 68.0736 24.3182C68.0778 24.6789 67.7563 24.9716 67.3883 24.9284C63.8015 24.5181 61.6126 22.904 59.318 21.2075L58.7766 20.8055C56.9641 19.4511 53.8975 17.1464 50.4017 16.3239C50.0696 16.2456 49.8476 15.926 49.9216 15.6003C50.5539 12.8298 51.5416 10.4447 53.003 8.85324H53.0051Z"
        fill="#BE046A" />
    <path
        d="M122.974 8.60148C121.199 3.9653 118.896 1.24626 115.622 0.41962C111.648 -0.590487 106.778 0.992701 101.804 6.68228C101.702 6.79772 101.52 6.79772 101.419 6.68228C96.4446 0.992701 91.574 -0.590487 87.6002 0.41962C84.3221 1.2442 82.0254 3.9653 80.2489 8.60148C76.22 19.0942 80.1431 37.5544 81.1604 40.2302C81.19 40.3085 81.2682 40.3559 81.3528 40.3559H89.3619C89.5205 40.3559 89.6199 40.1951 89.5437 40.057C87.4162 36.231 82.7212 9.87545 88.7782 6.66373C90.8211 5.57941 94.1626 6.61425 98.0223 10.8938C98.0984 10.9783 98.109 11.1061 98.0434 11.201C90.2818 22.2936 89.4401 37.3174 101.611 37.3174C113.782 37.3174 112.941 22.2936 105.179 11.201C105.113 11.1082 105.122 10.9783 105.2 10.8938C109.06 6.61425 112.401 5.57941 114.444 6.66373C120.501 9.87545 115.808 36.2289 113.679 40.057C113.603 40.1931 113.7 40.3559 113.861 40.3559H121.87C121.956 40.3559 122.032 40.3085 122.062 40.2302C123.079 37.5524 126.994 19.0942 122.974 8.60148ZM101.613 31.6278C96.4129 31.6278 96.6984 22.7224 101.402 15.9423C101.501 15.798 101.728 15.798 101.827 15.9423C106.528 22.7224 106.814 31.6278 101.615 31.6278H101.613Z"
        fill="#BE046A" />
</svg>