<svg width="67" height="23" viewBox="0 0 67 23" fill="none" xmlns="http://www.w3.org/2000/svg">
	<g filter="url(#filter0_d_1934_5594)">
		<path d="M44.7005 21.7808H47.7384L47.7235 21.6874C47.266 18.9167 46.4996 13.6177 46.4996 9.26482C46.4996 6.95776 46.7652 5.27196 47.2863 4.25683C47.7073 3.52593 48.2068 3.24169 49.0691 3.24169C50.2039 3.24169 51.7523 4.42804 53.2175 6.41839C51.7604 8.88178 50.214 12.4821 50.214 15.2561C50.214 18.3063 52.1348 20.3555 54.9936 20.3555C56.3386 20.3555 57.5004 19.9034 58.354 19.0487C59.2846 18.1168 59.8017 16.7342 59.7733 15.2589C59.7733 12.6134 58.2864 8.92442 56.7995 6.42109C58.285 4.39894 59.7834 3.24034 60.9209 3.24034C61.7995 3.24034 62.3151 3.53405 62.7017 4.25547C63.2323 5.23339 63.4898 6.87249 63.4898 9.26347C63.4898 13.9331 62.6537 19.5069 62.2949 21.686L62.2793 21.7794H65.3206L65.3308 21.7117C65.864 18.3604 66.5 13.4797 66.5 9.26347C66.5 5.3843 65.9215 0.227417 60.9229 0.227417C58.4614 0.227417 56.3521 2.15347 54.9977 3.8034C53.0458 1.43204 51.0534 0.228771 49.0678 0.228771C43.4907 0.228771 43.4907 7.0295 43.4907 9.26482C43.4907 14.0651 44.3281 19.5698 44.6876 21.7171L44.7005 21.7808ZM56.2474 16.9081C55.9527 17.2032 55.5539 17.3412 54.9936 17.3412C53.5291 17.3412 53.2222 16.2056 53.2222 15.2534C53.2222 13.8627 53.915 11.5841 54.9936 9.41303C56.075 11.5841 56.7657 13.8627 56.7657 15.2561C56.7894 15.9228 56.6001 16.5257 56.246 16.9095L56.2474 16.9081Z" fill="#ED35CB" />
		<path d="M3.46953 21.3747C5.40517 22.0183 7.63953 21.4613 9.03178 19.9894C9.33731 19.6643 9.61791 19.3166 9.87118 18.9492C10.6439 19.4445 11.4411 19.9005 12.2596 20.3156C14.1 21.2285 15.8673 21.6921 17.513 21.6921C17.6401 21.6921 17.7692 21.6921 17.8922 21.6819C18.8561 21.6441 19.8046 21.4275 20.6895 21.0431L20.7652 21.0106L19.4811 18.3036L19.4135 18.3327C18.8893 18.5466 18.3321 18.6682 17.7665 18.692C16.5222 18.7448 15.1192 18.3909 13.5924 17.6336C12.787 17.224 12.0037 16.7722 11.2459 16.2801C12.9355 11.852 13.074 5.72266 13.074 0.31402V0.230103H10.08V0.309283C10.08 4.07679 10.08 10.3639 8.65195 14.6457C7.797 14.1496 6.65819 13.5866 5.32001 13.4715C3.31882 13.3017 1.44604 14.3303 0.770185 15.9755C0.37684 16.9304 0.414012 18.0098 0.874942 19.0142C1.38183 20.122 2.35167 21.0045 3.46953 21.3747ZM3.53712 17.1172C3.69864 16.7301 4.27041 16.4499 4.89625 16.4499C4.9537 16.4499 5.01182 16.4499 5.06657 16.4553C5.84852 16.523 6.62102 16.9182 7.34148 17.3466C7.19391 17.551 7.03364 17.7458 6.86162 17.93C6.27093 18.5546 5.23958 18.8098 4.41302 18.5303C4.05124 18.3937 3.75819 18.1192 3.59794 17.7669C3.53171 17.6268 3.43777 17.3568 3.53509 17.1172H3.53712Z" fill="#ED35CB" />
		<path d="M24.4067 22H27.5278L27.5136 21.908C26.9405 18.152 26.689 15.3353 26.7026 12.7758C26.7026 12.4706 26.7147 12.1403 26.7357 11.7918C27.5845 12.0503 28.4321 12.5856 29.2465 13.1649L29.4161 13.2861C31.0314 14.4366 32.7021 15.6263 34.7769 16.3064C35.4886 16.5386 36.219 16.7089 36.9599 16.8154C36.8248 18.3299 36.622 19.9961 36.3273 21.908L36.3132 22H39.4288L39.4437 21.9384C39.958 19.7268 40.2189 16.8898 40.2189 13.5074C40.2189 11.2741 39.8215 0.159038 32.0087 0.00203027V0H31.8242C24.014 0.159038 23.6139 11.2741 23.6139 13.5074C23.6139 16.8912 23.8748 19.7268 24.3898 21.9384L24.4067 22ZM35.7164 13.4241C34.0795 12.8875 32.6656 11.8805 31.1693 10.8146L30.9983 10.6928C29.8642 9.88606 28.5801 9.09764 27.1567 8.76129C27.7968 5.91485 29.1992 3.11985 31.9181 3.0718C36.0165 3.14421 37.1221 9.4509 37.1384 12.7758C37.1384 13.1034 37.1354 13.4359 37.1296 13.7733C36.6507 13.6914 36.1784 13.5747 35.7164 13.4241Z" fill="#ED35CB" />
	</g>
	<defs>
		<filter id="filter0_d_1934_5594" x="0.5" y="0" width="66" height="23" filterUnits="userSpaceOnUse" color-interpolation-filters="sRGB">
			<feFlood flood-opacity="0" result="BackgroundImageFix" />
			<feColorMatrix in="SourceAlpha" type="matrix" values="0 0 0 0 0 0 0 0 0 0 0 0 0 0 0 0 0 0 127 0" result="hardAlpha" />
			<feOffset dy="1" />
			<feComposite in2="hardAlpha" operator="out" />
			<feColorMatrix type="matrix" values="0 0 0 0 0.117647 0 0 0 0 0.117647 0 0 0 0 0.117647 0 0 0 1 0" />
			<feBlend mode="normal" in2="BackgroundImageFix" result="effect1_dropShadow_1934_5594" />
			<feBlend mode="normal" in="SourceGraphic" in2="effect1_dropShadow_1934_5594" result="shape" />
		</filter>
	</defs>
</svg>
