<svg xmlns="http://www.w3.org/2000/svg">
	<defs>
		<g id="arrow-left-up" width="24" height="24" viewBox="0 0 24 24" xmlns="http://www.w3.org/2000/svg">
			<path fill-rule="evenodd" clip-rule="evenodd"
				d="M6.34315 17.6569C5.95262 17.2664 5.95262 16.6332 6.34315 16.2427L14.5355 8.05029H8.46447C7.91218 8.05029 7.46447 7.60258 7.46447 7.05029C7.46447 6.49801 7.91218 6.05029 8.46447 6.05029H16.9497C17.502 6.05029 17.9497 6.49801 17.9497 7.05029V15.5356C17.9497 16.0879 17.502 16.5356 16.9497 16.5356C16.3975 16.5356 15.9497 16.0879 15.9497 15.5356V9.46451L7.75736 17.6569C7.36684 18.0474 6.73367 18.0474 6.34315 17.6569Z"
				fill="inherit" />
		</g>
		<g id="wavy-star" width="118" height="118" viewBox="0 0 118 118" fill="none" xmlns="http://www.w3.org/2000/svg">
			<path
				d="M14.3754 25.1963C13.9348 19.0446 19.0446 13.9348 25.1963 14.3754C29.4743 14.6818 33.4791 12.2622 35.1958 8.33391C37.6643 2.6852 44.5659 0.53792 49.8113 3.78664C53.4591 6.04589 58.1316 5.76576 61.4781 3.08719C66.2901 -0.764484 73.4026 0.542623 76.54 5.85524C78.7219 9.54979 82.9917 11.4733 87.2013 10.6581C93.2546 9.48581 98.9485 13.9479 99.2592 20.1073C99.4753 24.3908 102.364 28.0773 106.473 29.3122C112.38 31.0879 115.351 37.6827 112.764 43.2779C110.965 47.169 111.811 51.774 114.877 54.7761C119.286 59.0929 118.853 66.3097 113.961 70.0589C110.559 72.6662 109.168 77.1347 110.49 81.2163C112.389 87.0853 108.652 93.2708 102.576 94.3151C98.3496 95.0413 95.0413 98.3497 94.3151 102.576C93.2707 108.652 87.0853 112.39 81.2162 110.49C77.1347 109.168 72.6662 110.559 70.0589 113.961C66.3096 118.853 59.0929 119.286 54.776 114.877C51.774 111.811 47.169 110.965 43.2779 112.764C37.6827 115.351 31.0878 112.38 29.3122 106.473C28.0773 102.364 24.3908 99.4753 20.1073 99.2592C13.9479 98.9485 9.48579 93.2546 10.6581 87.2013C11.4733 82.9917 9.54978 78.7219 5.85523 76.54C0.54261 73.4026 -0.7645 66.2902 3.08718 61.4781C5.76574 58.1316 6.04587 53.4591 3.78662 49.8113C0.537904 44.5659 2.68519 37.6643 8.33389 35.1958C12.2622 33.4791 14.6818 29.4743 14.3754 25.1963Z"
				fill="#FFF4A5" />
		</g>
		<g id="wavy-star-stroke" width="131" height="131" viewBox="0 0 131 131" fill="none"
			xmlns="http://www.w3.org/2000/svg">
			<path fill-rule="evenodd" clip-rule="evenodd"
				d="M17.4199 27.0457C17.8345 32.8131 14.5737 38.2133 9.27621 40.5272C4.25347 42.721 2.34035 48.8608 5.23536 53.5339C8.28095 58.45 7.90671 64.7492 4.29516 69.2618C0.870651 73.5407 2.03144 79.8742 6.76593 82.671C11.7447 85.6121 14.3396 91.3667 13.2419 97.0419C12.1999 102.43 16.1742 107.503 21.6596 107.781C27.4333 108.074 32.4019 111.968 34.0674 117.505C35.6507 122.769 41.5255 125.413 46.503 123.112C51.7497 120.687 57.9568 121.831 62.0027 125.963C65.85 129.893 72.273 129.504 75.6058 125.155C79.1214 120.566 85.1466 118.695 90.6479 120.477C95.874 122.17 101.375 118.844 102.303 113.439C103.28 107.741 107.741 103.28 113.439 102.303C118.844 101.375 122.17 95.874 120.477 90.6479C118.695 85.1466 120.566 79.1214 125.155 75.6058C129.504 72.273 129.893 65.85 125.963 62.0027C121.831 57.9568 120.687 51.7497 123.112 46.503C125.413 41.5255 122.769 35.6507 117.505 34.0674C111.968 32.4019 108.074 27.4333 107.781 21.6596C107.503 16.1742 102.43 12.1999 97.0419 13.2419C91.3667 14.3396 85.6121 11.7447 82.671 6.76593C79.8742 2.03144 73.5408 0.870651 69.2619 4.29516C64.7492 7.90671 58.45 8.28096 53.5339 5.23536C48.8608 2.34035 42.721 4.25347 40.5272 9.27621C38.2133 14.5737 32.8131 17.8345 27.0457 17.4199C21.5711 17.0264 17.0264 21.5711 17.4199 27.0457ZM27.2121 15.1056C20.3276 14.6107 14.6107 20.3276 15.1056 27.2121C15.4497 31.9998 12.7431 36.4809 8.34745 38.4008C2.02667 41.1617 -0.374324 48.8847 3.26289 54.7558C5.79231 58.8388 5.4802 64.0678 2.48359 67.812C-1.82544 73.1961 -0.360538 81.1561 5.58578 84.6688C9.72102 87.1116 11.8749 91.8906 10.9638 96.6013C9.65371 103.375 14.6489 109.749 21.5421 110.098C26.3358 110.341 30.4623 113.575 31.8455 118.174C33.8344 124.785 41.2156 128.112 47.4765 125.218C51.8305 123.206 56.9842 124.155 60.3448 127.587C65.1771 132.522 73.2533 132.04 77.4476 126.566C80.3645 122.759 85.3648 121.205 89.9329 122.684C96.5016 124.812 103.423 120.632 104.59 113.832C105.401 109.102 109.102 105.401 113.832 104.59C120.632 103.423 124.812 96.5016 122.684 89.9329C121.205 85.3648 122.759 80.3645 126.566 77.4476C132.04 73.2533 132.522 65.1771 127.587 60.3448C124.155 56.9842 123.206 51.8305 125.218 47.4765C128.112 41.2156 124.785 33.8344 118.174 31.8455C113.575 30.4623 110.341 26.3358 110.098 21.5421C109.749 14.6489 103.375 9.65371 96.6013 10.9638C91.8906 11.8749 87.1116 9.72102 84.6688 5.58578C81.1561 -0.360541 73.1961 -1.82543 67.812 2.48359C64.0678 5.4802 58.8388 5.79231 54.7558 3.26289C48.8847 -0.374322 41.1617 2.02668 38.4008 8.34745C36.4809 12.7431 31.9998 15.4497 27.2121 15.1056Z"
				fill="#E6C6AC" />
		</g>
		<g id="100-perc" width="70" height="19" viewBox="0 0 70 19" fill="none" xmlns="http://www.w3.org/2000/svg">
			<path
				d="M64.5847 9.39929C65.5953 9.39929 66.4373 9.63508 67.111 10.1066C67.7847 10.5614 68.2899 11.134 68.6268 11.8245C68.9636 12.515 69.132 13.2645 69.132 14.0729C69.132 14.8645 68.9636 15.6055 68.6268 16.296C68.2899 16.9865 67.7847 17.5676 67.111 18.0391C66.4373 18.4939 65.5953 18.7212 64.5847 18.7212C63.6079 18.7212 62.7911 18.4939 62.1343 18.0391C61.4774 17.5676 60.9806 16.9865 60.6438 16.296C60.3238 15.6055 60.1638 14.8645 60.1638 14.0729C60.1638 13.2645 60.3238 12.515 60.6438 11.8245C60.9806 11.134 61.4774 10.5614 62.1343 10.1066C62.7911 9.63508 63.6079 9.39929 64.5847 9.39929ZM66.0752 15.5381C66.1426 15.2855 66.1679 15.0244 66.151 14.755C66.151 14.4687 66.1173 14.1992 66.05 13.9466C65.9658 13.6434 65.8563 13.3487 65.7216 13.0624C65.5868 12.7592 65.41 12.4898 65.191 12.254C65.0563 12.1024 64.8879 11.9677 64.6858 11.8498C64.4837 11.715 64.2732 11.6645 64.0542 11.6982C64.0037 11.6982 63.9279 11.715 63.8269 11.7487C63.6584 11.8329 63.5237 11.9508 63.4227 12.1024C63.3385 12.254 63.2795 12.414 63.2458 12.5824C63.1785 12.835 63.1448 13.1045 63.1448 13.3908C63.1616 13.6603 63.2037 13.9213 63.2711 14.1739C63.3553 14.4771 63.4648 14.7802 63.5995 15.0834C63.7342 15.3697 63.9111 15.6308 64.13 15.8665C64.2647 16.0181 64.4332 16.1613 64.6353 16.296C64.8374 16.4139 65.0479 16.456 65.2668 16.4223C65.3174 16.4223 65.3932 16.4055 65.4942 16.3718C65.6626 16.2876 65.7889 16.1697 65.8731 16.0181C65.9742 15.8665 66.0416 15.7065 66.0752 15.5381ZM52.3323 0.203674C53.3429 0.203674 54.1849 0.439459 54.8586 0.911029C55.5323 1.36576 56.0375 1.93838 56.3744 2.62889C56.7112 3.31941 56.8796 4.06887 56.8796 4.87727C56.8796 5.66884 56.7112 6.40987 56.3744 7.10039C56.0375 7.7909 55.5323 8.37194 54.8586 8.84351C54.1849 9.29824 53.3429 9.52561 52.3323 9.52561C51.3555 9.52561 50.5387 9.29824 49.8819 8.84351C49.225 8.37194 48.7282 7.7909 48.3914 7.10039C48.0714 6.40987 47.9114 5.66884 47.9114 4.87727C47.9114 4.06887 48.0714 3.31941 48.3914 2.62889C48.7282 1.93838 49.225 1.36576 49.8819 0.911029C50.5387 0.439459 51.3555 0.203674 52.3323 0.203674ZM51.8524 6.67092C51.9871 6.8225 52.1555 6.96565 52.3576 7.10039C52.5597 7.21828 52.7702 7.26038 52.9892 7.2267C53.0397 7.2267 53.1155 7.20986 53.2165 7.17618C53.385 7.09197 53.5113 6.97407 53.5955 6.8225C53.6965 6.67092 53.7639 6.51092 53.7976 6.34251C53.8649 6.08988 53.8902 5.82883 53.8734 5.55936C53.8734 5.27305 53.8397 5.00358 53.7723 4.75096C53.6881 4.44781 53.5786 4.15307 53.4439 3.86676C53.3092 3.56361 53.1323 3.29414 52.9134 3.05836C52.7787 2.90678 52.6102 2.77205 52.4081 2.65415C52.206 2.51942 51.9955 2.4689 51.7766 2.50258C51.726 2.50258 51.6503 2.51942 51.5492 2.5531C51.3808 2.63731 51.2461 2.75521 51.145 2.90678C51.0608 3.05836 51.0018 3.21835 50.9682 3.38677C50.9008 3.6394 50.8671 3.90887 50.8671 4.19518C50.884 4.46465 50.9261 4.7257 50.9934 4.97832C51.0776 5.28147 51.1871 5.58463 51.3218 5.88778C51.4566 6.17409 51.6334 6.43514 51.8524 6.67092ZM65.2163 0.734191C65.2668 0.8184 65.2668 0.902609 65.2163 0.986818L55.2881 18.1907C55.2376 18.2749 55.1618 18.317 55.0607 18.317H52.4334C52.3323 18.317 52.2566 18.2749 52.206 18.1907C52.1555 18.1065 52.1555 18.0223 52.206 17.9381L62.1343 0.734191C62.1848 0.649983 62.2606 0.607878 62.3616 0.607878H64.9889C65.09 0.607878 65.1658 0.649983 65.2163 0.734191Z"
				fill="#1E1E1E" />
			<path
				d="M37.2112 0.026825C38.7101 0.026825 40.0238 0.296294 41.1522 0.835231C42.2974 1.35733 43.2406 2.05626 43.9816 2.93203C44.7395 3.79097 45.3037 4.77621 45.6742 5.88777C46.0616 6.99933 46.2553 8.13615 46.2553 9.29823C46.2553 10.4435 46.0616 11.5719 45.6742 12.6834C45.3037 13.795 44.7395 14.7887 43.9816 15.6644C43.2406 16.5234 42.3059 17.2223 41.1775 17.7612C40.0491 18.2833 38.7354 18.5444 37.2365 18.5444C35.7713 18.5444 34.4913 18.2833 33.3966 17.7612C32.3018 17.2223 31.384 16.5234 30.6429 15.6644C29.9187 14.7887 29.3714 13.795 29.0009 12.6834C28.6472 11.5719 28.4703 10.4435 28.4703 9.29823C28.4703 8.13615 28.6472 6.99933 29.0009 5.88777C29.3714 4.77621 29.9187 3.79097 30.6429 2.93203C31.384 2.05626 32.3018 1.35733 33.3966 0.835231C34.4913 0.296294 35.7713 0.026825 37.2365 0.026825H37.2112ZM35.6197 14.2497C36.0239 14.6876 36.5039 15.0834 37.0596 15.4371C37.6323 15.7907 38.2386 15.9339 38.8786 15.8665C39.148 15.8497 39.4091 15.7739 39.6617 15.6392C40.1333 15.4034 40.5038 15.0665 40.7733 14.6287C41.0427 14.1739 41.2448 13.7024 41.3796 13.2139C41.5648 12.5066 41.649 11.7908 41.6322 11.0666C41.6154 10.3256 41.5227 9.60138 41.3543 8.89403C41.169 8.06878 40.8827 7.26037 40.4954 6.46881C40.108 5.6604 39.6196 4.93621 39.0301 4.29622C38.6259 3.85833 38.1375 3.46255 37.5649 3.10887C37.0091 2.75519 36.4112 2.61204 35.7713 2.67941C35.5018 2.69625 35.2407 2.77204 34.9881 2.90677C34.5165 3.14255 34.146 3.48781 33.8766 3.94254C33.6071 4.38043 33.405 4.84358 33.2702 5.33199C33.085 6.03934 33.0008 6.76354 33.0176 7.50458C33.0345 8.22878 33.1271 8.94455 33.2955 9.65191C33.4808 10.4772 33.7671 11.294 34.1544 12.1024C34.5418 12.894 35.0302 13.6097 35.6197 14.2497Z"
				fill="#1E1E1E" />
			<path
				d="M17.7955 0.026825C19.2944 0.026825 20.608 0.296294 21.7364 0.835231C22.8817 1.35733 23.8248 2.05626 24.5659 2.93203C25.3237 3.79097 25.8879 4.77621 26.2585 5.88777C26.6458 6.99933 26.8395 8.13615 26.8395 9.29823C26.8395 10.4435 26.6458 11.5719 26.2585 12.6834C25.8879 13.795 25.3237 14.7887 24.5659 15.6644C23.8248 16.5234 22.8901 17.2223 21.7617 17.7612C20.6333 18.2833 19.3196 18.5444 17.8207 18.5444C16.3555 18.5444 15.0755 18.2833 13.9808 17.7612C12.8861 17.2223 11.9682 16.5234 11.2272 15.6644C10.503 14.7887 9.95562 13.795 9.5851 12.6834C9.23142 11.5719 9.05458 10.4435 9.05458 9.29823C9.05458 8.13615 9.23142 6.99933 9.5851 5.88777C9.95562 4.77621 10.503 3.79097 11.2272 2.93203C11.9682 2.05626 12.8861 1.35733 13.9808 0.835231C15.0755 0.296294 16.3555 0.026825 17.8207 0.026825H17.7955ZM16.2039 14.2497C16.6081 14.6876 17.0881 15.0834 17.6439 15.4371C18.2165 15.7907 18.8228 15.9339 19.4628 15.8665C19.7323 15.8497 19.9933 15.7739 20.2459 15.6392C20.7175 15.4034 21.088 15.0665 21.3575 14.6287C21.627 14.1739 21.8291 13.7024 21.9638 13.2139C22.1491 12.5066 22.2333 11.7908 22.2164 11.0666C22.1996 10.3256 22.107 9.60138 21.9385 8.89403C21.7533 8.06878 21.467 7.26037 21.0796 6.46881C20.6923 5.6604 20.2038 4.93621 19.6144 4.29622C19.2102 3.85833 18.7218 3.46255 18.1491 3.10887C17.5934 2.75519 16.9955 2.61204 16.3555 2.67941C16.086 2.69625 15.825 2.77204 15.5724 2.90677C15.1008 3.14255 14.7303 3.48781 14.4608 3.94254C14.1913 4.38043 13.9892 4.84358 13.8545 5.33199C13.6692 6.03934 13.585 6.76354 13.6019 7.50458C13.6187 8.22878 13.7113 8.94455 13.8798 9.65191C14.065 10.4772 14.3513 11.294 14.7387 12.1024C15.126 12.894 15.6145 13.6097 16.2039 14.2497Z"
				fill="#1E1E1E" />
			<path
				d="M6.7932 16.1192L7.4753 17.8876C7.50898 17.9718 7.50056 18.0476 7.45003 18.1149C7.39951 18.1991 7.32372 18.2412 7.22267 18.2412H1.61435C1.5133 18.2412 1.43751 18.1991 1.38699 18.1149C1.33646 18.0476 1.32804 17.9718 1.36173 17.8876L2.04382 16.1192V4.47308H0.401744C0.283852 4.47308 0.199643 4.42256 0.149118 4.32151C0.0985922 4.22046 0.115434 4.12783 0.199643 4.04362L3.48379 0.68368C3.53432 0.633155 3.59326 0.607893 3.66063 0.607893L6.46479 0.532104C6.549 0.532104 6.61636 0.557367 6.66689 0.607893C6.71742 0.658418 6.74268 0.717364 6.74268 0.784731V16.1192H6.7932Z"
				fill="#1E1E1E" />
		</g>
		<g id="location" width="260" height="260" viewBox="0 0 260 260" fill="none" xmlns="http://www.w3.org/2000/svg">
			<path
				d="M195 173.507C208.488 179.237 216.667 186.756 216.667 195C216.667 212.951 177.862 227.5 130 227.5C82.1383 227.5 43.3333 212.951 43.3333 195C43.3333 186.767 51.5125 179.227 65 173.507"
				stroke="#1E1E1E" stroke-opacity="0.1" stroke-width="28" stroke-linecap="round"
				stroke-linejoin="round" />
			<path
				d="M184.167 91.4767C184.167 124.984 130 184.167 130 184.167C130 184.167 75.8333 124.984 75.8333 91.4767C75.8333 57.98 100.089 32.5 130 32.5C159.911 32.5 184.167 57.98 184.167 91.4767Z"
				stroke="#1E1E1E" stroke-opacity="0.1" stroke-width="28" stroke-linecap="round"
				stroke-linejoin="round" />
			<path
				d="M130 97.5C135.983 97.5 140.833 92.6497 140.833 86.6666C140.833 80.6836 135.983 75.8333 130 75.8333C124.017 75.8333 119.167 80.6836 119.167 86.6666C119.167 92.6497 124.017 97.5 130 97.5Z"
				stroke="#1E1E1E" stroke-opacity="0.1" stroke-width="28" stroke-linecap="round"
				stroke-linejoin="round" />
		</g>
		<g id="send-message" width="24" height="24" viewBox="0 0 24 24" fill="none" xmlns="http://www.w3.org/2000/svg">
			<path d="M6 12L3 21L21 12L3 3L6 12ZM6 12H12" stroke="#1E1E1E" stroke-width="2" stroke-linecap="round"
				stroke-linejoin="round" />
		</g>
		<g id="100-perc-pink" width="70" height="19" viewBox="0 0 70 19" fill="none" xmlns="http://www.w3.org/2000/svg">
			<path
				d="M64.5801 9.61041C65.5906 9.61041 66.4327 9.8462 67.1064 10.3178C67.78 10.7725 68.2853 11.3451 68.6221 12.0356C68.959 12.7261 69.1274 13.4756 69.1274 14.284C69.1274 15.0756 68.959 15.8166 68.6221 16.5071C68.2853 17.1976 67.78 17.7787 67.1064 18.2503C66.4327 18.705 65.5906 18.9323 64.5801 18.9323C63.6033 18.9323 62.7865 18.705 62.1296 18.2503C61.4728 17.7787 60.976 17.1976 60.6391 16.5071C60.3191 15.8166 60.1591 15.0756 60.1591 14.284C60.1591 13.4756 60.3191 12.7261 60.6391 12.0356C60.976 11.3451 61.4728 10.7725 62.1296 10.3178C62.7865 9.8462 63.6033 9.61041 64.5801 9.61041ZM66.0706 15.7492C66.138 15.4966 66.1632 15.2356 66.1464 14.9661C66.1464 14.6798 66.1127 14.4103 66.0453 14.1577C65.9611 13.8545 65.8517 13.5598 65.7169 13.2735C65.5822 12.9703 65.4054 12.7009 65.1864 12.4651C65.0517 12.3135 64.8833 12.1788 64.6812 12.0609C64.4791 11.9262 64.2685 11.8756 64.0496 11.9093C63.9991 11.9093 63.9233 11.9262 63.8222 11.9598C63.6538 12.0441 63.5191 12.1619 63.418 12.3135C63.3338 12.4651 63.2749 12.6251 63.2412 12.7935C63.1738 13.0461 63.1401 13.3156 63.1401 13.6019C63.157 13.8714 63.1991 14.1324 63.2664 14.3851C63.3507 14.6882 63.4601 14.9914 63.5949 15.2945C63.7296 15.5808 63.9064 15.8419 64.1254 16.0777C64.2601 16.2292 64.4285 16.3724 64.6306 16.5071C64.8327 16.625 65.0433 16.6671 65.2622 16.6334C65.3127 16.6334 65.3885 16.6166 65.4896 16.5829C65.658 16.4987 65.7843 16.3808 65.8685 16.2292C65.9696 16.0777 66.0369 15.9177 66.0706 15.7492ZM52.3277 0.414795C53.3382 0.414795 54.1803 0.65058 54.854 1.12215C55.5276 1.57688 56.0329 2.1495 56.3697 2.84001C56.7066 3.53053 56.875 4.27999 56.875 5.08839C56.875 5.87996 56.7066 6.62099 56.3697 7.31151C56.0329 8.00202 55.5276 8.58306 54.854 9.05463C54.1803 9.50936 53.3382 9.73673 52.3277 9.73673C51.3509 9.73673 50.5341 9.50936 49.8772 9.05463C49.2204 8.58306 48.7236 8.00202 48.3867 7.31151C48.0667 6.62099 47.9067 5.87996 47.9067 5.08839C47.9067 4.27999 48.0667 3.53053 48.3867 2.84001C48.7236 2.1495 49.2204 1.57688 49.8772 1.12215C50.5341 0.65058 51.3509 0.414795 52.3277 0.414795ZM51.8477 6.88204C51.9825 7.03362 52.1509 7.17677 52.353 7.31151C52.5551 7.4294 52.7656 7.47151 52.9845 7.43782C53.0351 7.43782 53.1109 7.42098 53.2119 7.3873C53.3803 7.30309 53.5066 7.18519 53.5908 7.03362C53.6919 6.88204 53.7593 6.72205 53.7929 6.55363C53.8603 6.301 53.8856 6.03995 53.8687 5.77048C53.8687 5.48417 53.835 5.2147 53.7677 4.96208C53.6835 4.65893 53.574 4.36419 53.4393 4.07789C53.3045 3.77473 53.1277 3.50526 52.9087 3.26948C52.774 3.1179 52.6056 2.98317 52.4035 2.86528C52.2014 2.73054 51.9909 2.68002 51.7719 2.7137C51.7214 2.7137 51.6456 2.73054 51.5446 2.76422C51.3761 2.84843 51.2414 2.96633 51.1404 3.1179C51.0562 3.26948 50.9972 3.42948 50.9635 3.59789C50.8962 3.85052 50.8625 4.11999 50.8625 4.4063C50.8793 4.67577 50.9214 4.93682 50.9888 5.18944C51.073 5.49259 51.1825 5.79575 51.3172 6.0989C51.4519 6.38521 51.6288 6.64626 51.8477 6.88204ZM65.2117 0.945312C65.2622 1.02952 65.2622 1.11373 65.2117 1.19794L55.2834 18.4018C55.2329 18.486 55.1571 18.5281 55.0561 18.5281H52.4288C52.3277 18.5281 52.2519 18.486 52.2014 18.4018C52.1509 18.3176 52.1509 18.2334 52.2014 18.1492L62.1296 0.945312C62.1801 0.861103 62.2559 0.818999 62.357 0.818999H64.9843C65.0854 0.818999 65.1611 0.861103 65.2117 0.945312Z"
				fill="#BE046A" />
			<path
				d="M37.2065 0.237915C38.7054 0.237915 40.019 0.507384 41.1474 1.04632C42.2927 1.56842 43.2358 2.26735 43.9769 3.14312C44.7347 4.00206 45.2989 4.9873 45.6695 6.09886C46.0568 7.21042 46.2505 8.34724 46.2505 9.50932C46.2505 10.6546 46.0568 11.783 45.6695 12.8945C45.2989 14.0061 44.7347 14.9997 43.9769 15.8755C43.2358 16.7344 42.3011 17.4334 41.1727 17.9723C40.0443 18.4944 38.7306 18.7555 37.2317 18.7555C35.7665 18.7555 34.4865 18.4944 33.3918 17.9723C32.2971 17.4334 31.3792 16.7344 30.6382 15.8755C29.914 14.9997 29.3666 14.0061 28.9961 12.8945C28.6424 11.783 28.4656 10.6546 28.4656 9.50932C28.4656 8.34724 28.6424 7.21042 28.9961 6.09886C29.3666 4.9873 29.914 4.00206 30.6382 3.14312C31.3792 2.26735 32.2971 1.56842 33.3918 1.04632C34.4865 0.507384 35.7665 0.237915 37.2317 0.237915H37.2065ZM35.6149 14.4608C36.0191 14.8987 36.4991 15.2945 37.0549 15.6482C37.6275 16.0018 38.2338 16.145 38.8738 16.0776C39.1433 16.0608 39.4043 15.985 39.6569 15.8503C40.1285 15.6145 40.499 15.2776 40.7685 14.8397C41.038 14.385 41.2401 13.9134 41.3748 13.425C41.5601 12.7177 41.6443 12.0019 41.6274 11.2777C41.6106 10.5367 41.518 9.81247 41.3495 9.10512C41.1643 8.27987 40.878 7.47146 40.4906 6.6799C40.1033 5.87149 39.6148 5.1473 39.0254 4.50731C38.6212 4.06942 38.1328 3.67364 37.5601 3.31996C37.0044 2.96628 36.4065 2.82313 35.7665 2.8905C35.497 2.90734 35.236 2.98313 34.9833 3.11786C34.5118 3.35365 34.1413 3.6989 33.8718 4.15363C33.6023 4.59152 33.4002 5.05467 33.2655 5.54308C33.0802 6.25043 32.996 6.97463 33.0129 7.71567C33.0297 8.43987 33.1223 9.15564 33.2908 9.863C33.476 10.6882 33.7623 11.5051 34.1497 12.3135C34.537 13.105 35.0255 13.8208 35.6149 14.4608Z"
				fill="#BE046A" />
			<path
				d="M17.7907 0.237915C19.2896 0.237915 20.6033 0.507384 21.7317 1.04632C22.8769 1.56842 23.8201 2.26735 24.5611 3.14312C25.319 4.00206 25.8832 4.9873 26.2537 6.09886C26.6411 7.21042 26.8347 8.34724 26.8347 9.50932C26.8347 10.6546 26.6411 11.783 26.2537 12.8945C25.8832 14.0061 25.319 14.9997 24.5611 15.8755C23.8201 16.7344 22.8853 17.4334 21.7569 17.9723C20.6285 18.4944 19.3149 18.7555 17.816 18.7555C16.3507 18.7555 15.0707 18.4944 13.976 17.9723C12.8813 17.4334 11.9634 16.7344 11.2224 15.8755C10.4982 14.9997 9.95084 14.0061 9.58032 12.8945C9.22664 11.783 9.0498 10.6546 9.0498 9.50932C9.0498 8.34724 9.22664 7.21042 9.58032 6.09886C9.95084 4.9873 10.4982 4.00206 11.2224 3.14312C11.9634 2.26735 12.8813 1.56842 13.976 1.04632C15.0707 0.507384 16.3507 0.237915 17.816 0.237915H17.7907ZM16.1991 14.4608C16.6033 14.8987 17.0833 15.2945 17.6391 15.6482C18.2117 16.0018 18.818 16.145 19.458 16.0776C19.7275 16.0608 19.9885 15.985 20.2412 15.8503C20.7127 15.6145 21.0833 15.2776 21.3527 14.8397C21.6222 14.385 21.8243 13.9134 21.959 13.425C22.1443 12.7177 22.2285 12.0019 22.2117 11.2777C22.1948 10.5367 22.1022 9.81247 21.9338 9.10512C21.7485 8.27987 21.4622 7.47146 21.0748 6.6799C20.6875 5.87149 20.1991 5.1473 19.6096 4.50731C19.2054 4.06942 18.717 3.67364 18.1444 3.31996C17.5886 2.96628 16.9907 2.82313 16.3507 2.8905C16.0812 2.90734 15.8202 2.98313 15.5676 3.11786C15.096 3.35365 14.7255 3.6989 14.456 4.15363C14.1865 4.59152 13.9844 5.05467 13.8497 5.54308C13.6645 6.25043 13.5802 6.97463 13.5971 7.71567C13.6139 8.43987 13.7066 9.15564 13.875 9.863C14.0602 10.6882 14.3465 11.5051 14.7339 12.3135C15.1213 13.105 15.6097 13.8208 16.1991 14.4608Z"
				fill="#BE046A" />
			<path
				d="M6.78847 16.3302L7.47057 18.0986C7.50425 18.1828 7.49583 18.2586 7.4453 18.326C7.39478 18.4102 7.31899 18.4523 7.21794 18.4523H1.60962C1.50857 18.4523 1.43278 18.4102 1.38226 18.326C1.33173 18.2586 1.32331 18.1828 1.357 18.0986L2.03909 16.3302V4.68414H0.397014C0.279122 4.68414 0.194913 4.63362 0.144387 4.53257C0.093862 4.43151 0.110704 4.33888 0.194913 4.25468L3.47906 0.89474C3.52959 0.844215 3.58853 0.818953 3.6559 0.818953L6.46006 0.743164C6.54427 0.743164 6.61163 0.768427 6.66216 0.818953C6.71268 0.869477 6.73795 0.928423 6.73795 0.995791V16.3302H6.78847Z"
				fill="#BE046A" />
		</g>

	</defs>
</svg>