<svg width="1304" height="503" viewBox="0 0 1304 503" fill="none" xmlns="http://www.w3.org/2000/svg">
<path fill-rule="evenodd" clip-rule="evenodd" d="M27.9659 107.847C30.4781 113.483 29.2474 120.064 24.8902 124.278C20.7589 128.273 21.1215 135.114 25.67 138.766C30.4551 142.608 32.3869 149.059 30.4878 154.876C28.687 160.391 32.1386 166.327 37.8085 167.44C43.7709 168.61 48.4195 173.454 49.4132 179.538C50.3567 185.314 56.1109 188.981 61.5989 187.299C67.3752 185.53 73.6757 187.66 77.3322 192.617C80.8082 197.33 87.542 197.882 91.5899 193.796C95.8568 189.489 102.369 188.418 107.85 191.116C113.062 193.681 119.228 190.996 120.913 185.443C122.69 179.585 127.923 175.555 133.976 175.376C139.725 175.206 143.913 169.905 142.851 164.152C141.731 158.088 144.483 152.021 149.722 149.004C154.691 146.142 155.948 139.436 152.378 134.8C148.62 129.92 148.259 123.208 151.481 118.043C154.535 113.146 152.572 106.566 147.309 104.111C141.775 101.531 138.386 95.7146 138.852 89.5861C139.294 83.772 134.553 78.8254 128.807 79.1187C122.762 79.4272 117.124 75.8362 114.729 70.1506C112.454 64.7488 106.022 62.576 101.112 65.5467C95.9394 68.6758 89.3416 68.1301 84.6362 64.1882C80.1618 60.4396 73.519 61.539 70.5673 66.5027C67.4545 71.7374 61.4056 74.3641 55.4665 73.0667C49.8211 71.8335 44.4905 75.9465 44.1697 81.7678C43.8312 87.9075 39.7188 93.1078 33.9043 94.7532C28.3849 96.3152 25.5811 102.497 27.9659 107.847ZM33.2229 92.3728C26.282 94.337 22.7551 102.114 25.754 108.841C27.8396 113.52 26.8175 118.981 23.202 122.477C18.0032 127.505 18.4646 136.109 24.1792 140.697C28.1533 143.887 29.7555 149.243 28.1797 154.069C25.9138 161.009 30.2578 168.468 37.3789 169.866C42.3312 170.838 46.1906 174.86 47.0155 179.91C48.2016 187.172 55.433 191.779 62.3293 189.665C67.1252 188.196 72.3578 189.965 75.3943 194.082C79.7608 200.002 88.223 200.7 93.3146 195.56C96.8555 191.986 102.262 191.095 106.815 193.336C113.361 196.559 121.116 193.189 123.236 186.2C124.711 181.34 129.054 177.994 134.079 177.845C141.306 177.632 146.576 170.965 145.24 163.729C144.311 158.696 146.594 153.661 150.942 151.157C157.193 147.556 158.772 139.121 154.285 133.294C151.164 129.242 150.865 123.671 153.539 119.386C157.383 113.223 154.908 104.951 148.298 101.869C143.701 99.725 140.889 94.8954 141.276 89.8096C141.832 82.4965 135.871 76.283 128.652 76.6514C123.632 76.9076 118.95 73.9252 116.962 69.2045C114.102 62.4164 106.021 59.6846 99.8474 63.4195C95.5542 66.0168 90.0753 65.5647 86.1672 62.2906C80.5474 57.5826 72.1964 58.9584 68.4824 65.2041C65.8996 69.5475 60.879 71.7293 55.9465 70.6519C48.8537 69.1025 42.1465 74.2706 41.7427 81.5963C41.4619 86.6908 38.0497 91.0068 33.2229 92.3728Z" fill="#E6C6AC"/>
<path d="M32.3834 110.954C29.7053 104.942 32.8577 97.9912 39.0591 96.2344C43.3717 95.0127 46.421 91.1548 46.6728 86.6017C47.0348 80.0545 53.0281 75.4344 59.3646 76.8177C63.7712 77.7798 68.2571 75.8289 70.5654 71.9466C73.8846 66.364 81.3458 65.1329 86.3657 69.3395C89.8568 72.2649 94.7516 72.668 98.5877 70.3459C104.104 67.0068 111.324 69.4467 113.877 75.5129C115.653 79.7315 119.835 82.3961 124.32 82.1662C130.769 81.8356 136.094 87.3876 135.596 93.9236C135.249 98.4689 137.761 102.785 141.868 104.7C147.773 107.453 149.982 114.845 146.547 120.354C144.157 124.185 144.423 129.163 147.211 132.784C151.218 137.991 149.807 145.53 144.221 148.749C140.336 150.988 138.295 155.488 139.125 159.986C140.317 166.453 135.608 172.412 129.151 172.604C124.661 172.738 120.781 175.729 119.462 180.073C117.567 186.32 110.638 189.333 104.79 186.454C100.723 184.452 95.8921 185.249 92.728 188.444C88.1781 193.039 80.618 192.416 76.7179 187.126C74.0057 183.447 69.3312 181.867 65.0462 183.182C58.8846 185.071 52.4247 180.956 51.3663 174.466C50.6302 169.953 47.1828 166.358 42.7586 165.491C36.3966 164.243 32.517 157.577 34.5426 151.375C35.9513 147.061 34.5208 142.275 30.9708 139.424C25.8661 135.325 25.4554 127.636 30.101 123.141C33.3318 120.016 34.2458 115.135 32.3834 110.954Z" fill="#FCF298"/>
<path d="M115.819 105.502C116.766 105.157 117.637 105.096 118.432 105.317C119.222 105.522 119.894 105.898 120.45 106.444C121.006 106.99 121.425 107.649 121.707 108.423C121.982 109.18 122.083 109.946 122.008 110.722C121.932 111.497 121.661 112.226 121.195 112.906C120.722 113.571 120.012 114.076 119.066 114.42C118.151 114.753 117.306 114.814 116.533 114.603C115.753 114.376 115.085 113.99 114.529 113.444C113.989 112.892 113.581 112.238 113.305 111.48C113.024 110.707 112.913 109.935 112.972 109.166C113.047 108.39 113.313 107.673 113.77 107.014C114.221 106.339 114.904 105.835 115.819 105.502ZM119.353 110.867C119.329 110.602 119.261 110.344 119.152 110.092C119.052 109.818 118.927 109.571 118.776 109.353C118.591 109.091 118.386 108.847 118.16 108.619C117.928 108.375 117.669 108.177 117.381 108.026C117.202 107.927 116.998 107.856 116.767 107.812C116.531 107.752 116.316 107.775 116.123 107.882C116.076 107.899 116.011 107.941 115.928 108.008C115.799 108.146 115.714 108.305 115.672 108.484C115.646 108.658 115.647 108.831 115.674 109.004C115.698 109.268 115.761 109.538 115.86 109.812C115.97 110.064 116.1 110.299 116.252 110.518C116.436 110.779 116.644 111.032 116.876 111.276C117.102 111.504 117.358 111.693 117.646 111.844C117.825 111.943 118.032 112.023 118.268 112.083C118.499 112.127 118.711 112.095 118.904 111.988C118.951 111.971 119.016 111.929 119.099 111.863C119.228 111.725 119.305 111.569 119.331 111.395C119.373 111.215 119.381 111.039 119.353 110.867ZM101.14 100.881C102.086 100.537 102.957 100.475 103.752 100.697C104.542 100.902 105.215 101.278 105.771 101.823C106.327 102.369 106.745 103.029 107.027 103.802C107.302 104.56 107.403 105.326 107.328 106.102C107.253 106.877 106.982 107.605 106.515 108.286C106.042 108.951 105.332 109.456 104.386 109.8C103.471 110.133 102.626 110.194 101.853 109.983C101.073 109.756 100.405 109.369 99.8493 108.823C99.3091 108.272 98.9012 107.617 98.6255 106.86C98.344 106.087 98.2329 105.315 98.2922 104.545C98.3673 103.77 98.6333 103.053 99.0903 102.394C99.5414 101.718 100.224 101.214 101.14 100.881ZM102.942 107.233C103.121 107.332 103.329 107.411 103.565 107.471C103.795 107.515 104.007 107.484 104.2 107.377C104.248 107.359 104.313 107.317 104.396 107.251C104.524 107.113 104.602 106.957 104.628 106.783C104.67 106.604 104.677 106.428 104.65 106.255C104.625 105.99 104.558 105.732 104.448 105.48C104.348 105.206 104.223 104.96 104.072 104.741C103.887 104.48 103.682 104.235 103.456 104.007C103.225 103.763 102.965 103.565 102.678 103.414C102.499 103.315 102.294 103.244 102.064 103.2C101.828 103.14 101.613 103.163 101.419 103.27C101.372 103.288 101.307 103.329 101.224 103.396C101.096 103.534 101.01 103.693 100.969 103.872C100.942 104.046 100.943 104.219 100.97 104.392C100.995 104.657 101.057 104.926 101.157 105.2C101.266 105.452 101.397 105.687 101.548 105.906C101.732 106.167 101.94 106.42 102.172 106.664C102.398 106.892 102.655 107.082 102.942 107.233ZM113.394 96.996C113.47 97.0593 113.5 97.1399 113.482 97.2377L110.172 117.083C110.154 117.18 110.098 117.247 110.003 117.281L107.542 118.177C107.447 118.211 107.361 118.197 107.285 118.133C107.208 118.07 107.179 117.99 107.197 117.892L110.506 98.0468C110.524 97.949 110.581 97.8829 110.675 97.8485L113.137 96.9526C113.231 96.9182 113.317 96.9326 113.394 96.996Z" fill="#BE046A"/>
<path d="M86.9116 105.867C88.3157 105.356 89.6401 105.166 90.8848 105.297C92.1394 105.406 93.2663 105.753 94.2654 106.339C95.2745 106.902 96.1461 107.652 96.8802 108.589C97.6301 109.521 98.2074 110.542 98.6121 111.654C99.0109 112.75 99.2224 113.895 99.2466 115.091C99.2866 116.281 99.1041 117.424 98.6991 118.52C98.304 119.594 97.6718 120.582 96.8024 121.482C95.9272 122.366 94.7876 123.064 93.3834 123.575C92.0109 124.075 90.721 124.261 89.5137 124.135C88.3006 123.993 87.1974 123.637 86.2041 123.068C85.2207 122.477 84.362 121.713 83.6279 120.776C82.9095 119.833 82.3509 118.813 81.9521 117.718C81.5474 116.606 81.3172 115.458 81.2615 114.274C81.2215 113.084 81.3912 111.955 81.7704 110.886C82.1597 109.796 82.7761 108.814 83.6198 107.941C84.4576 107.053 85.5627 106.358 86.9353 105.859L86.9116 105.867ZM90.3734 120.017C90.9045 120.299 91.492 120.514 92.1358 120.662C92.7953 120.806 93.4131 120.736 93.9892 120.453C94.2357 120.345 94.4539 120.184 94.6436 119.969C95.0033 119.582 95.233 119.134 95.333 118.623C95.4271 118.096 95.4522 117.576 95.4083 117.063C95.3355 116.323 95.1652 115.609 94.8972 114.922C94.6234 114.219 94.2845 113.558 93.8804 112.938C93.4195 112.212 92.8698 111.536 92.2313 110.911C91.5869 110.27 90.8772 109.743 90.1022 109.332C89.5711 109.051 88.9757 108.839 88.3162 108.696C87.6724 108.547 87.0625 108.614 86.4864 108.896C86.2399 109.004 86.0217 109.166 85.832 109.381C85.4723 109.767 85.2455 110.224 85.1514 110.751C85.0515 111.261 85.0234 111.773 85.0673 112.287C85.1401 113.027 85.3134 113.748 85.5872 114.451C85.8551 115.139 86.1912 115.792 86.5952 116.411C87.0561 117.137 87.6088 117.821 88.2531 118.463C88.8916 119.088 89.5984 119.606 90.3734 120.017Z" fill="#BE046A"/>
<path d="M68.7241 112.488C70.1282 111.977 71.4526 111.786 72.6973 111.917C73.9519 112.026 75.0788 112.373 76.0779 112.959C77.087 113.522 77.9586 114.272 78.6927 115.209C79.4426 116.141 80.0199 117.162 80.4246 118.274C80.8234 119.37 81.0349 120.515 81.0591 121.711C81.0991 122.901 80.9166 124.044 80.5116 125.14C80.1165 126.214 79.4843 127.202 78.6149 128.102C77.7397 128.986 76.6001 129.684 75.1959 130.195C73.8234 130.695 72.5335 130.881 71.3262 130.755C70.1131 130.613 69.0099 130.257 68.0166 129.688C67.0332 129.097 66.1745 128.333 65.4404 127.396C64.722 126.453 64.1634 125.434 63.7646 124.338C63.3599 123.226 63.1297 122.078 63.074 120.894C63.034 119.704 63.2037 118.575 63.5829 117.507C63.9722 116.416 64.5886 115.434 65.4323 114.562C66.2701 113.673 67.3752 112.979 68.7478 112.479L68.7241 112.488ZM72.1859 126.638C72.717 126.919 73.3045 127.134 73.9483 127.283C74.6078 127.426 75.2256 127.356 75.8017 127.073C76.0482 126.965 76.2664 126.804 76.4561 126.589C76.8158 126.202 77.0455 125.754 77.1455 125.243C77.2396 124.716 77.2647 124.196 77.2208 123.683C77.148 122.943 76.9777 122.229 76.7097 121.542C76.4359 120.839 76.097 120.178 75.6929 119.558C75.232 118.832 74.6823 118.156 74.0438 117.531C73.3994 116.89 72.6897 116.363 71.9147 115.952C71.3836 115.671 70.7882 115.459 70.1287 115.316C69.4849 115.167 68.875 115.234 68.2989 115.516C68.0524 115.624 67.8342 115.786 67.6445 116.001C67.2848 116.387 67.058 116.844 66.9639 117.371C66.864 117.882 66.8359 118.394 66.8798 118.907C66.9526 119.647 67.1259 120.368 67.3997 121.072C67.6676 121.759 68.0036 122.412 68.4077 123.031C68.8686 123.758 69.4213 124.441 70.0656 125.083C70.7041 125.708 71.4109 126.226 72.1859 126.638Z" fill="#BE046A"/>
<path d="M64.0209 131.635L65.2757 133.094C65.3365 133.163 65.355 133.238 65.3312 133.32C65.3132 133.418 65.2568 133.484 65.1622 133.518L59.9086 135.431C59.8139 135.465 59.7283 135.451 59.6516 135.387C59.5808 135.34 59.5466 135.27 59.5488 135.178L59.572 133.254L55.5166 122.112L53.9784 122.672C53.8679 122.712 53.7715 122.692 53.6889 122.613C53.6064 122.533 53.5899 122.439 53.6395 122.33L55.5459 117.995C55.5757 117.93 55.6221 117.886 55.6852 117.863L58.2856 116.834C58.3645 116.805 58.4364 116.807 58.5013 116.838C58.5662 116.869 58.6104 116.917 58.6339 116.981L63.9736 131.652L64.0209 131.635Z" fill="#BE046A"/>
<path d="M122.183 133.074C121.572 133.294 120.983 133.359 120.416 133.269C119.849 133.178 119.346 132.945 118.907 132.569C118.467 132.193 118.136 131.695 117.913 131.076C117.686 130.448 117.616 129.843 117.7 129.26C117.793 128.674 118.023 128.162 118.391 127.726C118.763 127.278 119.268 126.94 119.904 126.711C120.499 126.496 121.071 126.437 121.622 126.534C122.172 126.63 122.656 126.861 123.073 127.226C123.496 127.581 123.807 128.035 124.007 128.589C124.039 128.679 124.069 128.774 124.096 128.875C124.131 128.973 124.164 129.076 124.194 129.185L119.584 130.846C119.788 131.307 120.084 131.62 120.475 131.783C120.873 131.943 121.284 131.947 121.708 131.794C122.026 131.68 122.266 131.515 122.428 131.3C122.595 131.074 122.691 130.828 122.714 130.561L124.304 129.988C124.328 130.413 124.263 130.832 124.108 131.247C123.959 131.651 123.721 132.013 123.395 132.333C123.076 132.651 122.672 132.898 122.183 133.074ZM120.362 127.982C119.979 128.121 119.68 128.353 119.466 128.678C119.249 128.996 119.179 129.39 119.256 129.859L122.276 128.771C122.108 128.38 121.847 128.115 121.492 127.976C121.138 127.836 120.761 127.839 120.362 127.982Z" fill="#BE046A"/>
<path d="M114.877 135.708C114.265 135.928 113.676 135.993 113.11 135.902C112.543 135.812 112.04 135.579 111.6 135.203C111.161 134.827 110.829 134.329 110.606 133.71C110.38 133.082 110.309 132.477 110.393 131.893C110.486 131.307 110.716 130.796 111.084 130.36C111.457 129.912 111.961 129.574 112.597 129.345C113.192 129.13 113.765 129.071 114.315 129.167C114.866 129.264 115.35 129.495 115.767 129.86C116.189 130.214 116.5 130.669 116.7 131.223C116.733 131.313 116.762 131.408 116.789 131.509C116.825 131.607 116.857 131.71 116.887 131.819L112.278 133.48C112.481 133.941 112.778 134.253 113.168 134.417C113.567 134.577 113.978 134.581 114.402 134.428C114.72 134.313 114.96 134.149 115.121 133.934C115.289 133.708 115.384 133.461 115.408 133.195L116.997 132.622C117.021 133.046 116.956 133.466 116.802 133.881C116.653 134.285 116.415 134.647 116.088 134.967C115.77 135.284 115.366 135.531 114.877 135.708ZM113.055 130.616C112.672 130.754 112.374 130.986 112.159 131.312C111.942 131.63 111.873 132.024 111.95 132.493L114.97 131.405C114.801 131.014 114.54 130.749 114.186 130.61C113.832 130.47 113.455 130.472 113.055 130.616Z" fill="#BE046A"/>
<path d="M107.137 138.331L104.95 132.266L106.344 131.764L106.901 132.848C106.98 132.377 107.166 131.96 107.458 131.597C107.756 131.222 108.162 130.943 108.676 130.758L109.271 132.408L108.83 132.567C108.488 132.69 108.202 132.853 107.971 133.056C107.74 133.259 107.594 133.519 107.533 133.836C107.481 134.15 107.538 134.539 107.705 135.003L108.702 137.767L107.137 138.331Z" fill="#BE046A"/>
<path d="M100.439 140.745L97.3535 132.186L102.88 130.194L103.334 131.453L99.3725 132.881L100.236 135.278L103.44 134.123L103.885 135.358L100.682 136.513L102.004 140.181L100.439 140.745Z" fill="#BE046A"/>
<path d="M90.0497 144.489L87.8634 138.424L89.2451 137.926L89.7376 138.909C89.7958 138.483 89.9619 138.101 90.236 137.762C90.5183 137.421 90.8998 137.164 91.3808 136.991C92.1307 136.72 92.7987 136.747 93.3848 137.07C93.971 137.393 94.4286 138.011 94.7577 138.924L95.9919 142.348L94.4269 142.912L93.2456 139.635C93.0575 139.113 92.8076 138.752 92.4957 138.551C92.1839 138.35 91.8038 138.33 91.3555 138.492C90.9153 138.651 90.6084 138.936 90.4348 139.349C90.2693 139.758 90.2865 140.24 90.4863 140.795L91.6147 143.925L90.0497 144.489Z" fill="#BE046A"/>
<path d="M85.1085 138.353C84.8232 138.456 84.556 138.456 84.3068 138.352C84.0658 138.245 83.8982 138.062 83.8042 137.801C83.7102 137.54 83.7234 137.296 83.844 137.068C83.9697 136.829 84.1753 136.658 84.4606 136.556C84.7459 136.453 85.009 136.455 85.2501 136.561C85.4963 136.657 85.6664 136.835 85.7605 137.096C85.8545 137.357 85.8386 137.606 85.7129 137.845C85.5953 138.081 85.3938 138.25 85.1085 138.353ZM86.8517 145.642L84.6654 139.577L86.2304 139.013L88.4167 145.078L86.8517 145.642Z" fill="#BE046A"/>
<path d="M79.3621 148.342L80.4697 144.516L77.1758 142.276L78.8508 141.673L81.1672 143.27L81.9198 140.567L83.6071 139.958L82.4872 143.789L85.7933 146.024L84.106 146.632L81.8019 145.03L81.0371 147.738L79.3621 148.342Z" fill="#BE046A"/>
<path d="M75.8068 149.788C75.22 150 74.6416 150.056 74.0719 149.957C73.5103 149.856 73.0057 149.619 72.5582 149.246C72.1158 148.862 71.7815 148.356 71.5552 147.728C71.3289 147.1 71.2692 146.5 71.3759 145.928C71.4796 145.347 71.7153 144.838 72.083 144.402C72.4588 143.962 72.9401 143.637 73.527 143.425C74.1057 143.217 74.6759 143.163 75.2375 143.265C75.8072 143.363 76.3133 143.605 76.7556 143.989C77.2032 144.362 77.5401 144.862 77.7664 145.49C77.9927 146.117 78.0539 146.722 77.9502 147.302C77.8516 147.872 77.6144 148.377 77.2386 148.816C76.8628 149.256 76.3856 149.58 75.8068 149.788ZM75.3176 148.431C75.7251 148.284 76.0253 148.005 76.2182 147.595C76.4081 147.177 76.3944 146.666 76.1769 146.062C75.9595 145.459 75.6456 145.061 75.2353 144.868C74.822 144.667 74.4157 144.639 74.0163 144.782C73.6006 144.932 73.2977 145.216 73.1078 145.635C72.9231 146.042 72.9395 146.548 73.1569 147.151C73.3744 147.754 73.6856 148.158 74.0908 148.362C74.5011 148.555 74.91 148.578 75.3176 148.431Z" fill="#BE046A"/>
<path d="M68.7487 152.167L66.1172 144.866L63.6229 145.765L63.1689 144.506L69.7347 142.14L70.1887 143.399L67.6822 144.302L70.3137 151.603L68.7487 152.167Z" fill="#BE046A"/>
<path fill-rule="evenodd" clip-rule="evenodd" d="M1187.5 299.619C1185.92 305.176 1181.01 309.132 1175.25 309.495C1169.78 309.838 1165.89 314.949 1167.01 320.327C1168.19 325.984 1165.68 331.771 1160.75 334.774C1156.07 337.621 1155 343.965 1158.49 348.209C1162.16 352.673 1162.63 358.963 1159.66 363.917C1156.84 368.62 1158.84 374.742 1163.89 376.877C1169.21 379.126 1172.55 384.481 1172.22 390.249C1171.91 395.733 1176.52 400.223 1181.98 399.764C1187.74 399.28 1193.17 402.476 1195.56 407.739C1197.83 412.743 1203.99 414.573 1208.61 411.628C1213.48 408.522 1219.78 408.823 1224.33 412.377C1228.66 415.753 1234.96 414.51 1237.68 409.752C1240.55 404.735 1246.26 402.071 1251.94 403.101C1257.34 404.077 1262.34 400.048 1262.54 394.562C1262.74 388.787 1266.56 383.769 1272.07 382.036C1277.29 380.393 1279.85 374.495 1277.48 369.54C1274.98 364.328 1276.03 358.109 1280.1 354.011C1283.96 350.123 1283.48 343.703 1279.08 340.418C1274.45 336.962 1272.49 330.965 1274.19 325.444C1275.81 320.198 1272.4 314.732 1266.99 313.869C1261.28 312.96 1256.76 308.557 1255.7 302.877C1254.7 297.475 1249.15 294.221 1243.96 295.974C1238.49 297.823 1232.44 296.021 1228.87 291.482C1225.47 287.166 1219.05 286.864 1215.27 290.831C1211.29 295.014 1205.11 296.23 1199.83 293.87C1194.83 291.629 1189.01 294.344 1187.5 299.619ZM1200.78 291.754C1194.48 288.936 1187.16 292.35 1185.27 298.984C1183.96 303.597 1179.89 306.88 1175.1 307.181C1168.23 307.613 1163.33 314.044 1164.74 320.8C1165.72 325.498 1163.64 330.302 1159.55 332.793C1153.66 336.376 1152.31 344.351 1156.7 349.682C1159.75 353.389 1160.14 358.613 1157.67 362.725C1154.12 368.637 1156.64 376.329 1162.99 379.013C1167.41 380.88 1170.18 385.327 1169.9 390.117C1169.51 397.006 1175.31 402.652 1182.17 402.075C1186.95 401.673 1191.47 404.325 1193.45 408.696C1196.3 414.982 1204.05 417.289 1209.86 413.583C1213.9 411.005 1219.12 411.254 1222.91 414.205C1228.35 418.448 1236.27 416.888 1239.69 410.902C1242.07 406.738 1246.81 404.528 1251.53 405.382C1258.32 406.61 1264.61 401.54 1264.85 394.645C1265.03 389.85 1268.19 385.686 1272.77 384.248C1279.34 382.18 1282.55 374.762 1279.57 368.538C1277.49 364.209 1278.37 359.046 1281.74 355.645C1286.6 350.755 1286 342.687 1280.47 338.56C1276.63 335.69 1275 330.71 1276.41 326.125C1278.44 319.533 1274.16 312.664 1267.35 311.579C1262.62 310.825 1258.86 307.169 1257.98 302.451C1256.72 295.667 1249.74 291.571 1243.22 293.777C1238.68 295.312 1233.66 293.818 1230.69 290.047C1226.42 284.625 1218.35 284.24 1213.59 289.232C1210.29 292.703 1205.16 293.713 1200.78 291.754Z" fill="#A4D792"/>
<path d="M1188.86 304.526C1190.55 298.599 1197.09 295.547 1202.72 298.064C1206.63 299.813 1211.22 298.91 1214.17 295.808C1218.42 291.348 1225.64 291.69 1229.45 296.533C1232.1 299.902 1236.59 301.235 1240.65 299.864C1246.48 297.892 1252.71 301.55 1253.84 307.611C1254.63 311.826 1257.98 315.091 1262.21 315.764C1268.3 316.732 1272.12 322.868 1270.3 328.758C1269.04 332.854 1270.5 337.303 1273.93 339.867C1278.87 343.553 1279.41 350.761 1275.07 355.131C1272.05 358.169 1271.27 362.783 1273.12 366.649C1275.79 372.21 1272.91 378.838 1267.04 380.687C1262.95 381.972 1260.12 385.693 1259.96 389.977C1259.74 396.137 1254.12 400.668 1248.06 399.572C1243.84 398.81 1239.6 400.786 1237.48 404.505C1234.42 409.855 1227.33 411.25 1222.47 407.46C1219.09 404.824 1214.42 404.603 1210.81 406.906C1205.62 410.219 1198.69 408.159 1196.15 402.543C1194.38 398.639 1190.34 396.27 1186.07 396.63C1179.93 397.147 1174.76 392.103 1175.11 385.949C1175.35 381.669 1172.88 377.697 1168.93 376.03C1163.25 373.633 1161.01 366.761 1164.18 361.478C1166.38 357.804 1166.04 353.137 1163.31 349.826C1159.4 345.064 1160.6 337.939 1165.86 334.737C1169.52 332.51 1171.38 328.218 1170.5 324.021C1169.25 317.985 1173.62 312.238 1179.77 311.851C1184.04 311.581 1187.69 308.648 1188.86 304.526Z" fill="#FCF298"/>
<path d="M1235.76 377.747C1235.09 377.504 1234.56 377.145 1234.16 376.671C1233.75 376.197 1233.5 375.646 1233.39 375.02C1233.28 374.398 1233.36 373.753 1233.6 373.087C1233.84 372.42 1234.2 371.881 1234.68 371.469C1235.16 371.06 1235.72 370.804 1236.33 370.699C1236.94 370.595 1237.58 370.664 1238.25 370.907C1239.08 371.21 1239.7 371.685 1240.11 372.331C1240.53 372.968 1240.68 373.696 1240.56 374.517L1238.78 373.87C1238.81 373.523 1238.72 373.213 1238.52 372.942C1238.33 372.666 1238.07 372.463 1237.71 372.336C1237.25 372.167 1236.79 372.198 1236.34 372.431C1235.89 372.664 1235.55 373.091 1235.32 373.714C1235.09 374.337 1235.08 374.882 1235.28 375.351C1235.47 375.82 1235.8 376.139 1236.27 376.308C1236.62 376.436 1236.95 376.458 1237.27 376.375C1237.6 376.296 1237.87 376.11 1238.07 375.817L1239.85 376.463C1239.42 377.143 1238.84 377.602 1238.11 377.842C1237.38 378.081 1236.59 378.05 1235.76 377.747Z" fill="#BE046A"/>
<path d="M1232.77 367.942C1232.46 367.831 1232.24 367.646 1232.1 367.389C1231.98 367.134 1231.97 366.867 1232.07 366.586C1232.17 366.306 1232.35 366.113 1232.61 366.008C1232.87 365.897 1233.16 365.897 1233.47 366.009C1233.78 366.121 1233.99 366.304 1234.12 366.558C1234.26 366.807 1234.27 367.072 1234.17 367.352C1234.07 367.633 1233.88 367.828 1233.62 367.939C1233.36 368.053 1233.07 368.054 1232.77 367.942ZM1229.18 375.173L1231.56 368.649L1233.24 369.262L1230.86 375.786L1229.18 375.173Z" fill="#BE046A"/>
<path d="M1221.11 372.236L1223.49 365.713L1224.97 366.253L1224.7 367.406C1225.04 367.094 1225.45 366.892 1225.91 366.801C1226.37 366.714 1226.87 366.764 1227.38 366.953C1228.19 367.246 1228.73 367.729 1228.99 368.4C1229.25 369.071 1229.2 369.898 1228.84 370.88L1227.5 374.563L1225.82 373.95L1227.1 370.425C1227.31 369.864 1227.35 369.393 1227.23 369.012C1227.11 368.631 1226.81 368.352 1226.33 368.177C1225.85 368.005 1225.4 368.029 1224.98 368.251C1224.56 368.475 1224.24 368.886 1224.02 369.482L1222.8 372.849L1221.11 372.236Z" fill="#BE046A"/>
<path d="M1215.71 370.45C1215.15 370.246 1214.72 369.99 1214.43 369.684C1214.14 369.369 1213.96 369.031 1213.89 368.669C1213.82 368.307 1213.85 367.946 1213.98 367.586C1214.2 366.981 1214.62 366.576 1215.23 366.372C1215.84 366.167 1216.62 366.237 1217.57 366.582L1219.22 367.185L1219.28 367.027C1219.45 366.58 1219.44 366.205 1219.26 365.902C1219.08 365.599 1218.8 365.379 1218.43 365.241C1218.09 365.117 1217.76 365.092 1217.44 365.166C1217.13 365.231 1216.89 365.41 1216.71 365.704L1215.07 365.105C1215.28 364.648 1215.59 364.293 1215.99 364.041C1216.4 363.793 1216.85 363.656 1217.36 363.631C1217.87 363.598 1218.4 363.68 1218.94 363.878C1219.87 364.217 1220.52 364.715 1220.88 365.375C1221.25 366.034 1221.28 366.789 1220.97 367.64L1219.51 371.652L1218.07 371.13L1218.3 370.02C1217.98 370.301 1217.6 370.491 1217.17 370.591C1216.74 370.695 1216.26 370.648 1215.71 370.45ZM1216.57 369.273C1217.06 369.449 1217.49 369.427 1217.86 369.207C1218.25 368.99 1218.56 368.662 1218.8 368.223L1217.37 367.701C1216.92 367.538 1216.57 367.505 1216.32 367.601C1216.07 367.689 1215.9 367.851 1215.81 368.088C1215.72 368.342 1215.74 368.575 1215.89 368.785C1216.03 368.996 1216.26 369.158 1216.57 369.273Z" fill="#BE046A"/>
<path d="M1209.5 365.806C1209.19 365.691 1208.91 365.549 1208.66 365.38L1208 365.69C1208.12 365.823 1208.29 365.962 1208.53 366.107C1208.76 366.252 1209.16 366.455 1209.71 366.715C1210.55 367.11 1211.1 367.546 1211.38 368.023C1211.65 368.5 1211.68 369.032 1211.47 369.619C1211.33 370.005 1211.09 370.331 1210.75 370.596C1210.42 370.87 1209.99 371.033 1209.47 371.084C1208.96 371.143 1208.35 371.049 1207.67 370.8C1206.74 370.461 1206.06 370.013 1205.61 369.455C1205.17 368.905 1205.07 368.284 1205.32 367.592C1205.54 367.004 1206.01 366.599 1206.73 366.377C1206.59 366.234 1206.46 366.095 1206.36 365.96C1206.27 365.827 1206.2 365.695 1206.14 365.564L1206.25 365.261L1207.83 364.468C1207.48 363.835 1207.44 363.168 1207.69 362.467C1207.85 362.028 1208.1 361.668 1208.45 361.385C1208.8 361.105 1209.21 360.932 1209.68 360.865C1210.15 360.798 1210.67 360.867 1211.23 361.071C1211.59 361.205 1211.92 361.382 1212.2 361.602L1214.67 362.502L1214.29 363.528L1213.15 363.2C1213.2 363.597 1213.16 363.998 1213.01 364.401C1212.85 364.839 1212.6 365.2 1212.26 365.483C1211.92 365.766 1211.51 365.939 1211.03 366.003C1210.55 366.07 1210.05 366.004 1209.5 365.806ZM1209.97 364.517C1210.31 364.642 1210.63 364.652 1210.91 364.547C1211.21 364.446 1211.42 364.225 1211.54 363.883C1211.67 363.541 1211.65 363.236 1211.49 362.969C1211.34 362.705 1211.09 362.511 1210.75 362.386C1210.39 362.256 1210.07 362.242 1209.78 362.347C1209.49 362.451 1209.29 362.674 1209.16 363.016C1209.04 363.358 1209.05 363.661 1209.2 363.925C1209.36 364.189 1209.61 364.386 1209.97 364.517ZM1206.92 367.981C1206.81 368.305 1206.87 368.601 1207.11 368.867C1207.35 369.145 1207.7 369.364 1208.14 369.524C1208.56 369.677 1208.93 369.714 1209.26 369.634C1209.58 369.563 1209.8 369.383 1209.9 369.094C1209.99 368.857 1209.97 368.628 1209.85 368.406C1209.74 368.188 1209.44 367.968 1208.95 367.748C1208.6 367.591 1208.28 367.43 1207.99 367.266C1207.68 367.314 1207.44 367.4 1207.27 367.525C1207.1 367.654 1206.99 367.805 1206.92 367.981Z" fill="#BE046A"/>
<path d="M1200.97 364.905L1203.35 358.381L1204.85 358.927L1204.56 360.208C1204.95 359.873 1205.39 359.656 1205.88 359.558C1206.39 359.453 1206.92 359.502 1207.47 359.703L1206.82 361.479L1206.35 361.306C1205.98 361.172 1205.63 361.11 1205.3 361.118C1204.97 361.127 1204.67 361.241 1204.4 361.461C1204.14 361.684 1203.92 362.046 1203.74 362.546L1202.65 365.518L1200.97 364.905Z" fill="#BE046A"/>
<path d="M1194.86 362.861C1193.94 362.526 1193.21 362.031 1192.66 361.376C1192.13 360.723 1191.79 359.97 1191.65 359.116C1191.53 358.257 1191.64 357.358 1191.98 356.42C1192.32 355.481 1192.81 354.727 1193.46 354.157C1194.11 353.582 1194.86 353.217 1195.69 353.063C1196.53 352.912 1197.41 353.003 1198.33 353.339C1199.24 353.67 1199.97 354.164 1200.52 354.82C1201.06 355.475 1201.4 356.233 1201.52 357.092C1201.65 357.943 1201.54 358.837 1201.2 359.776C1200.86 360.714 1200.36 361.472 1199.72 362.051C1199.07 362.621 1198.33 362.981 1197.49 363.132C1196.65 363.284 1195.78 363.193 1194.86 362.861ZM1195.41 361.349C1196.29 361.668 1197.09 361.632 1197.82 361.242C1198.56 360.855 1199.11 360.157 1199.48 359.148C1199.84 358.14 1199.87 357.251 1199.55 356.48C1199.25 355.713 1198.66 355.17 1197.78 354.851C1196.9 354.532 1196.1 354.566 1195.36 354.953C1194.62 355.341 1194.07 356.038 1193.7 357.047C1193.34 358.055 1193.31 358.945 1193.63 359.715C1193.94 360.485 1194.54 361.03 1195.41 361.349Z" fill="#BE046A"/>
<path d="M1251.9 355.102C1252.85 355.447 1253.56 355.956 1254.03 356.629C1254.51 357.286 1254.79 357.997 1254.87 358.76C1254.95 359.524 1254.85 360.285 1254.58 361.044C1254.31 361.787 1253.89 362.426 1253.34 362.959C1252.79 363.492 1252.12 363.865 1251.32 364.078C1250.53 364.274 1249.67 364.2 1248.72 363.855C1247.8 363.521 1247.11 363.028 1246.65 362.377C1246.19 361.71 1245.93 360.994 1245.85 360.231C1245.78 359.473 1245.88 358.722 1246.15 357.979C1246.43 357.22 1246.84 356.571 1247.37 356.032C1247.93 355.499 1248.59 355.131 1249.36 354.928C1250.14 354.71 1250.99 354.768 1251.9 355.102ZM1251.2 361.375C1251.35 361.161 1251.47 360.925 1251.54 360.666C1251.64 360.397 1251.7 360.132 1251.72 359.872C1251.75 359.559 1251.75 359.245 1251.72 358.93C1251.7 358.599 1251.62 358.286 1251.5 357.989C1251.42 357.801 1251.31 357.617 1251.16 357.437C1251.02 357.241 1250.84 357.122 1250.62 357.079C1250.57 357.062 1250.49 357.052 1250.39 357.049C1250.2 357.07 1250.03 357.135 1249.89 357.243C1249.76 357.356 1249.65 357.486 1249.56 357.633C1249.41 357.847 1249.28 358.089 1249.19 358.357C1249.11 358.616 1249.06 358.876 1249.04 359.136C1249.01 359.449 1249.01 359.771 1249.04 360.102C1249.06 360.417 1249.14 360.723 1249.27 361.019C1249.34 361.207 1249.45 361.399 1249.59 361.595C1249.74 361.775 1249.93 361.886 1250.14 361.929C1250.19 361.947 1250.27 361.957 1250.37 361.96C1250.56 361.938 1250.72 361.87 1250.85 361.757C1251 361.649 1251.12 361.522 1251.2 361.375ZM1243.54 342.279C1244.49 342.625 1245.2 343.134 1245.67 343.807C1246.15 344.464 1246.43 345.175 1246.51 345.938C1246.59 346.702 1246.49 347.463 1246.21 348.222C1245.94 348.965 1245.53 349.604 1244.98 350.137C1244.43 350.67 1243.75 351.043 1242.96 351.256C1242.17 351.452 1241.3 351.378 1240.35 351.033C1239.44 350.699 1238.75 350.206 1238.29 349.555C1237.83 348.887 1237.56 348.172 1237.48 347.409C1237.42 346.651 1237.52 345.9 1237.79 345.157C1238.07 344.398 1238.48 343.749 1239.01 343.21C1239.56 342.677 1240.23 342.309 1241 342.106C1241.78 341.888 1242.62 341.946 1243.54 342.279ZM1240.88 348.188C1240.95 348.377 1241.06 348.569 1241.21 348.764C1241.36 348.944 1241.54 349.055 1241.76 349.099C1241.8 349.116 1241.88 349.126 1241.99 349.129C1242.18 349.107 1242.33 349.04 1242.46 348.926C1242.61 348.818 1242.73 348.691 1242.82 348.545C1242.97 348.33 1243.08 348.094 1243.16 347.835C1243.26 347.566 1243.32 347.302 1243.34 347.041C1243.36 346.728 1243.36 346.414 1243.33 346.099C1243.31 345.768 1243.24 345.455 1243.11 345.159C1243.04 344.97 1242.92 344.786 1242.77 344.606C1242.63 344.411 1242.45 344.291 1242.23 344.248C1242.19 344.231 1242.11 344.221 1242 344.218C1241.82 344.239 1241.65 344.304 1241.5 344.412C1241.37 344.525 1241.26 344.656 1241.17 344.802C1241.02 345.016 1240.9 345.258 1240.8 345.527C1240.72 345.786 1240.67 346.045 1240.65 346.305C1240.63 346.619 1240.63 346.941 1240.65 347.271C1240.68 347.586 1240.75 347.892 1240.88 348.188ZM1255.46 347.181C1255.48 347.277 1255.45 347.356 1255.37 347.418L1240.17 360.179C1240.09 360.241 1240.01 360.255 1239.91 360.22L1237.45 359.322C1237.35 359.288 1237.29 359.222 1237.27 359.126C1237.26 359.03 1237.29 358.951 1237.36 358.889L1252.56 346.128C1252.64 346.066 1252.73 346.052 1252.82 346.087L1255.29 346.985C1255.38 347.019 1255.44 347.085 1255.46 347.181Z" fill="#BE046A"/>
<path d="M1229.4 336.945C1230.81 337.458 1231.95 338.159 1232.83 339.051C1233.72 339.933 1234.37 340.911 1234.77 341.987C1235.19 343.052 1235.38 344.17 1235.35 345.341C1235.33 346.517 1235.12 347.65 1234.73 348.742C1234.33 349.817 1233.77 350.81 1233.02 351.722C1232.3 352.639 1231.43 353.379 1230.42 353.942C1229.43 354.495 1228.31 354.832 1227.07 354.953C1225.83 355.057 1224.51 354.853 1223.1 354.341C1221.72 353.84 1220.61 353.158 1219.76 352.294C1218.92 351.413 1218.29 350.443 1217.89 349.384C1217.51 348.314 1217.34 347.194 1217.37 346.023C1217.42 344.859 1217.64 343.739 1218.03 342.664C1218.42 341.572 1218.98 340.565 1219.69 339.643C1220.42 338.725 1221.27 337.987 1222.24 337.428C1223.24 336.859 1224.34 336.517 1225.54 336.401C1226.76 336.269 1228.05 336.453 1229.43 336.954L1229.4 336.945ZM1223.05 349.756C1223.28 350.305 1223.59 350.841 1223.99 351.363C1224.41 351.891 1224.93 352.233 1225.55 352.388C1225.81 352.464 1226.08 352.482 1226.37 352.442C1226.89 352.382 1227.35 352.192 1227.76 351.873C1228.17 351.538 1228.52 351.165 1228.81 350.752C1229.23 350.151 1229.55 349.508 1229.78 348.822C1230.02 348.121 1230.18 347.409 1230.26 346.687C1230.37 345.849 1230.38 344.992 1230.28 344.116C1230.2 343.225 1229.99 342.378 1229.65 341.576C1229.42 341.026 1229.1 340.488 1228.68 339.96C1228.28 339.438 1227.77 339.099 1227.14 338.944C1226.89 338.868 1226.61 338.849 1226.33 338.89C1225.81 338.95 1225.34 339.147 1224.93 339.482C1224.53 339.801 1224.18 340.167 1223.89 340.58C1223.47 341.181 1223.15 341.832 1222.91 342.533C1222.68 343.219 1222.52 343.923 1222.44 344.645C1222.33 345.483 1222.32 346.348 1222.41 347.239C1222.5 348.115 1222.71 348.954 1223.05 349.756Z" fill="#BE046A"/>
<path d="M1211.17 330.31C1212.58 330.823 1213.72 331.525 1214.6 332.416C1215.49 333.298 1216.14 334.277 1216.54 335.352C1216.95 336.418 1217.15 337.536 1217.11 338.706C1217.1 339.882 1216.89 341.016 1216.49 342.107C1216.1 343.182 1215.54 344.176 1214.79 345.087C1214.06 346.004 1213.2 346.744 1212.18 347.307C1211.19 347.861 1210.08 348.198 1208.83 348.318C1207.6 348.423 1206.27 348.219 1204.87 347.706C1203.49 347.206 1202.38 346.523 1201.53 345.659C1200.68 344.779 1200.06 343.809 1199.66 342.749C1199.28 341.679 1199.1 340.559 1199.14 339.389C1199.18 338.224 1199.4 337.104 1199.8 336.029C1200.19 334.938 1200.75 333.931 1201.46 333.008C1202.19 332.091 1203.04 331.353 1204.01 330.794C1205.01 330.225 1206.11 329.882 1207.31 329.766C1208.53 329.634 1209.82 329.818 1211.19 330.319L1211.17 330.31ZM1204.82 343.121C1205.05 343.671 1205.36 344.206 1205.76 344.728C1206.18 345.256 1206.7 345.598 1207.32 345.753C1207.58 345.829 1207.85 345.848 1208.14 345.807C1208.66 345.747 1209.12 345.557 1209.53 345.238C1209.93 344.904 1210.28 344.53 1210.58 344.117C1210.99 343.516 1211.32 342.873 1211.55 342.187C1211.79 341.486 1211.95 340.774 1212.03 340.052C1212.14 339.214 1212.15 338.357 1212.05 337.482C1211.97 336.59 1211.75 335.743 1211.42 334.941C1211.19 334.392 1210.87 333.853 1210.45 333.325C1210.05 332.803 1209.54 332.465 1208.91 332.309C1208.65 332.233 1208.38 332.215 1208.1 332.255C1207.58 332.315 1207.11 332.513 1206.7 332.848C1206.3 333.167 1205.95 333.532 1205.66 333.945C1205.24 334.546 1204.92 335.197 1204.68 335.899C1204.45 336.584 1204.29 337.288 1204.21 338.01C1204.1 338.848 1204.09 339.713 1204.17 340.604C1204.27 341.48 1204.48 342.319 1204.82 343.121Z" fill="#BE046A"/>
<path d="M1195.34 341.66L1195.38 343.554C1195.38 343.644 1195.35 343.713 1195.28 343.759C1195.2 343.82 1195.11 343.834 1195.02 343.8L1189.75 341.883C1189.66 341.848 1189.6 341.783 1189.58 341.687C1189.56 341.606 1189.58 341.532 1189.64 341.464L1190.88 340.037L1194.86 329.102L1193.32 328.541C1193.21 328.5 1193.15 328.424 1193.13 328.312C1193.12 328.2 1193.17 328.119 1193.28 328.068L1197.51 326.036C1197.57 326.006 1197.64 326.002 1197.7 326.025L1200.36 326.912C1200.44 326.941 1200.49 326.988 1200.52 327.052C1200.55 327.117 1200.56 327.181 1200.53 327.244L1195.29 341.643L1195.34 341.66Z" fill="#BE046A"/>
<path fill-rule="evenodd" clip-rule="evenodd" d="M1024.2 68.3735C1026.82 72.4795 1026.39 77.8756 1023.11 81.846C1020.01 85.6104 1020.94 90.9826 1025.09 93.2216C1029.47 95.5769 1031.68 100.413 1030.61 105.299C1029.6 109.932 1033.05 114.142 1037.91 114.205C1043.03 114.272 1047.38 117.442 1048.77 122.122C1050.09 126.566 1055.26 128.643 1059.72 126.517C1064.41 124.28 1069.9 125.059 1073.43 128.462C1076.78 131.697 1082.49 131.163 1085.51 127.338C1088.71 123.307 1094.08 121.517 1098.93 122.865C1103.55 124.147 1108.48 121.128 1109.39 116.481C1110.35 111.58 1114.38 107.628 1119.45 106.612C1124.26 105.648 1127.3 100.839 1125.88 96.4317C1124.39 91.785 1126.14 86.5766 1130.27 83.4279C1134.18 80.4411 1134.63 74.9426 1131.21 71.782C1127.6 68.4549 1126.68 63.1854 1128.92 58.6243C1131.04 54.3004 1128.79 49.3661 1124.14 48.1801C1119.26 46.9327 1115.88 42.8104 1115.71 37.8837C1115.55 33.2097 1111.11 29.9719 1106.31 31.0341C1101.26 32.1515 1096.19 30.1182 1093.66 25.9557C1091.26 22.001 1085.65 21.2068 1081.8 24.2714C1077.74 27.4993 1072.14 28.0192 1067.83 25.573C1063.73 23.2467 1058.25 25.0776 1056.22 29.4395C1054.08 34.0397 1049.24 36.9959 1044.13 36.8247C1039.27 36.6619 1035.17 40.6929 1035.43 45.355C1035.71 50.2722 1032.73 54.9894 1027.99 57.1337C1023.5 59.1691 1021.71 64.4758 1024.2 68.3735ZM1027.2 55.3445C1021.55 57.9042 1019.3 64.5796 1022.43 69.481C1024.61 72.8895 1024.25 77.3675 1021.53 80.662C1017.62 85.3994 1018.8 92.1546 1024.02 94.9675C1027.65 96.9237 1029.48 100.939 1028.6 104.993C1027.33 110.823 1031.66 116.11 1037.77 116.19C1042.02 116.246 1045.63 118.879 1046.79 122.764C1048.45 128.35 1054.95 130.959 1060.55 128.288C1064.44 126.43 1069 127.077 1071.93 129.903C1076.14 133.967 1083.32 133.299 1087.12 128.488C1089.77 125.143 1094.24 123.656 1098.27 124.775C1104.06 126.385 1110.27 122.594 1111.41 116.746C1112.21 112.679 1115.55 109.399 1119.76 108.556C1125.81 107.343 1129.63 101.296 1127.85 95.7507C1126.61 91.8943 1128.07 87.5723 1131.49 84.9591C1136.42 81.2014 1136.97 74.2851 1132.67 70.3125C1129.68 67.5499 1128.92 63.1762 1130.77 59.3919C1133.44 53.9502 1130.6 47.7486 1124.77 46.2589C1120.71 45.2229 1117.91 41.7994 1117.77 37.711C1117.56 31.8319 1111.99 27.7658 1105.96 29.1001C1101.76 30.0281 1097.55 28.3392 1095.45 24.8832C1092.43 19.9136 1085.39 18.9144 1080.54 22.7672C1077.17 25.4466 1072.53 25.8791 1068.94 23.8473C1063.79 20.9256 1056.9 23.2222 1054.35 28.7109C1052.58 32.5278 1048.56 34.9827 1044.31 34.8405C1038.21 34.6361 1033.05 39.7024 1033.38 45.5695C1033.61 49.6496 1031.13 53.5645 1027.2 55.3445Z" fill="#A4D792"/>
<path d="M1028.19 70.1985C1025.39 65.8181 1027.41 59.8516 1032.46 57.5632C1035.97 55.9718 1038.18 52.4726 1037.98 48.8259C1037.68 43.5822 1042.3 39.0535 1047.75 39.2355C1051.54 39.3621 1055.13 37.1675 1056.71 33.7558C1058.99 28.85 1065.15 26.7965 1069.75 29.4073C1072.95 31.2228 1077.1 30.8357 1080.11 28.4406C1084.45 24.9965 1090.73 25.8887 1093.43 30.3301C1095.31 33.4187 1099.07 34.9277 1102.82 34.0978C1108.21 32.9045 1113.19 36.538 1113.37 41.7925C1113.49 45.4466 1116 48.506 1119.62 49.4315C1124.84 50.7623 1127.37 56.3048 1124.98 61.1687C1123.33 64.5512 1124 68.4602 1126.68 70.929C1130.52 74.479 1130.02 80.6607 1125.62 84.0197C1122.56 86.3557 1121.26 90.2188 1122.37 93.6653C1123.96 98.6214 1120.55 104.026 1115.14 105.111C1111.38 105.865 1108.39 108.797 1107.68 112.432C1106.66 117.659 1101.11 121.048 1095.93 119.61C1092.33 118.61 1088.35 119.939 1085.98 122.93C1082.58 127.23 1076.17 127.828 1072.41 124.196C1069.79 121.671 1065.72 121.093 1062.24 122.754C1057.23 125.142 1051.43 122.811 1049.95 117.818C1048.92 114.346 1045.69 111.993 1041.89 111.944C1036.43 111.873 1032.56 107.148 1033.7 101.937C1034.49 98.3137 1032.85 94.7252 1029.61 92.9773C1024.94 90.4638 1023.89 84.4263 1027.39 80.1918C1029.82 77.247 1030.14 73.2447 1028.19 70.1985Z" fill="#FCF298"/>
<path d="M1121.27 65.3717C1120.66 65.6803 1120.11 65.7811 1119.6 65.674C1119.08 65.567 1118.63 65.1395 1118.25 64.3916L1116.97 61.8934L1115.99 62.3979L1115.35 61.1603L1116.33 60.6558L1115.72 59.0286L1117.02 58.3579L1117.81 59.8962L1119.36 59.1009L1119.99 60.3384L1118.45 61.1337L1119.74 63.6435C1119.88 63.9211 1120.03 64.0842 1120.21 64.1327C1120.38 64.1697 1120.61 64.113 1120.91 63.9626L1121.62 63.5946L1122.27 64.8553L1121.27 65.3717Z" fill="#BE046A"/>
<path d="M1111.68 70.2944L1108.74 64.5577L1110.04 63.8871L1110.66 64.7993C1110.66 64.369 1110.77 63.9686 1111 63.5979C1111.24 63.2234 1111.58 62.9194 1112.04 62.6859C1112.75 62.3219 1113.41 62.2626 1114.03 62.508C1114.66 62.7535 1115.19 63.308 1115.63 64.1715L1117.3 67.41L1115.82 68.1696L1114.23 65.07C1113.97 64.5765 1113.68 64.2502 1113.34 64.0909C1113.01 63.9316 1112.63 63.9608 1112.21 64.1784C1111.79 64.392 1111.52 64.7146 1111.4 65.1461C1111.29 65.5736 1111.37 66.0495 1111.64 66.5738L1113.16 69.5347L1111.68 70.2944Z" fill="#BE046A"/>
<path d="M1107.63 72.5495C1107.05 72.8462 1106.48 72.986 1105.9 72.9687C1105.33 72.9515 1104.8 72.7845 1104.32 72.4679C1103.83 72.1512 1103.44 71.6999 1103.14 71.1139C1102.84 70.5202 1102.69 69.9287 1102.7 69.3395C1102.71 68.7463 1102.88 68.2097 1103.18 67.7297C1103.5 67.2381 1103.95 66.8379 1104.55 66.5293C1105.12 66.2405 1105.68 66.1087 1106.23 66.1338C1106.79 66.159 1107.3 66.3261 1107.76 66.6353C1108.23 66.9327 1108.59 67.3436 1108.86 67.8679C1108.91 67.9528 1108.95 68.0434 1108.99 68.1399C1109.04 68.2324 1109.08 68.3308 1109.13 68.435L1104.77 70.6724C1105.03 71.1038 1105.36 71.3755 1105.77 71.4875C1106.19 71.5956 1106.6 71.5467 1107 71.341C1107.3 71.1867 1107.51 70.9926 1107.65 70.7586C1107.78 70.513 1107.85 70.2565 1107.84 69.9892L1109.34 69.2176C1109.42 69.6354 1109.4 70.06 1109.31 70.4912C1109.21 70.9108 1109.02 71.3004 1108.74 71.66C1108.46 72.0156 1108.09 72.3121 1107.63 72.5495ZM1105.17 67.7322C1104.81 67.9181 1104.54 68.1864 1104.37 68.537C1104.2 68.88 1104.18 69.2794 1104.32 69.7353L1107.17 68.2694C1106.95 67.9034 1106.66 67.6739 1106.29 67.5809C1105.92 67.4879 1105.55 67.5383 1105.17 67.7322Z" fill="#BE046A"/>
<path d="M1093.95 79.3998L1091.01 73.6632L1092.31 72.9925L1092.84 73.7022C1092.88 73.3296 1093.01 72.9853 1093.23 72.669C1093.45 72.3411 1093.76 72.0743 1094.16 71.8686C1095.05 71.4135 1095.85 71.4342 1096.57 71.9305C1096.62 71.5075 1096.77 71.1145 1097.02 70.7514C1097.28 70.3844 1097.62 70.094 1098.03 69.8803C1098.78 69.4965 1099.47 69.4254 1100.1 69.6668C1100.73 69.9083 1101.27 70.4608 1101.71 71.3244L1103.37 74.5628L1101.89 75.3225L1100.3 72.2229C1100.05 71.7294 1099.76 71.401 1099.43 71.2378C1099.11 71.0706 1098.75 71.0879 1098.36 71.2897C1097.96 71.4954 1097.71 71.8081 1097.62 72.2277C1097.53 72.6434 1097.62 73.1134 1097.89 73.6377L1099.41 76.5985L1097.93 77.3582L1096.34 74.2586C1096.08 73.7651 1095.79 73.4367 1095.47 73.2735C1095.14 73.1103 1094.78 73.1315 1094.38 73.3373C1093.98 73.539 1093.74 73.8497 1093.64 74.2694C1093.55 74.685 1093.64 75.155 1093.91 75.6793L1095.43 78.6402L1093.95 79.3998Z" fill="#BE046A"/>
<path d="M1089.37 81.7524L1086.43 76.0157L1087.74 75.3392L1088.44 76.3436C1088.45 75.8666 1088.58 75.4292 1088.83 75.0313C1089.08 74.6217 1089.44 74.2923 1089.93 74.043L1090.73 75.6044L1090.31 75.8181C1089.99 75.9843 1089.73 76.1828 1089.52 76.4136C1089.32 76.6444 1089.21 76.9207 1089.19 77.2426C1089.18 77.5606 1089.28 77.9393 1089.51 78.3788L1090.85 80.9927L1089.37 81.7524Z" fill="#BE046A"/>
<path d="M1085.32 84.0084C1084.75 84.3052 1084.17 84.4449 1083.6 84.4277C1083.02 84.4104 1082.49 84.2435 1082.01 83.9269C1081.53 83.6102 1081.13 83.1589 1080.83 82.5729C1080.53 81.9792 1080.38 81.3877 1080.39 80.7985C1080.41 80.2053 1080.57 79.6687 1080.88 79.1887C1081.19 78.6971 1081.65 78.2969 1082.25 77.9883C1082.81 77.6995 1083.37 77.5676 1083.93 77.5928C1084.49 77.618 1084.99 77.7851 1085.46 78.0942C1085.92 78.3917 1086.29 78.8026 1086.56 79.3269C1086.6 79.4117 1086.64 79.5024 1086.68 79.5989C1086.73 79.6914 1086.77 79.7898 1086.82 79.8939L1082.46 82.1314C1082.72 82.5628 1083.06 82.8345 1083.46 82.9465C1083.88 83.0546 1084.29 83.0057 1084.69 82.8C1084.99 82.6457 1085.21 82.4515 1085.34 82.2176C1085.48 81.972 1085.54 81.7155 1085.53 81.4482L1087.03 80.6766C1087.11 81.0944 1087.1 81.5189 1087 81.9502C1086.9 82.3698 1086.71 82.7594 1086.43 83.119C1086.15 83.4746 1085.79 83.771 1085.32 84.0084ZM1082.86 79.1911C1082.5 79.3771 1082.24 79.6454 1082.07 79.996C1081.89 80.3389 1081.87 80.7384 1082.01 81.1943L1084.86 79.7284C1084.65 79.3624 1084.35 79.1329 1083.98 79.0399C1083.62 78.9469 1083.24 78.9973 1082.86 79.1911Z" fill="#BE046A"/>
<path d="M1074.53 89.378L1069.91 84.502L1071.37 83.7482L1074.49 87.3668L1073.52 82.6443L1075.16 81.8015L1078.44 85.337L1077.32 80.6917L1078.79 79.938L1080.05 86.5411L1078.51 87.3304L1075.09 83.6686L1076.06 88.5887L1074.53 89.378Z" fill="#BE046A"/>
<path d="M1069.42 92.1747C1068.87 92.4596 1068.3 92.5895 1067.73 92.5646C1067.16 92.5357 1066.63 92.3648 1066.13 92.0522C1065.65 91.7278 1065.25 91.2688 1064.94 90.6751C1064.64 90.0814 1064.5 89.4936 1064.54 88.9119C1064.56 88.3225 1064.73 87.7877 1065.04 87.3078C1065.36 86.8238 1065.79 86.4394 1066.35 86.1545C1066.89 85.8736 1067.45 85.7476 1068.02 85.7765C1068.6 85.8015 1069.13 85.9762 1069.62 86.3005C1070.11 86.6132 1070.51 87.0664 1070.81 87.6601C1071.12 88.2538 1071.26 88.8454 1071.23 89.4348C1071.2 90.0126 1071.03 90.5435 1070.72 91.0274C1070.4 91.5113 1069.97 91.8938 1069.42 92.1747ZM1068.76 90.8909C1069.15 90.6931 1069.41 90.3783 1069.55 89.9466C1069.68 89.5072 1069.61 89.0022 1069.31 88.4317C1069.02 87.8611 1068.66 87.5063 1068.23 87.3674C1067.79 87.2208 1067.38 87.2445 1067.01 87.4384C1066.61 87.6401 1066.35 87.9607 1066.22 88.4001C1066.08 88.8279 1066.17 89.327 1066.46 89.8976C1066.75 90.4682 1067.11 90.8287 1067.54 90.9793C1067.97 91.1182 1068.38 91.0887 1068.76 90.8909Z" fill="#BE046A"/>
<path d="M1060.37 99.8652L1056.12 91.5841L1057.44 90.9075L1058.02 91.6456C1058.07 91.2962 1058.2 90.9479 1058.4 90.6009C1058.61 90.2498 1058.96 89.9497 1059.44 89.7004C1059.98 89.4235 1060.53 89.3073 1061.09 89.3518C1061.65 89.3963 1062.17 89.5828 1062.65 89.9111C1063.13 90.2394 1063.52 90.6927 1063.81 91.271C1064.11 91.8493 1064.25 92.4292 1064.24 93.0107C1064.22 93.5845 1064.07 94.1113 1063.78 94.5911C1063.49 95.0632 1063.07 95.4377 1062.53 95.7146C1062.1 95.9362 1061.68 96.0491 1061.28 96.0534C1060.87 96.0576 1060.49 95.9647 1060.14 95.7746L1061.85 99.1055L1060.37 99.8652ZM1061.56 94.5795C1062.03 94.3382 1062.33 93.9803 1062.48 93.5059C1062.63 93.0315 1062.57 92.5437 1062.31 92.0425C1062.05 91.5413 1061.69 91.2079 1061.21 91.0424C1060.74 90.8768 1060.27 90.9147 1059.8 91.156C1059.32 91.4014 1059.01 91.7651 1058.87 92.2472C1058.73 92.7176 1058.79 93.2034 1059.05 93.7046C1059.31 94.2058 1059.67 94.5412 1060.13 94.7107C1060.6 94.8685 1061.08 94.8248 1061.56 94.5795Z" fill="#BE046A"/>
<path d="M1048.24 102.878L1045.3 97.1417L1046.6 96.4711L1047.13 97.1807C1047.17 96.8082 1047.3 96.4638 1047.52 96.1475C1047.74 95.8196 1048.05 95.5528 1048.45 95.3471C1049.34 94.8921 1050.14 94.9127 1050.86 95.409C1050.91 94.9861 1051.06 94.593 1051.31 94.2299C1051.57 93.8629 1051.91 93.5725 1052.32 93.3589C1053.07 92.9751 1053.76 92.9039 1054.39 93.1454C1055.02 93.3868 1055.55 93.9393 1056 94.8029L1057.66 98.0413L1056.18 98.801L1054.59 95.7014C1054.34 95.2079 1054.05 94.8796 1053.72 94.7163C1053.4 94.5491 1053.04 94.5664 1052.65 94.7682C1052.25 94.9739 1052 95.2866 1051.91 95.7062C1051.82 96.1219 1051.91 96.5919 1052.18 97.1162L1053.7 100.077L1052.22 100.837L1050.63 97.7371C1050.37 97.2436 1050.08 96.9153 1049.76 96.752C1049.43 96.5888 1049.06 96.61 1048.66 96.8158C1048.27 97.0176 1048.03 97.3283 1047.93 97.7479C1047.84 98.1635 1047.93 98.6335 1048.2 99.1578L1049.72 102.119L1048.24 102.878Z" fill="#BE046A"/>
<path d="M1041.6 106.292L1037.44 98.1963L1042.72 95.484L1043.33 96.6753L1039.53 98.6279L1040.67 100.849L1044.13 99.074L1044.72 100.231L1041.27 102.005L1042.47 104.341L1046.27 102.389L1046.88 103.58L1041.6 106.292Z" fill="#BE046A"/>
<path d="M1102.96 58.8735L1102.79 55.2649L1102.44 55.4429L1097.46 51.2334L1099.07 50.4084L1102.75 53.6199L1102.35 48.7229L1103.92 47.9157L1104.54 58.0664L1102.96 58.8735Z" fill="#BE046A"/>
<path d="M1098.63 57.8834C1098.03 58.192 1097.47 58.2928 1096.96 58.1857C1096.45 58.0787 1096 57.6512 1095.62 56.9033L1094.33 54.4051L1093.35 54.9096L1092.72 53.672L1093.7 53.1676L1093.08 51.5403L1094.39 50.8696L1095.18 52.4079L1096.73 51.6126L1097.36 52.8501L1095.81 53.6454L1097.1 56.1552C1097.24 56.4328 1097.4 56.5959 1097.57 56.6445C1097.75 56.6814 1097.98 56.6247 1098.27 56.4743L1098.99 56.1064L1099.64 57.367L1098.63 57.8834Z" fill="#BE046A"/>
<path d="M1090.39 53.74C1090.12 53.8785 1089.86 53.9123 1089.6 53.8414C1089.34 53.7665 1089.15 53.6057 1089.03 53.359C1088.9 53.1122 1088.88 52.8682 1088.97 52.627C1089.07 52.374 1089.25 52.1783 1089.52 52.0399C1089.79 51.9014 1090.05 51.8696 1090.3 51.9444C1090.56 52.0076 1090.75 52.1626 1090.88 52.4094C1091 52.6561 1091.02 52.9059 1090.93 53.1588C1090.84 53.4078 1090.66 53.6015 1090.39 53.74ZM1093.06 60.7471L1090.11 55.0104L1091.59 54.2508L1094.53 59.9874L1093.06 60.7471Z" fill="#BE046A"/>
<path d="M1085.97 64.3881L1083.02 58.6515L1084.33 57.9808L1084.94 58.893C1084.94 58.4627 1085.06 58.0623 1085.29 57.6917C1085.52 57.3171 1085.87 57.0131 1086.32 56.7797C1087.03 56.4157 1087.7 56.3564 1088.32 56.6018C1088.94 56.8472 1089.48 57.4017 1089.92 58.2653L1091.58 61.5037L1090.1 62.2634L1088.51 59.1638C1088.26 58.6703 1087.96 58.3439 1087.63 58.1846C1087.29 58.0253 1086.92 58.0545 1086.49 58.2721C1086.08 58.4858 1085.81 58.8084 1085.69 59.2398C1085.58 59.6674 1085.66 60.1433 1085.93 60.6676L1087.45 63.6284L1085.97 64.3881Z" fill="#BE046A"/>
<path d="M1081.16 67.0336C1080.44 67.4016 1079.77 67.4628 1079.15 67.2174C1078.54 66.968 1078.01 66.4116 1077.56 65.548L1075.9 62.3096L1077.37 61.5558L1078.96 64.6555C1079.21 65.1489 1079.51 65.4753 1079.84 65.6346C1080.18 65.7939 1080.56 65.7627 1080.99 65.5412C1081.4 65.3315 1081.66 65.0128 1081.77 64.5853C1081.89 64.1538 1081.81 63.6759 1081.54 63.1516L1080.02 60.1908L1081.5 59.4311L1084.45 65.1677L1083.14 65.8384L1082.53 64.9262C1082.53 65.3565 1082.41 65.7589 1082.17 66.1335C1081.94 66.5041 1081.61 66.8041 1081.16 67.0336Z" fill="#BE046A"/>
<path d="M1068.12 73.5571L1065.17 67.8204L1066.48 67.1498L1067 67.8594C1067.04 67.4869 1067.17 67.1425 1067.39 66.8262C1067.61 66.4983 1067.92 66.2315 1068.32 66.0258C1069.21 65.5708 1070.01 65.5914 1070.74 66.0877C1070.78 65.6648 1070.93 65.2717 1071.18 64.9086C1071.44 64.5416 1071.78 64.2512 1072.19 64.0376C1072.94 63.6538 1073.63 63.5826 1074.26 63.8241C1074.89 64.0655 1075.43 64.6181 1075.87 65.4816L1077.53 68.7201L1076.05 69.4797L1074.46 66.3801C1074.21 65.8866 1073.92 65.5583 1073.59 65.395C1073.27 65.2278 1072.92 65.2451 1072.52 65.4469C1072.12 65.6527 1071.87 65.9653 1071.78 66.385C1071.69 66.8006 1071.78 67.2706 1072.05 67.7949L1073.57 70.7558L1072.09 71.5154L1070.5 68.4158C1070.25 67.9223 1069.96 67.594 1069.63 67.4307C1069.3 67.2675 1068.94 67.2887 1068.54 67.4945C1068.14 67.6963 1067.9 68.007 1067.8 68.4266C1067.72 68.8422 1067.81 69.3122 1068.08 69.8365L1069.6 72.7974L1068.12 73.5571Z" fill="#BE046A"/>
<path d="M1057.3 79.1157L1054.35 73.379L1055.66 72.7084L1056.18 73.418C1056.22 73.0455 1056.35 72.7011 1056.57 72.3848C1056.79 72.0569 1057.1 71.7901 1057.5 71.5844C1058.39 71.1294 1059.19 71.15 1059.91 71.6463C1059.96 71.2234 1060.11 70.8303 1060.36 70.4672C1060.62 70.1002 1060.96 69.8098 1061.37 69.5962C1062.12 69.2124 1062.81 69.1412 1063.44 69.3827C1064.07 69.6241 1064.61 70.1766 1065.05 71.0402L1066.71 74.2786L1065.23 75.0383L1063.64 71.9387C1063.39 71.4452 1063.1 71.1169 1062.77 70.9536C1062.45 70.7864 1062.1 70.8037 1061.7 71.0055C1061.3 71.2113 1061.05 71.5239 1060.96 71.9435C1060.87 72.3592 1060.96 72.8292 1061.23 73.3535L1062.75 76.3143L1061.27 77.074L1059.68 73.9744C1059.43 73.4809 1059.13 73.1526 1058.81 72.9893C1058.48 72.8261 1058.12 72.8473 1057.72 73.0531C1057.32 73.2549 1057.08 73.5656 1056.98 73.9852C1056.89 74.4008 1056.98 74.8708 1057.25 75.3951L1058.77 78.356L1057.3 79.1157Z" fill="#BE046A"/>
<path d="M1053.11 81.4413C1052.55 81.7262 1051.99 81.8561 1051.41 81.8312C1050.84 81.8023 1050.31 81.6315 1049.82 81.3188C1049.33 80.9944 1048.94 80.5354 1048.63 79.9417C1048.33 79.348 1048.19 78.7602 1048.22 78.1785C1048.25 77.5891 1048.42 77.0543 1048.73 76.5744C1049.04 76.0904 1049.48 75.706 1050.03 75.4212C1050.58 75.1402 1051.14 75.0142 1051.71 75.0431C1052.28 75.0681 1052.82 75.2428 1053.31 75.5671C1053.8 75.8798 1054.2 76.333 1054.5 76.9267C1054.8 77.5204 1054.94 78.112 1054.91 78.7014C1054.89 79.2792 1054.72 79.8101 1054.4 80.294C1054.09 80.7779 1053.66 81.1604 1053.11 81.4413ZM1052.45 80.1575C1052.84 79.9597 1053.1 79.6449 1053.24 79.2132C1053.37 78.7738 1053.29 78.2688 1053 77.6983C1052.7 77.1277 1052.34 76.7729 1051.91 76.634C1051.48 76.4874 1051.07 76.5111 1050.69 76.705C1050.3 76.9067 1050.04 77.2273 1049.9 77.6667C1049.77 78.0945 1049.85 78.5936 1050.14 79.1642C1050.44 79.7348 1050.8 80.0953 1051.23 80.2459C1051.66 80.3848 1052.06 80.3553 1052.45 80.1575Z" fill="#BE046A"/>
<path d="M1045.54 85.3303C1044.72 85.7497 1043.93 85.9363 1043.17 85.89C1042.4 85.8361 1041.7 85.5779 1041.06 85.1156C1040.42 84.6455 1039.89 83.998 1039.46 83.173C1039.04 82.348 1038.82 81.5382 1038.82 80.7437C1038.81 79.9492 1039 79.2243 1039.41 78.5689C1039.81 77.9135 1040.42 77.3761 1041.24 76.9567C1042.21 76.4582 1043.13 76.2935 1043.99 76.4628C1044.86 76.6203 1045.6 77.0952 1046.2 77.8873L1044.57 78.7242C1044.24 78.3361 1043.85 78.1038 1043.39 78.0272C1042.94 77.9389 1042.44 78.0333 1041.9 78.3102C1041.16 78.694 1040.7 79.2492 1040.54 79.9757C1040.38 80.7022 1040.52 81.5088 1040.98 82.3955C1041.43 83.2822 1042 83.8712 1042.69 84.1625C1043.37 84.4461 1044.08 84.3959 1044.83 84.0121C1045.37 83.7352 1045.74 83.398 1045.95 83.0005C1046.16 82.5913 1046.2 82.1528 1046.09 81.685L1047.72 80.8482C1047.99 81.76 1047.94 82.6114 1047.56 83.4022C1047.18 84.1891 1046.51 84.8318 1045.54 85.3303Z" fill="#BE046A"/>
<path fill-rule="evenodd" clip-rule="evenodd" d="M213.482 404.71C212.35 408.688 208.837 411.521 204.71 411.78C200.797 412.026 198.009 415.685 198.812 419.534C199.656 423.583 197.864 427.726 194.332 429.876C190.983 431.914 190.214 436.455 192.712 439.493C195.339 442.688 195.676 447.191 193.549 450.737C191.531 454.104 192.961 458.486 196.58 460.015C200.389 461.624 202.776 465.458 202.541 469.587C202.318 473.512 205.62 476.727 209.528 476.398C213.648 476.052 217.54 478.339 219.249 482.106C220.874 485.689 225.286 486.999 228.59 484.891C232.076 482.667 236.584 482.883 239.846 485.427C242.944 487.843 247.455 486.954 249.401 483.547C251.452 479.956 255.542 478.049 259.611 478.786C263.471 479.485 267.052 476.601 267.193 472.674C267.341 468.54 270.073 464.948 274.017 463.708C277.756 462.532 279.589 458.309 277.889 454.762C276.101 451.032 276.851 446.58 279.764 443.646C282.528 440.863 282.188 436.268 279.038 433.916C275.724 431.442 274.321 427.149 275.537 423.197C276.692 419.442 274.255 415.529 270.378 414.911C266.295 414.261 263.062 411.109 262.303 407.043C261.581 403.176 257.608 400.846 253.894 402.101C249.977 403.425 245.652 402.135 243.092 398.885C240.66 395.796 236.065 395.58 233.361 398.42C230.51 401.414 226.082 402.285 222.307 400.595C218.724 398.991 214.557 400.934 213.482 404.71ZM222.985 399.08C218.479 397.063 213.237 399.507 211.886 404.256C210.946 407.558 208.03 409.908 204.606 410.123C199.682 410.433 196.179 415.037 197.187 419.873C197.888 423.236 196.399 426.674 193.469 428.458C189.255 431.023 188.293 436.732 191.43 440.547C193.612 443.201 193.891 446.94 192.126 449.884C189.588 454.116 191.386 459.622 195.934 461.544C199.097 462.88 201.079 466.063 200.884 469.492C200.603 474.423 204.751 478.465 209.667 478.052C213.086 477.764 216.318 479.663 217.737 482.792C219.778 487.291 225.325 488.943 229.483 486.29C232.375 484.445 236.116 484.623 238.825 486.735C242.72 489.773 248.394 488.656 250.842 484.371C252.545 481.39 255.938 479.808 259.316 480.419C264.172 481.299 268.675 477.669 268.852 472.734C268.975 469.301 271.243 466.32 274.515 465.291C279.221 463.811 281.521 458.5 279.386 454.045C277.901 450.946 278.524 447.25 280.942 444.816C284.419 441.315 283.988 435.54 280.031 432.586C277.278 430.531 276.114 426.966 277.123 423.685C278.575 418.966 275.513 414.049 270.639 413.272C267.25 412.732 264.565 410.115 263.934 406.738C263.028 401.882 258.036 398.95 253.363 400.529C250.113 401.627 246.522 400.558 244.396 397.859C241.34 393.977 235.561 393.702 232.159 397.275C229.793 399.76 226.119 400.483 222.985 399.08Z" fill="#A4D792"/>
<path d="M214.453 408.223C215.662 403.98 220.347 401.796 224.374 403.597C227.175 404.85 230.458 404.203 232.573 401.983C235.614 398.79 240.779 399.035 243.51 402.502C245.409 404.913 248.618 405.868 251.523 404.886C255.7 403.474 260.161 406.093 260.97 410.431C261.533 413.448 263.932 415.786 266.961 416.268C271.317 416.961 274.052 421.353 272.754 425.569C271.851 428.501 272.891 431.686 275.351 433.521C278.887 436.16 279.271 441.32 276.163 444.448C274.002 446.623 273.444 449.925 274.77 452.693C276.678 456.673 274.621 461.418 270.416 462.742C267.491 463.662 265.463 466.325 265.353 469.392C265.194 473.802 261.169 477.045 256.829 476.26C253.81 475.715 250.777 477.129 249.255 479.792C247.067 483.621 241.995 484.62 238.514 481.907C236.094 480.02 232.751 479.861 230.166 481.51C226.449 483.882 221.492 482.407 219.669 478.387C218.401 475.592 215.513 473.897 212.457 474.154C208.063 474.524 204.357 470.914 204.609 466.508C204.784 463.445 203.013 460.601 200.187 459.408C196.123 457.692 194.516 452.773 196.785 448.991C198.363 446.361 198.115 443.021 196.165 440.65C193.362 437.242 194.223 432.141 197.989 429.849C200.609 428.255 201.94 425.183 201.314 422.178C200.413 417.857 203.545 413.744 207.946 413.466C211.006 413.274 213.613 411.174 214.453 408.223Z" fill="#FCF298"/>
<path d="M245.659 459.026L248.367 451.585L249.69 452.066L246.982 459.507L245.659 459.026Z" fill="#BE046A"/>
<path d="M242.984 458.052L245.692 450.611L247.015 451.093L244.307 458.534L242.984 458.052Z" fill="#BE046A"/>
<path d="M235.303 455.257L240.582 448.985L242.07 449.527L242.083 457.724L240.677 457.213L240.708 455.328L237.887 454.301L236.688 455.761L235.303 455.257ZM238.625 453.399L240.723 454.163L240.763 450.772L238.625 453.399Z" fill="#BE046A"/>
<path d="M229.178 453.027L231.044 447.901L232.222 448.33L231.996 449.336C232.302 449.073 232.649 448.903 233.036 448.826C233.433 448.744 233.848 448.782 234.282 448.94L233.774 450.335L233.402 450.199C233.113 450.094 232.838 450.045 232.578 450.052C232.318 450.058 232.083 450.148 231.872 450.321C231.667 450.496 231.494 450.78 231.351 451.173L230.501 453.509L229.178 453.027Z" fill="#BE046A"/>
<path d="M225.325 451.765C224.829 451.584 224.423 451.308 224.106 450.935C223.796 450.565 223.597 450.137 223.508 449.652C223.428 449.163 223.485 448.653 223.678 448.123C223.871 447.592 224.158 447.17 224.537 446.855C224.92 446.534 225.348 446.331 225.824 446.247C226.306 446.165 226.796 446.214 227.292 446.395C227.781 446.573 228.18 446.847 228.49 447.217C228.807 447.59 229.005 448.021 229.085 448.51C229.173 448.995 229.121 449.503 228.928 450.033C228.735 450.564 228.447 450.99 228.065 451.311C227.692 451.628 227.265 451.827 226.783 451.909C226.3 451.991 225.814 451.943 225.325 451.765ZM225.743 450.618C226.087 450.743 226.433 450.725 226.781 450.563C227.131 450.394 227.399 450.054 227.585 449.544C227.77 449.035 227.782 448.606 227.62 448.258C227.46 447.903 227.212 447.665 226.874 447.542C226.523 447.414 226.172 447.435 225.822 447.604C225.481 447.768 225.218 448.105 225.032 448.615C224.847 449.125 224.83 449.556 224.983 449.908C225.145 450.256 225.398 450.492 225.743 450.618Z" fill="#BE046A"/>
<path d="M217.522 448.785L220.155 441.551L224.827 443.251L224.439 444.315L221.091 443.097L220.353 445.122L223.061 446.108L222.681 447.152L219.974 446.166L218.845 449.266L217.522 448.785Z" fill="#BE046A"/>
<path d="M261.359 449.985C260.842 449.797 260.424 449.52 260.105 449.154C259.786 448.788 259.585 448.364 259.503 447.882C259.421 447.399 259.476 446.896 259.666 446.373C259.859 445.842 260.141 445.411 260.512 445.077C260.89 444.747 261.317 444.539 261.792 444.455C262.277 444.366 262.788 444.419 263.325 444.615C263.828 444.798 264.233 445.07 264.538 445.431C264.844 445.792 265.033 446.204 265.106 446.668C265.189 447.127 265.145 447.591 264.974 448.059C264.947 448.135 264.915 448.213 264.878 448.293C264.847 448.376 264.813 448.461 264.773 448.548L260.877 447.13C260.759 447.539 260.783 447.903 260.948 448.221C261.12 448.541 261.386 448.766 261.744 448.896C262.013 448.994 262.258 449.017 262.48 448.965C262.711 448.909 262.906 448.801 263.066 448.64L264.409 449.129C264.195 449.418 263.925 449.655 263.6 449.841C263.284 450.023 262.934 450.129 262.548 450.16C262.169 450.194 261.773 450.136 261.359 449.985ZM262.934 445.69C262.61 445.572 262.291 445.561 261.975 445.657C261.662 445.745 261.403 445.963 261.199 446.31L263.751 447.239C263.854 446.894 263.827 446.58 263.673 446.298C263.518 446.015 263.272 445.813 262.934 445.69Z" fill="#BE046A"/>
<path d="M256.239 447.981L258.947 440.54L260.27 441.022L257.562 448.462L256.239 447.981Z" fill="#BE046A"/>
<path d="M252.491 446.757C252.105 446.616 251.794 446.421 251.557 446.171C251.32 445.921 251.16 445.633 251.076 445.306L250.676 445.956L249.498 445.527L252.206 438.086L253.529 438.567L252.419 441.616C252.667 441.449 252.957 441.328 253.288 441.254C253.627 441.182 254.013 441.225 254.447 441.383C254.929 441.558 255.317 441.832 255.611 442.204C255.905 442.576 256.088 443.006 256.16 443.493C256.233 443.979 256.175 444.481 255.987 444.998C255.799 445.515 255.521 445.936 255.152 446.262C254.786 446.582 254.371 446.79 253.907 446.886C253.445 446.975 252.973 446.932 252.491 446.757ZM252.633 445.498C253.054 445.651 253.453 445.636 253.831 445.454C254.21 445.272 254.48 444.957 254.643 444.509C254.806 444.061 254.803 443.642 254.632 443.253C254.462 442.863 254.167 442.592 253.747 442.439C253.319 442.283 252.915 442.3 252.535 442.489C252.163 442.674 251.896 442.99 251.733 443.438C251.57 443.886 251.57 444.303 251.733 444.69C251.906 445.073 252.206 445.342 252.633 445.498Z" fill="#BE046A"/>
<path d="M249.611 438.862C249.37 438.774 249.196 438.629 249.09 438.427C248.991 438.227 248.982 438.017 249.062 437.796C249.143 437.576 249.284 437.424 249.485 437.342C249.696 437.255 249.923 437.255 250.164 437.343C250.405 437.431 250.575 437.574 250.674 437.774C250.782 437.97 250.796 438.178 250.716 438.398C250.636 438.619 250.49 438.772 250.279 438.859C250.075 438.949 249.852 438.95 249.611 438.862ZM246.794 444.543L248.66 439.417L249.983 439.899L248.117 445.025L246.794 444.543Z" fill="#BE046A"/>
<path d="M243.386 443.443C242.931 443.277 242.558 443.06 242.266 442.79C241.977 442.513 241.776 442.206 241.665 441.869C241.554 441.532 241.54 441.183 241.624 440.824L242.957 441.309C242.926 441.524 242.973 441.736 243.1 441.946C243.236 442.152 243.448 442.307 243.738 442.412C244.027 442.518 244.259 442.536 244.432 442.466C244.612 442.399 244.73 442.29 244.785 442.138C244.866 441.918 244.823 441.735 244.658 441.589C244.495 441.436 244.255 441.259 243.938 441.057C243.735 440.929 243.533 440.789 243.33 440.637C243.128 440.486 242.949 440.323 242.794 440.149C242.648 439.971 242.547 439.779 242.49 439.571C242.435 439.356 242.453 439.124 242.544 438.876C242.709 438.421 243.027 438.104 243.498 437.925C243.976 437.748 244.543 437.778 245.197 438.016C245.804 438.237 246.234 438.554 246.49 438.967C246.752 439.382 246.828 439.85 246.716 440.371L245.465 439.916C245.528 439.51 245.311 439.216 244.815 439.036C244.567 438.945 244.356 438.923 244.183 438.97C244.017 439.019 243.908 439.115 243.855 439.26C243.8 439.412 243.856 439.568 244.023 439.731C244.19 439.893 244.426 440.072 244.729 440.268C245.057 440.481 245.35 440.694 245.609 440.905C245.877 441.112 246.064 441.347 246.171 441.612C246.279 441.871 246.268 442.182 246.135 442.547C246.026 442.867 245.839 443.123 245.574 443.315C245.309 443.507 244.989 443.617 244.612 443.643C244.236 443.67 243.827 443.603 243.386 443.443Z" fill="#BE046A"/>
<path d="M237.956 441.467C237.502 441.302 237.128 441.084 236.836 440.814C236.547 440.537 236.347 440.23 236.235 439.893C236.124 439.556 236.11 439.208 236.194 438.848L237.528 439.333C237.496 439.548 237.544 439.761 237.67 439.97C237.806 440.176 238.019 440.331 238.308 440.437C238.597 440.542 238.829 440.56 239.002 440.49C239.183 440.424 239.301 440.314 239.356 440.163C239.436 439.942 239.393 439.759 239.228 439.613C239.065 439.46 238.825 439.283 238.509 439.082C238.306 438.953 238.103 438.813 237.901 438.662C237.698 438.51 237.52 438.347 237.364 438.174C237.218 437.996 237.117 437.803 237.06 437.595C237.006 437.38 237.024 437.149 237.114 436.901C237.279 436.446 237.598 436.129 238.069 435.949C238.547 435.772 239.113 435.802 239.768 436.041C240.374 436.261 240.805 436.578 241.06 436.991C241.323 437.406 241.398 437.875 241.286 438.396L240.036 437.941C240.098 437.534 239.881 437.241 239.385 437.06C239.137 436.97 238.926 436.948 238.753 436.994C238.587 437.043 238.478 437.14 238.425 437.284C238.37 437.436 238.426 437.593 238.594 437.755C238.761 437.917 238.996 438.097 239.299 438.293C239.627 438.506 239.921 438.718 240.179 438.929C240.447 439.136 240.634 439.372 240.741 439.637C240.85 439.895 240.838 440.207 240.705 440.572C240.596 440.891 240.41 441.147 240.145 441.339C239.88 441.532 239.559 441.641 239.182 441.668C238.806 441.695 238.397 441.628 237.956 441.467Z" fill="#BE046A"/>
<path d="M232.152 439.354C231.635 439.166 231.217 438.889 230.898 438.523C230.579 438.157 230.378 437.733 230.296 437.251C230.214 436.769 230.269 436.266 230.459 435.742C230.652 435.212 230.934 434.78 231.305 434.447C231.683 434.116 232.11 433.908 232.585 433.824C233.07 433.735 233.581 433.789 234.118 433.984C234.621 434.167 235.026 434.439 235.331 434.8C235.637 435.161 235.826 435.573 235.899 436.037C235.982 436.496 235.938 436.96 235.767 437.428C235.74 437.504 235.708 437.582 235.671 437.662C235.64 437.745 235.606 437.83 235.566 437.917L231.67 436.499C231.552 436.908 231.576 437.272 231.741 437.59C231.913 437.91 232.179 438.135 232.537 438.265C232.805 438.363 233.051 438.386 233.272 438.334C233.504 438.278 233.699 438.17 233.859 438.009L235.202 438.498C234.988 438.787 234.718 439.024 234.393 439.21C234.077 439.392 233.727 439.498 233.341 439.529C232.962 439.563 232.566 439.505 232.152 439.354ZM233.727 435.059C233.403 434.941 233.084 434.93 232.768 435.026C232.455 435.115 232.196 435.333 231.992 435.68L234.544 436.609C234.646 436.263 234.62 435.95 234.466 435.667C234.311 435.385 234.065 435.182 233.727 435.059Z" fill="#BE046A"/>
<path d="M225.976 437.106C225.452 436.915 225.032 436.634 224.715 436.261C224.398 435.888 224.196 435.456 224.11 434.964C224.031 434.475 224.086 433.968 224.277 433.445C224.467 432.921 224.75 432.498 225.126 432.174C225.508 431.853 225.94 431.651 226.423 431.569C226.905 431.487 227.408 431.541 227.932 431.732C228.586 431.97 229.075 432.343 229.397 432.851C229.722 433.351 229.837 433.924 229.743 434.568L228.348 434.061C228.369 433.787 228.302 433.544 228.145 433.331C227.998 433.114 227.787 432.955 227.511 432.855C227.146 432.722 226.786 432.747 226.431 432.93C226.075 433.112 225.809 433.448 225.631 433.938C225.453 434.427 225.441 434.856 225.596 435.224C225.75 435.592 226.01 435.843 226.375 435.976C226.651 436.076 226.914 436.094 227.164 436.029C227.42 435.966 227.63 435.82 227.791 435.59L229.186 436.098C228.852 436.631 228.397 436.992 227.821 437.181C227.245 437.369 226.63 437.344 225.976 437.106Z" fill="#BE046A"/>
<path d="M219.779 434.851C219.256 434.661 218.835 434.379 218.519 434.006C218.202 433.633 218 433.201 217.914 432.709C217.834 432.22 217.89 431.714 218.081 431.19C218.271 430.666 218.554 430.243 218.929 429.919C219.312 429.598 219.744 429.396 220.226 429.314C220.709 429.232 221.212 429.287 221.735 429.477C222.39 429.715 222.878 430.088 223.201 430.596C223.526 431.096 223.641 431.669 223.547 432.313L222.152 431.806C222.173 431.533 222.106 431.289 221.949 431.076C221.802 430.859 221.59 430.7 221.315 430.6C220.95 430.467 220.59 430.492 220.234 430.675C219.879 430.858 219.612 431.194 219.434 431.683C219.256 432.172 219.245 432.601 219.399 432.969C219.554 433.337 219.814 433.588 220.179 433.721C220.455 433.821 220.717 433.839 220.967 433.774C221.224 433.711 221.433 433.565 221.595 433.335L222.99 433.843C222.656 434.377 222.2 434.738 221.625 434.926C221.049 435.114 220.434 435.089 219.779 434.851Z" fill="#BE046A"/>
<path d="M209.875 431.105L215.153 424.834L216.642 425.376L216.654 433.573L215.249 433.061L215.279 431.176L212.458 430.15L211.26 431.609L209.875 431.105ZM213.196 429.248L215.294 430.011L215.334 426.62L213.196 429.248Z" fill="#BE046A"/>
</svg>
