<svg width="1332" height="487" viewBox="0 0 1332 487" fill="none" xmlns="http://www.w3.org/2000/svg">
<g filter="url(#filter0_d_2299_11049)">
<path fill-rule="evenodd" clip-rule="evenodd" d="M55.8548 91.264C58.3308 96.7962 57.0549 103.284 52.6665 107.463C48.5056 111.424 48.8224 118.158 53.3493 121.723C58.1117 125.474 60.0014 131.813 58.0619 137.552C56.2227 142.995 59.6367 148.817 65.3029 149.874C71.2614 150.987 75.8804 155.724 76.8339 161.708C77.7391 167.389 83.4725 170.961 88.9753 169.268C94.7674 167.487 101.058 169.542 104.683 174.398C108.13 179.015 114.864 179.513 118.943 175.463C123.241 171.193 129.765 170.095 135.232 172.714C140.43 175.205 146.618 172.52 148.341 167.041C150.159 161.261 155.423 157.258 161.481 157.041C167.235 156.835 171.462 151.587 170.437 145.93C169.358 139.967 172.152 133.974 177.414 130.968C182.406 128.117 183.709 121.506 180.168 116.965C176.44 112.185 176.124 105.579 179.383 100.472C182.472 95.6295 180.552 89.1635 175.303 86.7826C169.782 84.2787 166.43 78.5749 166.937 72.5376C167.419 66.8099 162.708 61.9712 156.956 62.2987C150.905 62.6432 145.288 59.1454 142.929 53.5633C140.689 48.2599 134.267 46.1638 129.334 49.1219C124.137 52.2377 117.539 51.7448 112.857 47.8951C108.404 44.2343 101.75 45.3616 98.7628 50.2687C95.6127 55.444 89.5421 58.0709 83.6078 56.8335C77.967 55.6573 72.6052 59.7429 72.2449 65.4768C71.8649 71.5243 67.7148 76.6723 61.8853 78.3316C56.3517 79.9067 53.5045 86.0126 55.8548 91.264ZM61.2194 75.9923C54.2608 77.973 50.6792 85.6537 53.6348 92.2576C55.6903 96.8501 54.6308 102.234 50.9894 105.701C45.7532 110.687 46.157 119.155 51.8445 123.634C55.7998 126.749 57.367 132.011 55.7577 136.774C53.4435 143.622 57.7402 150.937 64.8567 152.265C69.8057 153.189 73.6406 157.124 74.432 162.091C75.5701 169.233 82.7753 173.72 89.6904 171.593C94.4994 170.114 99.7234 171.82 102.734 175.853C107.064 181.653 115.527 182.283 120.657 177.189C124.224 173.645 129.64 172.732 134.181 174.908C140.71 178.037 148.492 174.666 150.661 167.771C152.17 162.975 156.538 159.651 161.568 159.471C168.801 159.212 174.119 152.613 172.831 145.497C171.934 140.548 174.253 135.575 178.621 133.08C184.901 129.493 186.537 121.177 182.086 115.469C178.991 111.5 178.729 106.018 181.433 101.78C185.321 95.686 182.901 87.5581 176.307 84.5676C171.722 82.4879 168.94 77.7515 169.361 72.7413C169.967 65.5369 164.044 59.4591 156.818 59.8704C151.793 60.1565 147.128 57.2514 145.17 52.6167C142.354 45.9523 134.286 43.3169 128.083 47.0359C123.77 49.6222 118.29 49.2139 114.401 46.0165C108.81 41.4187 100.444 42.8295 96.6853 49.0041C94.0715 53.2982 89.0328 55.4802 84.1043 54.4525C77.0173 52.9747 70.2709 58.1085 69.8175 65.3243C69.5022 70.3423 66.0587 74.6149 61.2194 75.9923Z" fill="#E6C6AC"/>
<path d="M60.2547 94.2928C57.6153 88.3913 60.8165 81.5263 67.0338 79.7548C71.3576 78.5229 74.4348 74.7038 74.7174 70.219C75.1238 63.7701 81.1521 59.1807 87.4835 60.5001C91.8865 61.4177 96.3885 59.4666 98.7245 55.6285C102.084 50.1094 109.558 48.847 114.553 52.9552C118.027 55.8121 122.922 56.176 126.776 53.8638C132.318 50.5389 139.527 52.8927 142.041 58.8484C143.789 62.9902 147.957 65.5857 152.446 65.3291C158.902 64.9602 164.192 70.3909 163.65 76.8298C163.273 81.3076 165.757 85.5401 169.854 87.3979C175.744 90.0694 177.905 97.333 174.43 102.78C172.014 106.568 172.246 111.468 175.011 115.015C178.987 120.114 177.523 127.547 171.912 130.754C168.01 132.985 165.937 137.429 166.737 141.852C167.887 148.212 163.134 154.111 156.672 154.344C152.178 154.506 148.275 157.477 146.926 161.763C144.987 167.926 138.034 170.94 132.201 168.145C128.145 166.201 123.305 167.018 120.118 170.185C115.534 174.74 107.973 174.178 104.106 168.995C101.417 165.391 96.7497 163.867 92.453 165.19C86.2745 167.092 79.8381 163.083 78.8226 156.701C78.1164 152.262 74.691 148.746 70.2696 147.921C63.9119 146.735 60.0745 140.198 62.1432 134.077C63.5818 129.821 62.1826 125.118 58.6495 122.335C53.569 118.333 53.2097 110.765 57.8887 106.308C61.1426 103.209 62.0902 98.3968 60.2547 94.2928Z" fill="#FCF298"/>
<path d="M87.4111 130.754C86.4814 131.093 85.6115 131.186 84.8012 131.034C83.9879 130.873 83.2721 130.503 82.6539 129.923C82.0326 129.335 81.5511 128.571 81.2096 127.633C80.868 126.695 80.7461 125.8 80.8439 124.95C80.9418 124.1 81.2506 123.352 81.7703 122.706C82.29 122.06 83.0147 121.568 83.9443 121.229C85.0494 120.827 86.0533 120.775 86.9561 121.072C87.8644 121.357 88.5866 121.963 89.1228 122.89L87.2678 123.566C86.9718 123.107 86.5842 122.806 86.1049 122.663C85.6312 122.508 85.0874 122.542 84.4735 122.765C83.6227 123.075 83.0615 123.607 82.7898 124.361C82.5181 125.116 82.5658 125.997 82.9329 127.006C83.3 128.014 83.8301 128.72 84.5232 129.124C85.2131 129.518 85.9834 129.56 86.8341 129.251C87.448 129.027 87.8913 128.717 88.1639 128.32C88.4421 127.911 88.552 127.449 88.4936 126.934L90.3486 126.258C90.5179 127.269 90.3447 128.172 89.829 128.965C89.3221 129.756 88.5161 130.352 87.4111 130.754ZM96.032 127.616C95.4006 127.846 94.7778 127.909 94.1638 127.805C93.5585 127.697 93.0142 127.443 92.5309 127.043C92.0531 126.631 91.6913 126.087 91.4455 125.412C91.1997 124.737 91.1334 124.091 91.2464 123.473C91.3563 122.847 91.6085 122.299 92.0031 121.827C92.4064 121.353 92.9238 121 93.5553 120.771C94.178 120.544 94.792 120.484 95.3972 120.592C96.0113 120.696 96.5572 120.954 97.0349 121.366C97.5183 121.767 97.8828 122.304 98.1286 122.98C98.3744 123.655 98.4424 124.306 98.3326 124.932C98.2283 125.546 97.9745 126.09 97.5711 126.565C97.1678 127.039 96.6547 127.39 96.032 127.616ZM95.5005 126.156C95.9391 125.996 96.2615 125.695 96.4679 125.253C96.6711 124.801 96.6546 124.251 96.4184 123.602C96.1822 122.953 95.8428 122.525 95.4001 122.319C94.9543 122.104 94.5165 122.075 94.0868 122.231C93.6395 122.394 93.3143 122.701 93.111 123.152C92.9134 123.592 92.9327 124.136 93.1689 124.785C93.4052 125.434 93.7418 125.868 94.1788 126.086C94.6215 126.292 95.062 126.316 95.5005 126.156ZM100.822 125.694L98.4468 119.169L99.9333 118.628L100.399 119.457C100.494 119.064 100.68 118.714 100.955 118.405C101.235 118.085 101.604 117.841 102.06 117.675C103.068 117.308 103.925 117.438 104.63 118.066C104.736 117.62 104.948 117.22 105.266 116.866C105.593 116.508 105.993 116.244 106.467 116.071C107.318 115.762 108.064 115.778 108.705 116.121C109.346 116.463 109.845 117.126 110.203 118.108L111.544 121.792L109.86 122.405L108.576 118.879C108.372 118.318 108.106 117.928 107.778 117.709C107.459 117.488 107.076 117.458 106.629 117.621C106.173 117.787 105.865 118.088 105.706 118.523C105.555 118.956 105.588 119.47 105.805 120.066L107.031 123.434L105.347 124.047L104.064 120.521C103.86 119.96 103.594 119.57 103.266 119.352C102.938 119.133 102.546 119.107 102.09 119.273C101.643 119.436 101.339 119.735 101.18 120.171C101.03 120.603 101.063 121.117 101.28 121.714L102.506 125.081L100.822 125.694ZM113.142 121.21L110.767 114.685L112.254 114.144L112.719 114.972C112.815 114.58 113 114.23 113.275 113.921C113.556 113.6 113.924 113.357 114.38 113.191C115.389 112.824 116.246 112.954 116.951 113.581C117.057 113.136 117.269 112.736 117.587 112.381C117.914 112.024 118.314 111.759 118.788 111.587C119.638 111.277 120.384 111.294 121.025 111.636C121.667 111.979 122.166 112.642 122.524 113.624L123.864 117.308L122.18 117.92L120.897 114.395C120.693 113.833 120.427 113.444 120.099 113.225C119.78 113.004 119.397 112.974 118.949 113.137C118.493 113.303 118.186 113.604 118.026 114.039C117.876 114.471 117.909 114.986 118.126 115.582L119.352 118.95L117.668 119.563L116.385 116.037C116.18 115.476 115.914 115.086 115.587 114.868C115.259 114.649 114.867 114.623 114.411 114.789C113.963 114.952 113.66 115.251 113.501 115.686C113.35 116.118 113.383 116.633 113.6 117.229L114.826 120.597L113.142 121.21ZM127.967 115.993C127.152 116.29 126.428 116.265 125.795 115.919C125.172 115.57 124.681 114.905 124.323 113.922L122.983 110.239L124.654 109.631L125.937 113.156C126.141 113.718 126.412 114.106 126.748 114.321C127.085 114.536 127.499 114.554 127.99 114.376C128.454 114.207 128.775 113.901 128.952 113.459C129.138 113.014 129.122 112.494 128.905 111.897L127.679 108.529L129.363 107.916L131.738 114.442L130.252 114.983L129.718 113.925C129.657 114.385 129.475 114.799 129.172 115.167C128.877 115.533 128.476 115.808 127.967 115.993ZM133.467 113.812L131.092 107.287L132.578 106.746L133.112 107.803C133.174 107.344 133.351 106.932 133.645 106.566C133.948 106.198 134.358 105.92 134.876 105.731C135.683 105.437 136.402 105.464 137.035 105.809C137.667 106.155 138.162 106.819 138.52 107.802L139.861 111.485L138.177 112.098L136.893 108.573C136.689 108.011 136.419 107.623 136.082 107.408C135.745 107.193 135.336 107.173 134.854 107.348C134.38 107.521 134.05 107.829 133.865 108.274C133.688 108.716 133.708 109.235 133.925 109.832L135.151 113.2L133.467 113.812ZM139.635 103.031C139.328 103.142 139.04 103.143 138.771 103.032C138.511 102.918 138.33 102.721 138.228 102.44C138.126 102.16 138.139 101.896 138.268 101.651C138.403 101.393 138.624 101.208 138.931 101.097C139.238 100.985 139.521 100.986 139.781 101.1C140.047 101.202 140.231 101.393 140.333 101.674C140.435 101.955 140.419 102.224 140.284 102.481C140.158 102.736 139.942 102.919 139.635 103.031ZM141.537 110.875L139.162 104.35L140.846 103.737L143.22 110.262L141.537 110.875ZM147.886 108.564C147.201 108.813 146.593 108.846 146.059 108.663C145.526 108.48 145.104 107.963 144.794 107.112L143.76 104.271L142.642 104.678L142.13 103.27L143.248 102.863L142.808 101.041L144.295 100.5L144.932 102.25L146.695 101.608L147.207 103.016L145.444 103.658L146.483 106.512C146.598 106.828 146.744 107.023 146.92 107.098C147.102 107.161 147.359 107.132 147.692 107.011L148.508 106.714L149.03 108.148L147.886 108.564ZM152.384 110.205L152.686 106.326L152.291 106.469L147.535 101.302L149.364 100.637L152.864 104.563L153.1 99.2769L154.889 98.6257L154.174 109.553L152.384 110.205ZM80.2629 152.332L76.9111 143.123L82.9233 140.935L83.4165 142.29L79.0883 143.865L80.0076 146.391L83.9412 144.96L84.42 146.275L80.4864 147.707L81.4537 150.364L85.7819 148.789L86.2751 150.144L80.2629 152.332ZM87.8291 149.578L85.4541 143.053L86.9407 142.512L87.4062 143.341C87.5018 142.949 87.6871 142.598 87.9621 142.289C88.2427 141.969 88.611 141.725 89.0671 141.559C90.0757 141.192 90.9326 141.322 91.6376 141.95C91.7436 141.504 91.9556 141.104 92.2736 140.75C92.6004 140.393 93.0007 140.128 93.4743 139.955C94.325 139.646 95.071 139.662 95.7122 140.005C96.3534 140.348 96.8528 141.01 97.2103 141.992L98.551 145.676L96.8671 146.289L95.5838 142.763C95.3795 142.202 95.1135 141.812 94.7857 141.594C94.4666 141.372 94.0835 141.343 93.6362 141.505C93.1801 141.671 92.8724 141.972 92.7131 142.408C92.5625 142.84 92.5957 143.354 92.8128 143.951L94.0386 147.318L92.3547 147.931L91.0714 144.406C90.8671 143.844 90.6011 143.454 90.2733 143.236C89.9455 143.018 89.5535 142.991 89.0975 143.157C88.6502 143.32 88.3469 143.619 88.1875 144.055C88.0369 144.487 88.0702 145.001 88.2872 145.598L89.513 148.966L87.8291 149.578ZM101.203 147.988L97.7747 138.569L99.2745 138.023L99.7986 138.89C99.9038 138.524 100.087 138.169 100.35 137.825C100.621 137.478 101.033 137.204 101.585 137.003C102.199 136.78 102.801 136.729 103.392 136.852C103.983 136.975 104.513 137.244 104.982 137.659C105.451 138.074 105.805 138.611 106.045 139.269C106.284 139.926 106.358 140.565 106.265 141.185C106.17 141.795 105.935 142.338 105.561 142.812C105.184 143.277 104.689 143.621 104.075 143.844C103.584 144.023 103.121 144.087 102.685 144.037C102.25 143.987 101.857 143.837 101.508 143.587L102.887 147.375L101.203 147.988ZM103.183 142.5C103.718 142.305 104.096 141.964 104.316 141.477C104.536 140.99 104.542 140.461 104.335 139.891C104.127 139.321 103.781 138.916 103.296 138.675C102.811 138.434 102.301 138.411 101.766 138.606C101.222 138.804 100.842 139.151 100.625 139.647C100.414 140.131 100.412 140.658 100.62 141.228C100.827 141.798 101.169 142.205 101.645 142.449C102.127 142.681 102.64 142.698 103.183 142.5ZM111.92 140.989C111.289 141.219 110.666 141.281 110.052 141.177C109.447 141.07 108.902 140.816 108.419 140.416C107.941 140.004 107.58 139.46 107.334 138.784C107.088 138.109 107.022 137.463 107.135 136.846C107.245 136.22 107.497 135.671 107.891 135.2C108.295 134.725 108.812 134.373 109.444 134.143C110.066 133.916 110.68 133.857 111.285 133.964C111.9 134.069 112.445 134.327 112.923 134.739C113.407 135.139 113.771 135.677 114.017 136.352C114.263 137.027 114.331 137.678 114.221 138.304C114.117 138.918 113.863 139.462 113.459 139.937C113.056 140.411 112.543 140.762 111.92 140.989ZM111.389 139.528C111.827 139.369 112.15 139.068 112.356 138.625C112.559 138.174 112.543 137.624 112.307 136.975C112.07 136.325 111.731 135.898 111.288 135.691C110.843 135.476 110.405 135.447 109.975 135.603C109.528 135.766 109.202 136.073 108.999 136.525C108.802 136.964 108.821 137.508 109.057 138.157C109.293 138.806 109.63 139.24 110.067 139.458C110.51 139.665 110.95 139.688 111.389 139.528ZM117.755 138.686L113.472 132.855L115.143 132.247L117.984 136.532L117.59 131.357L119.458 130.677L122.483 134.895L121.918 129.781L123.589 129.173L124.043 136.398L122.294 137.034L119.123 132.661L119.505 138.05L117.755 138.686ZM130.023 134.4C129.365 134.639 128.731 134.711 128.12 134.616C127.509 134.52 126.967 134.271 126.492 133.867C126.018 133.464 125.659 132.929 125.416 132.263C125.171 131.587 125.092 130.935 125.181 130.307C125.279 129.675 125.525 129.124 125.92 128.653C126.32 128.169 126.862 127.803 127.546 127.554C128.187 127.321 128.803 127.255 129.397 127.357C129.99 127.459 130.512 127.706 130.963 128.099C131.419 128.479 131.755 128.967 131.973 129.563C132.008 129.66 132.04 129.762 132.07 129.871C132.108 129.976 132.143 130.087 132.176 130.204L127.216 132.01C127.437 132.506 127.757 132.841 128.178 133.015C128.608 133.187 129.051 133.189 129.507 133.023C129.849 132.899 130.107 132.72 130.281 132.488C130.46 132.244 130.562 131.979 130.587 131.692L132.297 131.069C132.324 131.526 132.256 131.978 132.091 132.426C131.931 132.861 131.676 133.252 131.325 133.598C130.983 133.941 130.549 134.208 130.023 134.4ZM128.044 128.922C127.632 129.072 127.311 129.323 127.082 129.675C126.849 130.018 126.775 130.442 126.86 130.948L130.109 129.765C129.926 129.345 129.644 129.06 129.262 128.911C128.88 128.762 128.474 128.766 128.044 128.922ZM134.658 132.534L132.283 126.009L133.783 125.463L134.386 126.629C134.469 126.122 134.668 125.672 134.982 125.28C135.302 124.875 135.738 124.573 136.29 124.372L136.937 126.148L136.463 126.32C136.095 126.454 135.787 126.631 135.539 126.85C135.291 127.069 135.135 127.35 135.07 127.691C135.014 128.029 135.078 128.448 135.26 128.948L136.342 131.921L134.658 132.534ZM139.874 130.636L137.499 124.11L138.985 123.569L139.451 124.398C139.546 124.006 139.732 123.655 140.007 123.347C140.287 123.026 140.656 122.783 141.112 122.617C142.12 122.25 142.977 122.38 143.682 123.007C143.788 122.561 144 122.161 144.318 121.807C144.645 121.45 145.045 121.185 145.519 121.013C146.37 120.703 147.116 120.72 147.757 121.062C148.398 121.405 148.897 122.067 149.255 123.05L150.596 126.733L148.912 127.346L147.628 123.82C147.424 123.259 147.158 122.869 146.83 122.651C146.511 122.429 146.128 122.4 145.681 122.563C145.225 122.729 144.917 123.029 144.758 123.465C144.607 123.897 144.64 124.411 144.857 125.008L146.083 128.376L144.399 128.989L143.116 125.463C142.912 124.902 142.646 124.512 142.318 124.293C141.99 124.075 141.598 124.049 141.142 124.215C140.695 124.377 140.392 124.677 140.232 125.112C140.082 125.544 140.115 126.059 140.332 126.655L141.558 130.023L139.874 130.636ZM155.422 125.155C154.765 125.395 154.13 125.467 153.519 125.371C152.909 125.276 152.366 125.026 151.891 124.623C151.417 124.22 151.058 123.685 150.816 123.018C150.57 122.343 150.491 121.691 150.581 121.062C150.678 120.431 150.925 119.879 151.319 119.408C151.719 118.925 152.262 118.559 152.946 118.31C153.586 118.076 154.203 118.011 154.796 118.113C155.389 118.215 155.911 118.462 156.362 118.854C156.818 119.234 157.155 119.722 157.372 120.319C157.407 120.415 157.439 120.518 157.469 120.626C157.507 120.731 157.543 120.843 157.575 120.96L152.616 122.765C152.836 123.261 153.156 123.596 153.578 123.771C154.007 123.942 154.45 123.945 154.906 123.779C155.248 123.654 155.506 123.476 155.68 123.244C155.86 123 155.961 122.734 155.986 122.447L157.696 121.825C157.724 122.282 157.655 122.734 157.49 123.181C157.33 123.617 157.075 124.007 156.725 124.354C156.383 124.696 155.949 124.964 155.422 125.155ZM153.444 119.678C153.031 119.828 152.711 120.079 152.481 120.43C152.248 120.773 152.174 121.198 152.259 121.703L155.508 120.52C155.326 120.1 155.043 119.816 154.661 119.667C154.279 119.518 153.873 119.521 153.444 119.678ZM160.057 123.29L157.682 116.764L159.169 116.223L159.702 117.281C159.764 116.821 159.941 116.409 160.235 116.044C160.538 115.675 160.949 115.397 161.466 115.208C162.273 114.915 162.993 114.941 163.625 115.287C164.257 115.633 164.752 116.297 165.11 117.279L166.451 120.963L164.767 121.575L163.483 118.05C163.279 117.488 163.009 117.1 162.672 116.885C162.336 116.67 161.926 116.65 161.444 116.826C160.97 116.998 160.64 117.307 160.455 117.752C160.278 118.193 160.298 118.712 160.515 119.309L161.741 122.677L160.057 123.29ZM170.968 119.318C170.284 119.567 169.675 119.6 169.142 119.417C168.608 119.234 168.187 118.717 167.877 117.866L166.843 115.024L165.725 115.431L165.212 114.024L166.331 113.617L165.891 111.795L167.378 111.254L168.014 113.004L169.777 112.362L170.29 113.77L168.527 114.411L169.566 117.266C169.681 117.582 169.826 117.777 170.003 117.852C170.184 117.915 170.442 117.886 170.775 117.765L171.591 117.468L172.113 118.902L170.968 119.318Z" fill="#BE046A"/>
<path d="M137.348 82.7741C138.298 82.4285 139.17 82.3621 139.964 82.5748C140.752 82.7717 141.423 83.137 141.976 83.6706C142.529 84.2043 142.943 84.851 143.22 85.6106C143.49 86.3544 143.586 87.1084 143.505 87.8725C143.425 88.6365 143.149 89.3554 142.677 90.0289C142.199 90.6866 141.486 91.1883 140.536 91.5339C139.618 91.868 138.773 91.9337 138 91.731C137.222 91.5126 136.556 91.1365 136.004 90.6028C135.467 90.0634 135.063 89.4218 134.792 88.6779C134.516 87.9183 134.41 87.1593 134.474 86.401C134.555 85.6369 134.826 84.9289 135.287 84.2769C135.743 83.6092 136.43 83.1082 137.348 82.7741ZM140.848 88.033C140.825 87.7725 140.76 87.5186 140.652 87.2711C140.554 87.0021 140.43 86.7604 140.28 86.546C140.097 86.29 139.894 86.0505 139.669 85.8275C139.439 85.5887 139.181 85.396 138.894 85.2493C138.716 85.1529 138.511 85.0839 138.281 85.0423C138.045 84.9848 137.83 85.0093 137.636 85.1158C137.588 85.1331 137.523 85.1749 137.439 85.2411C137.31 85.3778 137.224 85.5347 137.181 85.7117C137.153 85.8829 137.153 86.0534 137.179 86.2232C137.202 86.4836 137.262 86.7484 137.36 87.0174C137.468 87.2649 137.597 87.4958 137.747 87.7101C137.929 87.9662 138.136 88.2136 138.366 88.4524C138.591 88.6754 138.846 88.8602 139.133 89.0069C139.311 89.1032 139.518 89.1802 139.754 89.2376C139.985 89.2793 140.197 89.2469 140.391 89.1403C140.439 89.1231 140.504 89.0813 140.587 89.0151C140.717 88.8784 140.795 88.7244 140.823 88.5531C140.866 88.3761 140.874 88.2028 140.848 88.033ZM122.69 78.3236C123.639 77.978 124.511 77.9116 125.305 78.1243C126.094 78.3212 126.765 78.6865 127.317 79.2202C127.87 79.7538 128.285 80.4005 128.561 81.1601C128.832 81.904 128.927 82.6579 128.847 83.422C128.766 84.1861 128.49 84.9049 128.018 85.5784C127.541 86.2361 126.827 86.7378 125.878 87.0834C124.96 87.4175 124.115 87.4832 123.342 87.2806C122.563 87.0621 121.898 86.686 121.345 86.1523C120.808 85.6129 120.404 84.9713 120.134 84.2275C119.857 83.4678 119.751 82.7088 119.816 81.9505C119.896 81.1864 120.167 80.4784 120.629 79.8265C121.085 79.1587 121.772 78.6577 122.69 78.3236ZM124.45 84.565C124.629 84.6614 124.836 84.7383 125.072 84.7958C125.302 84.8375 125.515 84.805 125.709 84.6985C125.756 84.6812 125.822 84.6395 125.905 84.5732C126.035 84.4365 126.113 84.2825 126.14 84.1113C126.183 83.9343 126.192 83.7609 126.166 83.5911C126.143 83.3307 126.077 83.0767 125.969 82.8293C125.871 82.5602 125.748 82.3185 125.598 82.1042C125.415 81.8481 125.211 81.6086 124.987 81.3857C124.757 81.1469 124.498 80.9541 124.212 80.8074C124.033 80.7111 123.829 80.6421 123.599 80.6004C123.363 80.5429 123.148 80.5675 122.954 80.674C122.906 80.6913 122.841 80.733 122.757 80.7992C122.628 80.936 122.541 81.0928 122.498 81.2698C122.471 81.4411 122.47 81.6116 122.496 81.7814C122.519 82.0418 122.58 82.3065 122.678 82.5756C122.786 82.823 122.915 83.0539 123.064 83.2683C123.247 83.5244 123.454 83.7718 123.684 84.0106C123.909 84.2335 124.164 84.4184 124.45 84.565ZM134.978 74.4156C135.054 74.4774 135.083 74.5566 135.064 74.653L131.619 94.215C131.6 94.3114 131.543 94.3769 131.448 94.4115L128.98 95.3101C128.885 95.3446 128.799 95.331 128.723 95.2691C128.646 95.2073 128.618 95.1281 128.636 95.0317L132.082 75.4697C132.1 75.3733 132.157 75.3078 132.252 75.2733L134.721 74.3747C134.816 74.3401 134.902 74.3537 134.978 74.4156Z" fill="#BE046A"/>
<path d="M108.42 83.3292C109.828 82.8165 111.155 82.6205 112.4 82.741C113.654 82.8399 114.78 83.1741 115.776 83.7436C116.781 84.2915 117.649 85.0244 118.377 85.9422C119.121 86.8542 119.692 87.8562 120.089 88.9482C120.481 90.0244 120.685 91.151 120.701 92.328C120.733 93.4992 120.543 94.626 120.13 95.7081C119.728 96.7687 119.088 97.7452 118.212 98.6375C117.331 99.5141 116.185 100.209 114.777 100.721C113.4 101.222 112.108 101.415 110.901 101.299C109.688 101.167 108.586 100.824 107.596 100.27C106.616 99.695 105.762 98.9484 105.033 98.0306C104.321 97.1071 103.769 96.1072 103.377 95.031C102.98 93.939 102.757 92.8103 102.709 91.6448C102.677 90.4735 102.855 89.3605 103.241 88.3057C103.638 87.2293 104.262 86.2586 105.112 85.3935C105.956 84.5127 107.067 83.8217 108.444 83.3206L108.42 83.3292ZM111.789 97.2387C112.318 97.5119 112.905 97.7197 113.548 97.8619C114.207 97.9984 114.826 97.9256 115.404 97.6434C115.652 97.5354 115.871 97.3749 116.062 97.1619C116.425 96.779 116.658 96.3358 116.761 95.8321C116.859 95.3127 116.887 94.8004 116.847 94.2954C116.779 93.5673 116.614 92.8659 116.35 92.1911C116.081 91.5006 115.746 90.8517 115.346 90.2446C114.889 89.5325 114.344 88.8708 113.709 88.2594C113.069 87.6323 112.362 87.1188 111.589 86.719C111.06 86.4458 110.465 86.2409 109.806 86.1044C109.163 85.9621 108.552 86.0321 107.974 86.3143C107.726 86.4223 107.507 86.5828 107.316 86.7958C106.953 87.1787 106.723 87.6298 106.625 88.1493C106.522 88.6529 106.491 89.1573 106.531 89.6623C106.599 90.3904 106.767 91.0997 107.037 91.7903C107.3 92.465 107.632 93.106 108.032 93.7131C108.489 94.4252 109.037 95.0948 109.677 95.722C110.312 96.3333 111.016 96.8389 111.789 97.2387Z" fill="#BE046A"/>
<path d="M90.1747 89.9698C91.5832 89.4571 92.9098 89.261 94.1545 89.3815C95.4092 89.4804 96.5345 89.8147 97.5304 90.3842C98.5364 90.9321 99.4035 91.6649 100.132 92.5827C100.876 93.4948 101.447 94.4968 101.844 95.5888C102.236 96.665 102.44 97.7916 102.456 98.9686C102.488 100.14 102.298 101.267 101.885 102.349C101.483 103.409 100.843 104.386 99.9673 105.278C99.0855 106.155 97.9403 106.849 96.5318 107.362C95.1549 107.863 93.8629 108.056 92.6556 107.939C91.4426 107.807 90.341 107.464 89.3509 106.911C88.3708 106.336 87.5166 105.589 86.7883 104.671C86.0757 103.748 85.5236 102.748 85.1319 101.672C84.7345 100.58 84.5118 99.4509 84.464 98.2854C84.432 97.1141 84.6094 96.0011 84.9961 94.9463C85.393 93.8699 86.0164 92.8991 86.8666 92.0341C87.7109 91.1533 88.8216 90.4623 90.1984 89.9611L90.1747 89.9698ZM93.5436 103.879C94.0732 104.152 94.6596 104.36 95.3029 104.503C95.9619 104.639 96.5806 104.566 97.159 104.284C97.4064 104.176 97.6258 104.015 97.8171 103.802C98.1796 103.42 98.4126 102.976 98.516 102.473C98.6137 101.953 98.6423 101.441 98.6019 100.936C98.5341 100.208 98.3684 99.5065 98.1049 98.8317C97.8356 98.1411 97.5009 97.4923 97.1007 96.8852C96.6443 96.1731 96.0988 95.5114 95.4641 94.9C94.8236 94.2728 94.1169 93.7594 93.3441 93.3596C92.8145 93.0864 92.2202 92.8815 91.5612 92.745C90.9179 92.6027 90.3071 92.6727 89.7288 92.9549C89.4813 93.0629 89.2619 93.2234 89.0706 93.4364C88.7082 93.8192 88.4781 94.2704 88.3804 94.7899C88.2769 95.2935 88.2454 95.7979 88.2858 96.3029C88.3537 97.031 88.5223 97.7403 88.7915 98.4309C89.055 99.1056 89.3869 99.7466 89.7871 100.354C90.2434 101.066 90.7918 101.735 91.4323 102.363C92.0671 102.974 92.7708 103.479 93.5436 103.879Z" fill="#BE046A"/>
<path d="M85.34 108.855L86.5857 110.283C86.6462 110.351 86.6642 110.425 86.6398 110.505C86.6211 110.602 86.5643 110.667 86.4693 110.702L81.1992 112.62C81.1043 112.655 81.0187 112.641 80.9424 112.579C80.8719 112.533 80.838 112.465 80.8409 112.374L80.877 110.479L76.8938 99.5353L75.3508 100.097C75.24 100.137 75.1436 100.119 75.0615 100.041C74.9795 99.9632 74.9636 99.8704 75.014 99.7624L76.9509 95.4819C76.9811 95.4171 77.0278 95.3732 77.0911 95.3502L79.7003 94.3199C79.7794 94.2911 79.8513 94.2918 79.9161 94.322C79.9809 94.3522 80.0248 94.3989 80.0478 94.4622L85.2925 108.872L85.34 108.855Z" fill="#BE046A"/>
</g>
<path fill-rule="evenodd" clip-rule="evenodd" d="M1215.89 283.349C1214.3 288.906 1209.4 292.863 1203.63 293.225C1198.16 293.568 1194.27 298.68 1195.39 304.057C1196.57 309.714 1194.07 315.501 1189.13 318.504C1184.46 321.352 1183.38 327.696 1186.87 331.94C1190.54 336.403 1191.01 342.693 1188.04 347.647C1185.22 352.35 1187.22 358.472 1192.27 360.608C1197.6 362.856 1200.93 368.211 1200.6 373.98C1200.29 379.463 1204.9 383.954 1210.36 383.495C1216.12 383.011 1221.55 386.206 1223.94 391.469C1226.21 396.473 1232.38 398.304 1236.99 395.359C1241.86 392.252 1248.16 392.554 1252.71 396.107C1257.04 399.483 1263.35 398.241 1266.06 393.482C1268.93 388.466 1274.64 385.802 1280.33 386.831C1285.72 387.807 1290.72 383.778 1290.92 378.293C1291.12 372.518 1294.94 367.5 1300.45 365.767C1305.67 364.124 1308.23 358.225 1305.86 353.27C1303.36 348.059 1304.41 341.839 1308.48 337.742C1312.34 333.854 1311.87 327.434 1307.46 324.148C1302.84 320.692 1300.88 314.696 1302.57 309.174C1304.19 303.928 1300.78 298.463 1295.37 297.6C1289.66 296.691 1285.15 292.287 1284.09 286.607C1283.08 281.206 1277.53 277.951 1272.34 279.704C1266.87 281.553 1260.83 279.752 1257.25 275.212C1253.85 270.897 1247.43 270.595 1243.66 274.561C1239.67 278.745 1233.49 279.961 1228.21 277.6C1223.21 275.36 1217.39 278.074 1215.89 283.349ZM1229.16 275.484C1222.87 272.667 1215.54 276.081 1213.66 282.715C1212.34 287.328 1208.27 290.61 1203.49 290.911C1196.61 291.343 1191.71 297.775 1193.12 304.531C1194.1 309.229 1192.02 314.032 1187.93 316.524C1182.04 320.107 1180.7 328.082 1185.08 333.412C1188.13 337.119 1188.52 342.343 1186.05 346.455C1182.51 352.368 1185.02 360.06 1191.37 362.744C1195.79 364.61 1198.56 369.058 1198.29 373.848C1197.89 380.736 1203.69 386.382 1210.56 385.805C1215.33 385.404 1219.85 388.056 1221.83 392.427C1224.68 398.712 1232.43 401.02 1238.24 397.313C1242.28 394.736 1247.5 394.985 1251.29 397.936C1256.73 402.179 1264.66 400.619 1268.08 394.632C1270.45 390.469 1275.2 388.258 1279.91 389.113C1286.7 390.341 1292.99 385.271 1293.24 378.376C1293.41 373.581 1296.58 369.417 1301.15 367.979C1307.72 365.911 1310.93 358.492 1307.95 352.268C1305.88 347.94 1306.75 342.776 1310.12 339.375C1314.98 334.485 1314.38 326.418 1308.85 322.29C1305.01 319.42 1303.38 314.44 1304.79 309.856C1306.82 303.264 1302.54 296.395 1295.73 295.31C1291 294.555 1287.25 290.9 1286.37 286.182C1285.1 279.398 1278.13 275.302 1271.6 277.508C1267.06 279.042 1262.04 277.548 1259.07 273.777C1254.8 268.356 1246.73 267.971 1241.98 272.962C1238.67 276.434 1233.54 277.444 1229.16 275.484Z" fill="#A4D792"/>
<path d="M1217.24 288.257C1218.93 282.33 1225.48 279.278 1231.1 281.794C1235.01 283.544 1239.6 282.641 1242.56 279.539C1246.8 275.078 1254.02 275.421 1257.83 280.264C1260.49 283.632 1264.97 284.966 1269.03 283.595C1274.86 281.622 1281.09 285.281 1282.22 291.341C1283.01 295.556 1286.36 298.822 1290.59 299.495C1296.68 300.463 1300.5 306.599 1298.69 312.489C1297.43 316.585 1298.88 321.034 1302.31 323.597C1307.25 327.284 1307.79 334.491 1303.45 338.861C1300.43 341.9 1299.65 346.513 1301.5 350.38C1304.17 355.94 1301.29 362.569 1295.42 364.417C1291.33 365.703 1288.5 369.424 1288.35 373.708C1288.12 379.868 1282.5 384.399 1276.44 383.303C1272.22 382.54 1267.99 384.516 1265.86 388.236C1262.8 393.585 1255.72 394.98 1250.85 391.191C1247.47 388.555 1242.8 388.333 1239.19 390.637C1234 393.949 1227.07 391.889 1224.53 386.274C1222.76 382.369 1218.72 380.001 1214.45 380.36C1208.32 380.877 1203.14 375.834 1203.49 369.68C1203.73 365.4 1201.26 361.427 1197.31 359.76C1191.63 357.363 1189.39 350.492 1192.56 345.209C1194.76 341.534 1194.42 336.868 1191.69 333.556C1187.78 328.795 1188.98 321.669 1194.24 318.467C1197.9 316.24 1199.76 311.949 1198.89 307.751C1197.63 301.716 1202 295.969 1208.15 295.581C1212.43 295.312 1216.07 292.378 1217.24 288.257Z" fill="#FCF298"/>
<path d="M1223.24 346.592C1222.32 346.257 1221.59 345.762 1221.04 345.106C1220.5 344.454 1220.17 343.701 1220.03 342.846C1219.91 341.987 1220.01 341.088 1220.36 340.149C1220.7 339.211 1221.19 338.457 1221.84 337.887C1222.49 337.311 1223.24 336.946 1224.07 336.792C1224.91 336.641 1225.79 336.733 1226.71 337.068C1227.62 337.4 1228.35 337.893 1228.89 338.549C1229.44 339.205 1229.78 339.962 1229.9 340.822C1230.03 341.673 1229.92 342.568 1229.58 343.506C1229.24 344.444 1228.74 345.203 1228.09 345.782C1227.45 346.352 1226.71 346.712 1225.87 346.864C1225.03 347.015 1224.15 346.924 1223.24 346.592ZM1223.79 345.08C1224.67 345.399 1225.47 345.363 1226.2 344.973C1226.94 344.585 1227.49 343.887 1227.86 342.879C1228.22 341.87 1228.25 340.981 1227.93 340.21C1227.63 339.443 1227.03 338.9 1226.16 338.581C1225.28 338.261 1224.47 338.295 1223.74 338.683C1223 339.07 1222.45 339.768 1222.08 340.777C1221.71 341.785 1221.69 342.675 1222 343.445C1222.32 344.215 1222.91 344.76 1223.79 345.08ZM1229.35 348.637L1231.72 342.112L1233.22 342.658L1232.94 343.939C1233.33 343.604 1233.77 343.387 1234.26 343.289C1234.77 343.184 1235.29 343.233 1235.85 343.434L1235.2 345.21L1234.73 345.037C1234.36 344.903 1234.01 344.841 1233.68 344.849C1233.35 344.858 1233.05 344.972 1232.78 345.192C1232.52 345.415 1232.3 345.777 1232.12 346.277L1231.03 349.25L1229.35 348.637ZM1237.88 349.538C1237.57 349.423 1237.29 349.281 1237.04 349.112L1236.38 349.422C1236.5 349.555 1236.67 349.694 1236.91 349.839C1237.14 349.984 1237.54 350.187 1238.09 350.447C1238.93 350.842 1239.48 351.278 1239.76 351.755C1240.03 352.232 1240.06 352.764 1239.85 353.352C1239.71 353.738 1239.47 354.063 1239.13 354.329C1238.8 354.603 1238.37 354.766 1237.85 354.816C1237.34 354.876 1236.73 354.781 1236.05 354.532C1235.12 354.194 1234.43 353.746 1233.99 353.187C1233.55 352.638 1233.45 352.017 1233.7 351.324C1233.92 350.736 1234.39 350.331 1235.11 350.109C1234.97 349.966 1234.84 349.827 1234.74 349.691C1234.65 349.559 1234.58 349.427 1234.51 349.295L1234.63 348.993L1236.21 348.199C1235.86 347.567 1235.82 346.9 1236.07 346.198C1236.23 345.76 1236.48 345.399 1236.83 345.116C1237.18 344.836 1237.59 344.663 1238.06 344.596C1238.53 344.529 1239.05 344.598 1239.61 344.802C1239.98 344.936 1240.3 345.113 1240.58 345.333L1243.05 346.234L1242.68 347.26L1241.53 346.932C1241.58 347.329 1241.54 347.729 1241.39 348.133C1241.23 348.571 1240.98 348.932 1240.64 349.215C1240.3 349.498 1239.89 349.671 1239.41 349.735C1238.93 349.802 1238.43 349.736 1237.88 349.538ZM1238.35 348.249C1238.69 348.373 1239.01 348.383 1239.29 348.279C1239.59 348.178 1239.8 347.956 1239.92 347.614C1240.05 347.272 1240.03 346.968 1239.87 346.7C1239.72 346.436 1239.47 346.242 1239.13 346.118C1238.77 345.987 1238.45 345.973 1238.16 346.078C1237.87 346.182 1237.67 346.405 1237.54 346.747C1237.42 347.09 1237.43 347.393 1237.58 347.657C1237.74 347.921 1237.99 348.118 1238.35 348.249ZM1235.3 351.713C1235.19 352.038 1235.25 352.333 1235.49 352.599C1235.73 352.878 1236.08 353.097 1236.51 353.256C1236.94 353.41 1237.31 353.446 1237.64 353.367C1237.96 353.296 1238.18 353.116 1238.28 352.826C1238.37 352.589 1238.35 352.36 1238.23 352.139C1238.12 351.92 1237.82 351.701 1237.33 351.48C1236.98 351.323 1236.66 351.162 1236.37 350.998C1236.06 351.046 1235.82 351.132 1235.65 351.257C1235.48 351.386 1235.37 351.538 1235.3 351.713ZM1244.09 354.182C1243.53 353.978 1243.1 353.723 1242.81 353.417C1242.52 353.101 1242.34 352.763 1242.27 352.401C1242.2 352.039 1242.23 351.678 1242.37 351.318C1242.59 350.713 1243 350.308 1243.61 350.104C1244.22 349.899 1245 349.969 1245.95 350.314L1247.61 350.917L1247.66 350.759C1247.83 350.312 1247.82 349.937 1247.64 349.633C1247.46 349.33 1247.19 349.11 1246.81 348.973C1246.47 348.848 1246.14 348.823 1245.82 348.897C1245.51 348.963 1245.27 349.142 1245.09 349.435L1243.45 348.837C1243.66 348.379 1243.97 348.024 1244.37 347.773C1244.78 347.524 1245.24 347.387 1245.74 347.363C1246.25 347.329 1246.78 347.412 1247.32 347.61C1248.25 347.948 1248.9 348.447 1249.26 349.106C1249.63 349.766 1249.66 350.521 1249.35 351.372L1247.89 355.384L1246.45 354.862L1246.68 353.753C1246.36 354.033 1245.98 354.224 1245.55 354.324C1245.12 354.428 1244.64 354.38 1244.09 354.182ZM1244.95 353.006C1245.44 353.181 1245.87 353.159 1246.24 352.939C1246.63 352.722 1246.94 352.394 1247.18 351.955L1245.75 351.433C1245.3 351.27 1244.95 351.237 1244.7 351.333C1244.45 351.421 1244.28 351.583 1244.19 351.82C1244.1 352.074 1244.13 352.307 1244.27 352.517C1244.41 352.728 1244.64 352.891 1244.95 353.006ZM1249.49 355.969L1251.87 349.444L1253.36 349.985L1253.09 351.138C1253.43 350.826 1253.83 350.624 1254.29 350.533C1254.76 350.446 1255.25 350.496 1255.77 350.684C1256.58 350.978 1257.11 351.461 1257.37 352.132C1257.63 352.804 1257.59 353.63 1257.23 354.613L1255.89 358.296L1254.2 357.683L1255.49 354.158C1255.69 353.596 1255.73 353.125 1255.61 352.744C1255.5 352.363 1255.19 352.084 1254.71 351.909C1254.24 351.736 1253.79 351.761 1253.36 351.983C1252.94 352.207 1252.62 352.618 1252.4 353.214L1251.18 356.582L1249.49 355.969ZM1261.15 351.675C1260.84 351.563 1260.62 351.378 1260.49 351.121C1260.36 350.866 1260.35 350.599 1260.45 350.318C1260.55 350.037 1260.73 349.844 1260.99 349.739C1261.26 349.629 1261.55 349.629 1261.85 349.741C1262.16 349.852 1262.38 350.036 1262.5 350.29C1262.64 350.539 1262.66 350.804 1262.56 351.084C1262.45 351.365 1262.27 351.561 1262 351.671C1261.74 351.785 1261.46 351.786 1261.15 351.675ZM1257.56 358.906L1259.94 352.381L1261.62 352.994L1259.25 359.519L1257.56 358.906ZM1264.15 361.48C1263.48 361.238 1262.94 360.879 1262.54 360.405C1262.14 359.93 1261.88 359.38 1261.77 358.754C1261.67 358.131 1261.74 357.486 1261.98 356.82C1262.23 356.153 1262.59 355.614 1263.06 355.202C1263.55 354.793 1264.1 354.536 1264.71 354.432C1265.33 354.328 1265.97 354.397 1266.64 354.639C1267.47 354.943 1268.09 355.417 1268.5 356.063C1268.91 356.701 1269.06 357.43 1268.94 358.25L1267.17 357.604C1267.19 357.256 1267.11 356.947 1266.91 356.675C1266.72 356.399 1266.45 356.196 1266.1 356.069C1265.64 355.899 1265.18 355.931 1264.72 356.164C1264.27 356.397 1263.93 356.824 1263.71 357.447C1263.48 358.07 1263.46 358.616 1263.66 359.085C1263.86 359.553 1264.19 359.873 1264.65 360.042C1265 360.169 1265.34 360.192 1265.66 360.109C1265.98 360.029 1266.25 359.843 1266.46 359.551L1268.23 360.197C1267.81 360.876 1267.23 361.336 1266.49 361.576C1265.76 361.815 1264.98 361.784 1264.15 361.48Z" fill="#BE046A"/>
<path d="M1280.28 338.832C1281.23 339.178 1281.94 339.687 1282.42 340.36C1282.89 341.017 1283.17 341.727 1283.25 342.491C1283.33 343.254 1283.23 344.016 1282.96 344.775C1282.69 345.518 1282.28 346.156 1281.72 346.69C1281.17 347.223 1280.5 347.596 1279.7 347.808C1278.92 348.005 1278.05 347.931 1277.1 347.585C1276.18 347.252 1275.49 346.759 1275.03 346.108C1274.58 345.44 1274.31 344.725 1274.23 343.961C1274.16 343.204 1274.27 342.453 1274.54 341.71C1274.81 340.951 1275.22 340.302 1275.76 339.763C1276.31 339.229 1276.97 338.861 1277.74 338.659C1278.52 338.441 1279.37 338.498 1280.28 338.832ZM1279.59 345.106C1279.74 344.892 1279.85 344.655 1279.93 344.397C1280.02 344.128 1280.08 343.863 1280.11 343.603C1280.13 343.289 1280.13 342.975 1280.1 342.66C1280.08 342.33 1280 342.016 1279.88 341.72C1279.8 341.532 1279.69 341.348 1279.54 341.168C1279.4 340.972 1279.22 340.853 1279 340.81C1278.95 340.792 1278.88 340.782 1278.77 340.779C1278.58 340.801 1278.42 340.866 1278.27 340.973C1278.14 341.087 1278.03 341.217 1277.94 341.364C1277.79 341.578 1277.67 341.819 1277.57 342.088C1277.49 342.347 1277.44 342.606 1277.42 342.867C1277.4 343.18 1277.39 343.502 1277.42 343.833C1277.45 344.148 1277.52 344.453 1277.65 344.75C1277.72 344.938 1277.83 345.13 1277.98 345.325C1278.12 345.505 1278.31 345.617 1278.53 345.66C1278.57 345.677 1278.65 345.687 1278.76 345.69C1278.94 345.669 1279.1 345.601 1279.23 345.488C1279.38 345.38 1279.5 345.253 1279.59 345.106ZM1271.92 326.01C1272.87 326.356 1273.58 326.865 1274.05 327.538C1274.53 328.195 1274.81 328.905 1274.89 329.669C1274.97 330.432 1274.87 331.194 1274.6 331.953C1274.32 332.696 1273.91 333.334 1273.36 333.868C1272.81 334.401 1272.14 334.774 1271.34 334.986C1270.55 335.183 1269.69 335.109 1268.74 334.763C1267.82 334.43 1267.13 333.937 1266.67 333.285C1266.21 332.618 1265.95 331.903 1265.87 331.139C1265.8 330.382 1265.9 329.631 1266.17 328.888C1266.45 328.129 1266.86 327.48 1267.39 326.941C1267.95 326.407 1268.61 326.039 1269.38 325.837C1270.16 325.619 1271.01 325.676 1271.92 326.01ZM1269.26 331.919C1269.34 332.107 1269.45 332.299 1269.59 332.495C1269.74 332.675 1269.92 332.786 1270.14 332.829C1270.19 332.847 1270.26 332.857 1270.37 332.86C1270.56 332.838 1270.72 332.77 1270.85 332.657C1270.99 332.549 1271.11 332.422 1271.2 332.275C1271.35 332.061 1271.46 331.825 1271.54 331.566C1271.64 331.297 1271.7 331.032 1271.72 330.772C1271.75 330.459 1271.74 330.145 1271.71 329.83C1271.69 329.499 1271.62 329.186 1271.49 328.889C1271.42 328.701 1271.31 328.517 1271.16 328.337C1271.01 328.141 1270.83 328.022 1270.62 327.979C1270.57 327.962 1270.49 327.952 1270.38 327.949C1270.2 327.97 1270.03 328.035 1269.88 328.143C1269.75 328.256 1269.64 328.386 1269.55 328.533C1269.4 328.747 1269.28 328.989 1269.18 329.257C1269.11 329.516 1269.06 329.776 1269.03 330.036C1269.01 330.349 1269.01 330.671 1269.03 331.002C1269.06 331.317 1269.14 331.623 1269.26 331.919ZM1283.84 330.912C1283.86 331.008 1283.83 331.087 1283.75 331.149L1268.55 343.91C1268.47 343.972 1268.39 343.985 1268.29 343.951L1265.83 343.053C1265.73 343.018 1265.68 342.953 1265.66 342.857C1265.64 342.76 1265.67 342.681 1265.74 342.62L1280.95 329.858C1281.02 329.797 1281.11 329.783 1281.2 329.817L1283.67 330.715C1283.76 330.75 1283.82 330.815 1283.84 330.912Z" fill="#BE046A"/>
<path d="M1257.78 320.676C1259.19 321.189 1260.33 321.891 1261.21 322.782C1262.11 323.664 1262.75 324.643 1263.15 325.718C1263.57 326.784 1263.76 327.902 1263.73 329.072C1263.71 330.248 1263.51 331.382 1263.11 332.473C1262.72 333.548 1262.15 334.542 1261.41 335.453C1260.68 336.37 1259.81 337.11 1258.8 337.674C1257.81 338.227 1256.69 338.564 1255.45 338.684C1254.21 338.789 1252.89 338.585 1251.48 338.073C1250.1 337.572 1248.99 336.889 1248.14 336.025C1247.3 335.145 1246.68 334.175 1246.27 333.115C1245.89 332.045 1245.72 330.925 1245.75 329.755C1245.8 328.59 1246.02 327.47 1246.41 326.395C1246.81 325.304 1247.36 324.296 1248.07 323.374C1248.8 322.457 1249.65 321.718 1250.62 321.159C1251.62 320.59 1252.72 320.248 1253.93 320.132C1255.14 320 1256.43 320.184 1257.81 320.685L1257.78 320.676ZM1251.43 333.488C1251.66 334.037 1251.97 334.573 1252.38 335.095C1252.79 335.622 1253.31 335.964 1253.94 336.119C1254.2 336.196 1254.47 336.214 1254.75 336.174C1255.27 336.113 1255.74 335.924 1256.14 335.605C1256.55 335.27 1256.9 334.896 1257.19 334.483C1257.61 333.883 1257.93 333.239 1258.16 332.553C1258.4 331.852 1258.56 331.14 1258.64 330.418C1258.75 329.58 1258.76 328.723 1258.67 327.848C1258.58 326.956 1258.37 326.109 1258.03 325.307C1257.8 324.758 1257.48 324.219 1257.06 323.691C1256.66 323.169 1256.15 322.83 1255.53 322.675C1255.27 322.599 1255 322.581 1254.71 322.621C1254.19 322.681 1253.72 322.879 1253.32 323.213C1252.91 323.532 1252.56 323.898 1252.27 324.311C1251.86 324.912 1251.53 325.563 1251.29 326.265C1251.06 326.95 1250.9 327.654 1250.82 328.376C1250.71 329.214 1250.7 330.079 1250.79 330.97C1250.88 331.846 1251.09 332.685 1251.43 333.488Z" fill="#BE046A"/>
<path d="M1239.55 314.041C1240.96 314.553 1242.1 315.255 1242.98 316.147C1243.87 317.028 1244.52 318.007 1244.92 319.082C1245.34 320.148 1245.53 321.266 1245.5 322.436C1245.48 323.613 1245.27 324.746 1244.88 325.837C1244.49 326.913 1243.92 327.906 1243.17 328.817C1242.45 329.735 1241.58 330.475 1240.57 331.038C1239.58 331.591 1238.46 331.928 1237.22 332.049C1235.98 332.153 1234.66 331.949 1233.25 331.437C1231.87 330.936 1230.76 330.254 1229.91 329.389C1229.07 328.509 1228.44 327.539 1228.04 326.479C1227.66 325.41 1227.49 324.289 1227.52 323.119C1227.57 321.954 1227.79 320.834 1228.18 319.759C1228.57 318.668 1229.13 317.661 1229.84 316.738C1230.57 315.821 1231.42 315.083 1232.39 314.524C1233.39 313.955 1234.49 313.612 1235.7 313.496C1236.91 313.364 1238.2 313.548 1239.58 314.049L1239.55 314.041ZM1233.2 326.852C1233.43 327.401 1233.74 327.937 1234.14 328.459C1234.56 328.987 1235.08 329.328 1235.71 329.484C1235.96 329.56 1236.24 329.578 1236.52 329.538C1237.04 329.478 1237.5 329.288 1237.91 328.969C1238.32 328.634 1238.67 328.26 1238.96 327.848C1239.38 327.247 1239.7 326.604 1239.93 325.918C1240.17 325.216 1240.33 324.505 1240.41 323.783C1240.52 322.945 1240.53 322.088 1240.44 321.212C1240.35 320.321 1240.14 319.474 1239.8 318.671C1239.57 318.122 1239.25 317.583 1238.83 317.056C1238.43 316.533 1237.92 316.195 1237.29 316.039C1237.04 315.963 1236.76 315.945 1236.48 315.985C1235.96 316.045 1235.49 316.243 1235.08 316.578C1234.68 316.897 1234.33 317.263 1234.04 317.675C1233.62 318.276 1233.3 318.927 1233.06 319.629C1232.83 320.315 1232.67 321.018 1232.59 321.74C1232.48 322.578 1232.47 323.443 1232.56 324.335C1232.65 325.21 1232.86 326.049 1233.2 326.852Z" fill="#BE046A"/>
<path d="M1223.72 325.391L1223.76 327.285C1223.76 327.375 1223.73 327.444 1223.66 327.49C1223.58 327.551 1223.5 327.565 1223.4 327.53L1218.13 325.614C1218.04 325.579 1217.98 325.514 1217.96 325.417C1217.94 325.337 1217.96 325.263 1218.02 325.195L1219.26 323.768L1223.24 312.832L1221.7 312.271C1221.59 312.231 1221.53 312.155 1221.52 312.042C1221.5 311.93 1221.55 311.849 1221.66 311.799L1225.89 309.766C1225.96 309.736 1226.02 309.732 1226.08 309.755L1228.74 310.643C1228.82 310.671 1228.87 310.718 1228.91 310.783C1228.94 310.848 1228.94 310.912 1228.92 310.975L1223.68 325.374L1223.72 325.391Z" fill="#BE046A"/>
<path fill-rule="evenodd" clip-rule="evenodd" d="M1039.33 54.7114C1041.28 57.7795 1041.07 61.7356 1038.83 64.5886C1036.7 67.2936 1037.47 71.2588 1040.45 72.9851C1043.6 74.8012 1045.26 78.3979 1044.6 81.9669C1043.98 85.3512 1046.5 88.5111 1049.95 88.6531C1053.58 88.8025 1056.72 91.2164 1057.8 94.6825C1058.82 97.9732 1062.53 99.6003 1065.65 98.1258C1068.93 96.5738 1072.83 97.2539 1075.4 99.8231C1077.84 102.266 1081.87 101.985 1083.94 99.2341C1086.13 96.3348 1089.9 95.1252 1093.37 96.2105C1096.66 97.2425 1100.1 95.1208 1100.65 91.7247C1101.24 88.1423 1104.02 85.3181 1107.59 84.6711C1110.98 84.0564 1113.04 80.5833 1111.95 77.317C1110.8 73.8738 1111.94 70.0815 1114.8 67.8489C1117.52 65.7311 1117.73 61.7 1115.24 59.3108C1112.62 56.7958 1111.87 52.9063 1113.36 49.599C1114.78 46.4637 1113.09 42.7943 1109.77 41.8319C1106.28 40.8198 1103.81 37.7249 1103.59 34.1019C1103.39 30.6647 1100.18 28.199 1096.8 28.8854C1093.24 29.6075 1089.61 28.0144 1087.73 24.9066C1085.95 21.9539 1081.96 21.2607 1079.29 23.4368C1076.48 25.7289 1072.52 26.0014 1069.42 24.1196C1066.47 22.3301 1062.62 23.568 1061.27 26.7331C1059.84 30.0711 1056.47 32.1481 1052.84 31.9223C1049.4 31.7077 1046.57 34.5889 1046.84 38.0194C1047.14 41.6375 1045.12 45.0449 1041.8 46.5276C1038.66 47.9351 1037.49 51.7989 1039.33 54.7114ZM1041.21 45.1977C1037.25 46.9676 1035.78 51.828 1038.1 55.4905C1039.71 58.0375 1039.55 61.3205 1037.68 63.6877C1035.01 67.0918 1035.97 72.0779 1039.73 74.2468C1042.34 75.7551 1043.72 78.7411 1043.17 81.7025C1042.38 85.9608 1045.56 89.9304 1049.89 90.1089C1052.9 90.233 1055.52 92.2379 1056.41 95.115C1057.7 99.2521 1062.35 101.296 1066.27 99.4429C1068.99 98.1544 1072.24 98.7189 1074.37 100.853C1077.43 103.921 1082.5 103.57 1085.11 100.111C1086.92 97.7045 1090.05 96.6994 1092.93 97.6009C1097.07 98.8971 1101.4 96.2329 1102.09 91.9588C1102.58 88.9866 1104.88 86.642 1107.85 86.1047C1112.11 85.3322 1114.7 80.9645 1113.33 76.8553C1112.38 73.9976 1113.32 70.8507 1115.7 68.9978C1119.12 66.3335 1119.38 61.2628 1116.25 58.2599C1114.07 56.1715 1113.45 52.9432 1114.69 50.1992C1116.47 46.2533 1114.34 41.6414 1110.18 40.4326C1107.28 39.592 1105.23 37.0219 1105.05 34.0153C1104.79 29.6919 1100.76 26.5953 1096.51 27.4576C1093.55 28.0572 1090.54 26.734 1088.98 24.1537C1086.74 20.4432 1081.73 19.5712 1078.37 22.3071C1076.04 24.2096 1072.75 24.4365 1070.17 22.8735C1066.46 20.626 1061.63 22.1785 1059.93 26.1611C1058.74 28.9307 1055.94 30.6557 1052.93 30.4681C1048.6 30.1985 1045.04 33.8197 1045.39 38.1367C1045.63 41.1389 1043.96 43.9668 1041.21 45.1977Z" fill="#A4D792"/>
<path d="M1042.2 56.1306C1040.13 52.8575 1041.44 48.5133 1044.98 46.9309C1047.43 45.8304 1048.93 43.3027 1048.72 40.6195C1048.4 36.7611 1051.59 33.5241 1055.45 33.7646C1058.14 33.9318 1060.64 32.3898 1061.7 29.9142C1063.22 26.3544 1067.54 24.9663 1070.86 26.9746C1073.16 28.3711 1076.09 28.168 1078.18 26.4672C1081.18 24.0216 1085.66 24.8003 1087.66 28.1162C1089.05 30.4223 1091.74 31.6045 1094.38 31.0682C1098.18 30.2969 1101.78 33.0641 1102.01 36.9281C1102.17 39.6153 1104 41.9121 1106.59 42.6631C1110.31 43.7429 1112.22 47.8646 1110.62 51.3915C1109.51 53.8442 1110.07 56.7295 1112.01 58.5957C1114.81 61.2792 1114.58 65.8112 1111.52 68.193C1109.4 69.8493 1108.55 72.662 1109.4 75.216C1110.63 78.8884 1108.32 82.7925 1104.51 83.4835C1101.86 83.9641 1099.8 86.0599 1099.36 88.7165C1098.74 92.5366 1094.88 94.9183 1091.18 93.7603C1088.61 92.955 1085.81 93.8538 1084.19 96.0044C1081.86 99.097 1077.33 99.4108 1074.59 96.669C1072.69 94.7623 1069.79 94.2581 1067.36 95.4102C1063.86 97.0667 1059.7 95.2407 1058.55 91.5433C1057.75 88.972 1055.42 87.1804 1052.73 87.0699C1048.86 86.911 1046.02 83.3635 1046.73 79.5574C1047.21 76.9106 1045.98 74.242 1043.65 72.8942C1040.29 70.9562 1039.43 66.4999 1041.83 63.4571C1043.49 61.3411 1043.64 58.4069 1042.2 56.1306Z" fill="#FCF298"/>
<path d="M1062.6 65.3013L1058.93 58.4623L1056.59 59.7161L1055.96 58.5362L1062.11 55.2359L1062.74 56.4158L1060.4 57.6757L1064.07 64.5146L1062.6 65.3013ZM1069.24 61.9173C1068.69 62.2123 1068.12 62.3526 1067.54 62.3382C1066.97 62.3198 1066.44 62.1587 1065.94 61.8551C1065.45 61.5397 1065.04 61.088 1064.73 60.4999C1064.41 59.9119 1064.27 59.3267 1064.29 58.7445C1064.31 58.1546 1064.47 57.6169 1064.77 57.1313C1065.07 56.6416 1065.5 56.2493 1066.05 55.9543C1066.59 55.6634 1067.15 55.5272 1067.72 55.5457C1068.3 55.5601 1068.84 55.7249 1069.33 56.0403C1069.83 56.3439 1070.23 56.7898 1070.55 57.3778C1070.86 57.9659 1071.01 58.5549 1070.99 59.1447C1070.98 59.7229 1070.82 60.2568 1070.51 60.7465C1070.2 61.2361 1069.78 61.6264 1069.24 61.9173ZM1068.55 60.6458C1068.94 60.4409 1069.19 60.1214 1069.32 59.6872C1069.45 59.2454 1069.36 58.7419 1069.06 58.1768C1068.76 57.6117 1068.39 57.2636 1067.95 57.1326C1067.51 56.994 1067.11 57.0251 1066.73 57.2259C1066.34 57.4348 1066.09 57.7602 1065.96 58.202C1065.84 58.6321 1065.93 59.1297 1066.23 59.6948C1066.53 60.26 1066.9 60.6139 1067.33 60.7566C1067.76 60.8876 1068.17 60.8506 1068.55 60.6458ZM1072.54 59.9663L1073.08 56.0191L1069.49 54.2844L1071.06 53.4424L1073.59 54.6842L1073.94 51.8998L1075.52 51.0517L1074.97 55.0051L1078.57 56.7336L1076.99 57.5818L1074.47 56.3338L1074.11 59.1244L1072.54 59.9663ZM1076.77 49.2444C1076.5 49.3878 1076.24 49.4264 1075.98 49.3603C1075.72 49.29 1075.53 49.1327 1075.4 48.8883C1075.27 48.644 1075.25 48.4003 1075.33 48.1574C1075.42 47.9028 1075.6 47.7038 1075.87 47.5604C1076.14 47.417 1076.4 47.3804 1076.65 47.4507C1076.91 47.5092 1077.1 47.6606 1077.23 47.905C1077.36 48.1494 1077.39 48.3989 1077.3 48.6535C1077.21 48.904 1077.04 49.101 1076.77 49.2444ZM1079.56 56.2017L1076.51 50.5198L1077.98 49.7331L1081.03 55.4151L1079.56 56.2017ZM1082.56 54.594L1079.51 48.912L1080.8 48.2175L1081.43 49.1183C1081.43 48.6881 1081.54 48.2856 1081.76 47.9108C1081.99 47.532 1082.33 47.2217 1082.78 46.98C1083.48 46.603 1084.15 46.5315 1084.77 46.7655C1085.4 46.9995 1085.94 47.5442 1086.4 48.3995L1088.12 51.6071L1086.66 52.3937L1085.01 49.3237C1084.75 48.8349 1084.45 48.5139 1084.11 48.3608C1083.77 48.2077 1083.39 48.2438 1082.97 48.4691C1082.56 48.6904 1082.3 49.0178 1082.19 49.4514C1082.08 49.8809 1082.17 50.3554 1082.45 50.8747L1084.02 53.8073L1082.56 54.594ZM1072.33 79.3747L1068.02 71.3559L1073.2 68.578L1073.83 69.7579L1070.12 71.7491L1071.33 73.9944L1074.33 72.3842L1074.95 73.5412L1071.95 75.1514L1073.79 78.5881L1072.33 79.3747ZM1078.6 76.0082L1075.55 70.3262L1076.86 69.6256L1077.57 70.6172C1077.58 70.14 1077.7 69.7003 1077.94 69.298C1078.18 68.8839 1078.54 68.5478 1079.02 68.2897L1079.85 69.8362L1079.44 70.0574C1079.12 70.2295 1078.86 70.4328 1078.66 70.6673C1078.46 70.9018 1078.35 71.1802 1078.34 71.5024C1078.33 71.8205 1078.44 72.1972 1078.68 72.6326L1080.07 75.2215L1078.6 76.0082ZM1085.88 72.2818C1085.3 72.5891 1084.73 72.7393 1084.16 72.7326C1083.58 72.7258 1083.05 72.5686 1082.56 72.2609C1082.07 71.9531 1081.67 71.509 1081.36 70.9286C1081.04 70.3406 1080.89 69.7519 1080.88 69.1626C1080.89 68.5691 1081.04 68.0296 1081.34 67.5441C1081.65 67.0468 1082.1 66.6383 1082.69 66.3188C1083.25 66.0197 1083.81 65.8776 1084.37 65.8925C1084.93 65.9075 1085.44 66.0653 1085.9 66.3659C1086.37 66.6548 1086.75 67.059 1087.03 67.5783C1087.07 67.6623 1087.12 67.7522 1087.16 67.8479C1087.21 67.9395 1087.25 68.037 1087.3 68.1404L1082.98 70.4574C1083.25 70.884 1083.59 71.1495 1084 71.254C1084.42 71.3545 1084.82 71.2981 1085.22 71.0851C1085.52 70.9253 1085.73 70.7272 1085.86 70.4909C1085.99 70.2428 1086.05 69.9852 1086.04 69.7181L1087.53 68.9191C1087.61 69.3354 1087.61 69.7601 1087.52 70.1931C1087.43 70.6145 1087.24 71.0075 1086.97 71.3721C1086.7 71.7327 1086.34 72.0359 1085.88 72.2818ZM1083.33 67.5101C1082.97 67.7027 1082.71 67.9758 1082.55 68.3295C1082.38 68.6756 1082.37 69.0753 1082.51 69.5287L1085.34 68.0107C1085.12 67.6487 1084.82 67.4246 1084.45 67.3384C1084.08 67.2521 1083.71 67.3094 1083.33 67.5101ZM1092.72 68.6087C1092.15 68.9159 1091.58 69.0662 1091 69.0595C1090.43 69.0527 1089.9 68.8955 1089.41 68.5878C1088.92 68.28 1088.52 67.8359 1088.21 67.2555C1087.89 66.6675 1087.73 66.0788 1087.73 65.4895C1087.74 64.896 1087.89 64.3565 1088.19 63.871C1088.49 63.3737 1088.94 62.9652 1089.54 62.6456C1090.1 62.3466 1090.65 62.2045 1091.21 62.2194C1091.77 62.2343 1092.28 62.3921 1092.75 62.6928C1093.22 62.9817 1093.59 63.3858 1093.87 63.9052C1093.92 63.9892 1093.96 64.079 1094 64.1748C1094.05 64.2664 1094.1 64.3639 1094.15 64.4673L1089.83 66.7843C1090.09 67.2109 1090.43 67.4764 1090.84 67.5809C1091.26 67.6813 1091.67 67.625 1092.07 67.412C1092.36 67.2522 1092.58 67.0541 1092.71 66.8178C1092.84 66.5697 1092.9 66.3121 1092.88 66.045L1094.37 65.246C1094.46 65.6623 1094.45 66.087 1094.36 66.52C1094.27 66.9413 1094.09 67.3343 1093.81 67.699C1093.55 68.0596 1093.18 68.3628 1092.72 68.6087ZM1090.18 63.837C1089.82 64.0296 1089.56 64.3027 1089.39 64.6564C1089.22 65.0025 1089.21 65.4022 1089.36 65.8556L1092.19 64.3375C1091.96 63.9756 1091.67 63.7515 1091.3 63.6653C1090.92 63.579 1090.55 63.6363 1090.18 63.837Z" fill="#BE046A"/>
<path fill-rule="evenodd" clip-rule="evenodd" d="M241.864 388.441C240.732 392.419 237.219 395.251 233.092 395.51C229.179 395.756 226.391 399.415 227.194 403.264C228.038 407.314 226.245 411.456 222.714 413.606C219.365 415.644 218.596 420.186 221.094 423.224C223.721 426.419 224.057 430.922 221.931 434.468C219.913 437.834 221.343 442.216 224.962 443.745C228.771 445.355 231.158 449.188 230.923 453.317C230.7 457.243 234.001 460.457 237.91 460.128C242.03 459.782 245.922 462.07 247.631 465.837C249.256 469.419 253.668 470.729 256.972 468.621C260.458 466.397 264.966 466.613 268.227 469.157C271.326 471.574 275.837 470.684 277.783 467.278C279.834 463.687 283.924 461.78 287.993 462.517C291.853 463.216 295.434 460.332 295.575 456.405C295.723 452.271 298.455 448.679 302.399 447.438C306.138 446.262 307.971 442.04 306.271 438.493C304.483 434.762 305.233 430.31 308.146 427.377C310.91 424.594 310.57 419.998 307.42 417.646C304.106 415.172 302.703 410.88 303.919 406.927C305.074 403.172 302.636 399.26 298.76 398.642C294.677 397.991 291.444 394.839 290.685 390.773C289.963 386.906 285.99 384.577 282.276 385.832C278.359 387.155 274.034 385.866 271.474 382.616C269.041 379.527 264.446 379.311 261.743 382.15C258.892 385.145 254.464 386.015 250.689 384.326C247.105 382.722 242.939 384.665 241.864 388.441ZM251.367 382.811C246.86 380.794 241.619 383.238 240.268 387.987C239.328 391.289 236.412 393.639 232.988 393.854C228.064 394.163 224.56 398.767 225.569 403.603C226.27 406.966 224.781 410.405 221.851 412.188C217.637 414.753 216.674 420.462 219.812 424.278C221.994 426.932 222.273 430.671 220.508 433.614C217.97 437.847 219.768 443.353 224.316 445.274C227.479 446.61 229.461 449.794 229.266 453.223C228.985 458.154 233.133 462.196 238.049 461.782C241.468 461.495 244.7 463.393 246.119 466.522C248.16 471.022 253.706 472.674 257.865 470.02C260.757 468.175 264.498 468.354 267.207 470.466C271.101 473.503 276.776 472.386 279.224 468.101C280.927 465.121 284.32 463.538 287.697 464.15C292.554 465.029 297.057 461.4 297.234 456.464C297.357 453.032 299.625 450.051 302.897 449.022C307.603 447.541 309.902 442.231 307.767 437.775C306.283 434.677 306.906 430.981 309.324 428.546C312.801 425.046 312.37 419.271 308.413 416.316C305.66 414.262 304.496 410.697 305.505 407.415C306.957 402.696 303.895 397.779 299.021 397.003C295.632 396.463 292.947 393.846 292.316 390.469C291.41 385.612 286.418 382.68 281.745 384.259C278.495 385.358 274.904 384.288 272.778 381.589C269.722 377.708 263.943 377.432 260.541 381.006C258.175 383.49 254.501 384.213 251.367 382.811Z" fill="#A4D792"/>
<path d="M242.835 391.954C244.044 387.711 248.729 385.527 252.756 387.328C255.556 388.58 258.84 387.934 260.955 385.713C263.996 382.52 269.161 382.765 271.892 386.232C273.791 388.643 277 389.598 279.905 388.616C284.082 387.205 288.543 389.823 289.352 394.162C289.914 397.179 292.314 399.517 295.343 399.998C299.698 400.691 302.434 405.084 301.136 409.3C300.233 412.232 301.273 415.417 303.733 417.252C307.269 419.891 307.653 425.05 304.545 428.178C302.384 430.354 301.826 433.656 303.152 436.424C305.06 440.404 303.003 445.149 298.797 446.472C295.873 447.392 293.845 450.056 293.734 453.123C293.576 457.532 289.55 460.776 285.21 459.991C282.192 459.445 279.159 460.86 277.637 463.522C275.448 467.352 270.376 468.35 266.896 465.637C264.476 463.751 261.132 463.592 258.547 465.241C254.83 467.612 249.874 466.138 248.051 462.118C246.783 459.323 243.895 457.627 240.839 457.885C236.445 458.255 232.739 454.644 232.991 450.239C233.166 447.176 231.395 444.332 228.569 443.139C224.504 441.423 222.898 436.504 225.167 432.722C226.745 430.092 226.497 426.751 224.547 424.381C221.744 420.972 222.605 415.872 226.371 413.579C228.99 411.985 230.322 408.913 229.696 405.909C228.795 401.588 231.927 397.474 236.328 397.197C239.388 397.004 241.994 394.904 242.835 391.954Z" fill="#FCF298"/>
<path d="M238.251 414.836L243.531 408.564L245.019 409.106L245.032 417.304L243.626 416.793L243.657 414.908L240.835 413.88L239.636 415.341L238.251 414.836ZM241.573 412.978L243.671 413.742L243.712 410.35L241.573 412.978ZM248.157 418.582C247.633 418.392 247.213 418.11 246.896 417.737C246.579 417.364 246.378 416.932 246.291 416.44C246.212 415.951 246.268 415.444 246.458 414.921C246.649 414.397 246.932 413.973 247.307 413.649C247.689 413.328 248.122 413.126 248.604 413.044C249.087 412.962 249.59 413.017 250.114 413.207C250.768 413.446 251.257 413.819 251.579 414.326C251.904 414.827 252.02 415.4 251.926 416.044L250.53 415.536C250.552 415.263 250.484 415.02 250.327 414.807C250.18 414.59 249.969 414.431 249.693 414.33C249.328 414.197 248.968 414.222 248.612 414.405C248.257 414.588 247.99 414.924 247.812 415.413C247.634 415.903 247.622 416.331 247.777 416.7C247.932 417.068 248.192 417.319 248.557 417.452C248.833 417.552 249.095 417.57 249.345 417.505C249.602 417.442 249.812 417.296 249.973 417.066L251.369 417.574C251.034 418.108 250.579 418.469 250.003 418.657C249.427 418.846 248.812 418.821 248.157 418.582ZM254.355 420.838C253.831 420.648 253.411 420.366 253.094 419.993C252.777 419.62 252.576 419.188 252.489 418.696C252.41 418.207 252.466 417.7 252.656 417.176C252.847 416.653 253.13 416.229 253.505 415.905C253.887 415.584 254.32 415.382 254.802 415.3C255.285 415.218 255.788 415.273 256.311 415.463C256.966 415.702 257.455 416.074 257.777 416.582C258.102 417.083 258.218 417.655 258.124 418.3L256.728 417.792C256.749 417.519 256.682 417.276 256.525 417.063C256.378 416.845 256.167 416.687 255.891 416.586C255.526 416.453 255.166 416.478 254.81 416.661C254.455 416.844 254.188 417.18 254.01 417.669C253.832 418.158 253.82 418.587 253.975 418.956C254.13 419.324 254.39 419.575 254.755 419.708C255.031 419.808 255.293 419.826 255.543 419.761C255.8 419.698 256.01 419.552 256.171 419.322L257.567 419.83C257.232 420.364 256.777 420.725 256.201 420.913C255.625 421.102 255.01 421.077 254.355 420.838ZM260.532 423.087C260.016 422.899 259.597 422.621 259.278 422.255C258.959 421.89 258.758 421.465 258.676 420.983C258.594 420.5 258.648 419.997 258.839 419.474C259.032 418.943 259.314 418.511 259.685 418.178C260.063 417.847 260.49 417.64 260.965 417.555C261.45 417.466 261.962 417.52 262.499 417.715C263.002 417.898 263.406 418.17 263.712 418.531C264.018 418.892 264.207 419.305 264.28 419.768C264.363 420.228 264.319 420.692 264.148 421.16C264.121 421.236 264.088 421.314 264.051 421.394C264.021 421.477 263.987 421.562 263.947 421.649L260.05 420.23C259.932 420.64 259.956 421.004 260.121 421.322C260.293 421.642 260.559 421.867 260.917 421.998C261.186 422.095 261.431 422.118 261.653 422.066C261.884 422.01 262.08 421.902 262.239 421.741L263.583 422.23C263.369 422.519 263.099 422.757 262.774 422.943C262.458 423.124 262.107 423.231 261.721 423.262C261.342 423.296 260.946 423.237 260.532 423.087ZM262.108 418.79C261.784 418.672 261.464 418.661 261.148 418.757C260.835 418.846 260.576 419.064 260.372 419.411L262.925 420.34C263.027 419.995 263.001 419.681 262.846 419.399C262.692 419.116 262.445 418.913 262.108 418.79ZM266.338 425.2C265.883 425.034 265.51 424.816 265.218 424.546C264.929 424.269 264.728 423.962 264.617 423.625C264.505 423.288 264.492 422.94 264.576 422.58L265.909 423.065C265.878 423.28 265.925 423.493 266.052 423.703C266.188 423.908 266.4 424.064 266.69 424.169C266.979 424.274 267.211 424.292 267.384 424.223C267.565 424.156 267.683 424.046 267.738 423.895C267.818 423.674 267.775 423.491 267.61 423.345C267.447 423.192 267.207 423.015 266.89 422.814C266.687 422.685 266.485 422.545 266.282 422.393C266.08 422.242 265.901 422.079 265.746 421.906C265.6 421.728 265.499 421.535 265.442 421.327C265.387 421.112 265.405 420.88 265.495 420.632C265.661 420.177 265.979 419.86 266.451 419.68C266.929 419.503 267.495 419.534 268.15 419.772C268.756 419.993 269.187 420.31 269.443 420.723C269.705 421.138 269.78 421.606 269.669 422.128L268.418 421.672C268.48 421.266 268.263 420.972 267.767 420.792C267.519 420.701 267.308 420.679 267.135 420.726C266.969 420.774 266.86 420.871 266.807 421.016C266.752 421.168 266.808 421.324 266.975 421.487C267.143 421.649 267.378 421.828 267.681 422.025C268.009 422.238 268.303 422.45 268.561 422.661C268.829 422.868 269.017 423.104 269.123 423.369C269.232 423.627 269.22 423.939 269.087 424.304C268.979 424.623 268.792 424.879 268.527 425.072C268.262 425.264 267.941 425.373 267.564 425.4C267.188 425.427 266.779 425.36 266.338 425.2ZM271.769 427.176C271.314 427.011 270.941 426.793 270.649 426.523C270.359 426.246 270.159 425.939 270.048 425.602C269.936 425.265 269.922 424.916 270.007 424.557L271.34 425.042C271.309 425.257 271.356 425.469 271.483 425.679C271.618 425.885 271.831 426.04 272.121 426.146C272.41 426.251 272.641 426.269 272.815 426.199C272.996 426.132 273.113 426.023 273.169 425.871C273.249 425.651 273.206 425.468 273.041 425.322C272.878 425.169 272.638 424.992 272.321 424.79C272.118 424.662 271.916 424.522 271.713 424.37C271.511 424.218 271.332 424.056 271.177 423.882C271.031 423.704 270.929 423.511 270.872 423.303C270.818 423.088 270.836 422.857 270.926 422.609C271.092 422.154 271.41 421.837 271.881 421.657C272.359 421.48 272.926 421.51 273.58 421.749C274.187 421.969 274.618 422.286 274.873 422.699C275.136 423.115 275.211 423.583 275.099 424.104L273.849 423.649C273.911 423.242 273.694 422.949 273.198 422.768C272.95 422.678 272.739 422.656 272.566 422.702C272.4 422.751 272.291 422.848 272.238 422.993C272.183 423.144 272.239 423.301 272.406 423.463C272.573 423.626 272.809 423.805 273.112 424.001C273.44 424.214 273.733 424.426 273.992 424.638C274.26 424.845 274.448 425.08 274.554 425.346C274.663 425.604 274.651 425.915 274.518 426.281C274.409 426.6 274.223 426.856 273.958 427.048C273.693 427.241 273.372 427.35 272.995 427.377C272.619 427.404 272.21 427.337 271.769 427.176ZM277.995 422.594C277.753 422.507 277.58 422.362 277.474 422.159C277.375 421.959 277.366 421.749 277.446 421.529C277.526 421.308 277.667 421.156 277.869 421.074C278.08 420.987 278.307 420.987 278.548 421.075C278.789 421.163 278.959 421.307 279.058 421.506C279.166 421.702 279.18 421.91 279.1 422.13C279.02 422.351 278.874 422.505 278.663 422.592C278.459 422.681 278.236 422.682 277.995 422.594ZM275.177 428.277L277.043 423.15L278.367 423.631L276.5 428.758L275.177 428.277ZM280.875 430.491C280.489 430.35 280.178 430.155 279.941 429.905C279.705 429.655 279.544 429.366 279.46 429.039L279.06 429.69L277.881 429.261L280.59 421.818L281.913 422.3L280.803 425.349C281.052 425.182 281.341 425.061 281.673 424.987C282.011 424.915 282.397 424.958 282.832 425.116C283.314 425.291 283.702 425.565 283.996 425.938C284.29 426.31 284.473 426.739 284.545 427.226C284.618 427.713 284.56 428.215 284.372 428.732C284.184 429.248 283.905 429.67 283.537 429.996C283.171 430.316 282.756 430.524 282.291 430.62C281.83 430.709 281.358 430.666 280.875 430.491ZM281.018 429.232C281.438 429.385 281.837 429.37 282.216 429.188C282.594 429.006 282.865 428.69 283.028 428.243C283.191 427.795 283.187 427.376 283.017 426.986C282.847 426.596 282.552 426.325 282.131 426.172C281.704 426.016 281.3 426.033 280.919 426.222C280.547 426.407 280.28 426.723 280.117 427.171C279.954 427.619 279.954 428.037 280.117 428.424C280.29 428.807 280.59 429.076 281.018 429.232ZM284.624 431.715L287.333 424.273L288.656 424.754L285.948 432.197L284.624 431.715ZM289.745 433.719C289.229 433.531 288.81 433.254 288.491 432.888C288.172 432.522 287.971 432.098 287.889 431.616C287.807 431.133 287.861 430.63 288.052 430.106C288.245 429.576 288.527 429.144 288.898 428.811C289.276 428.48 289.703 428.272 290.178 428.188C290.663 428.099 291.175 428.152 291.712 428.348C292.215 428.531 292.62 428.803 292.925 429.164C293.231 429.525 293.42 429.937 293.493 430.401C293.576 430.86 293.532 431.324 293.361 431.793C293.334 431.869 293.302 431.947 293.265 432.027C293.234 432.11 293.2 432.194 293.16 432.282L289.263 430.863C289.145 431.273 289.169 431.637 289.334 431.954C289.507 432.274 289.772 432.5 290.13 432.63C290.399 432.728 290.644 432.751 290.866 432.699C291.097 432.643 291.293 432.534 291.453 432.374L292.796 432.863C292.582 433.152 292.312 433.389 291.987 433.575C291.671 433.757 291.32 433.863 290.934 433.894C290.555 433.928 290.159 433.87 289.745 433.719ZM291.321 429.423C290.997 429.305 290.677 429.294 290.361 429.39C290.048 429.479 289.789 429.697 289.585 430.044L292.138 430.973C292.24 430.628 292.214 430.314 292.059 430.031C291.905 429.749 291.659 429.546 291.321 429.423ZM245.9 432.519L248.533 425.283L253.205 426.984L252.818 428.048L249.469 426.829L248.731 428.855L251.44 429.841L251.06 430.885L248.351 429.899L247.223 433L245.9 432.519ZM253.704 435.5C253.208 435.319 252.802 435.043 252.485 434.67C252.175 434.299 251.975 433.872 251.886 433.387C251.807 432.897 251.864 432.387 252.057 431.857C252.25 431.326 252.537 430.904 252.916 430.589C253.299 430.268 253.728 430.065 254.203 429.981C254.686 429.899 255.175 429.948 255.671 430.129C256.16 430.307 256.56 430.581 256.87 430.951C257.187 431.324 257.385 431.755 257.464 432.245C257.553 432.73 257.501 433.237 257.308 433.768C257.115 434.299 256.827 434.725 256.445 435.046C256.072 435.363 255.644 435.562 255.162 435.644C254.679 435.726 254.194 435.678 253.704 435.5ZM254.122 434.353C254.466 434.478 254.813 434.46 255.16 434.297C255.511 434.128 255.779 433.789 255.964 433.279C256.15 432.769 256.162 432.34 255.999 431.992C255.84 431.638 255.591 431.399 255.253 431.276C254.902 431.148 254.551 431.169 254.201 431.338C253.86 431.502 253.597 431.84 253.411 432.35C253.225 432.86 253.209 433.291 253.362 433.643C253.524 433.991 253.777 434.227 254.122 434.353ZM257.558 436.762L259.424 431.635L260.602 432.064L260.377 433.07C260.683 432.807 261.03 432.637 261.417 432.559C261.814 432.478 262.229 432.516 262.663 432.674L262.155 434.069L261.783 433.934C261.494 433.828 261.219 433.779 260.959 433.786C260.699 433.793 260.463 433.882 260.252 434.055C260.048 434.231 259.874 434.515 259.731 434.908L258.881 437.244L257.558 436.762ZM263.685 438.992L268.965 432.72L270.453 433.261L270.466 441.46L269.06 440.949L269.091 439.063L266.269 438.036L265.07 439.496L263.685 438.992ZM267.007 437.134L269.105 437.898L269.146 434.506L267.007 437.134ZM271.367 441.788L274.076 434.346L275.399 434.827L272.69 442.27L271.367 441.788ZM274.042 442.762L276.751 435.319L278.074 435.801L275.365 443.243L274.042 442.762Z" fill="#BE046A"/>
<defs>
<filter id="filter0_d_2299_11049" x="-14.6" y="-14.6" width="261.104" height="261.104" filterUnits="userSpaceOnUse" color-interpolation-filters="sRGB">
<feFlood flood-opacity="0" result="BackgroundImageFix"/>
<feColorMatrix in="SourceAlpha" type="matrix" values="0 0 0 0 0 0 0 0 0 0 0 0 0 0 0 0 0 0 127 0" result="hardAlpha"/>
<feMorphology radius="38" operator="dilate" in="SourceAlpha" result="effect1_dropShadow_2299_11049"/>
<feOffset dy="4"/>
<feGaussianBlur stdDeviation="4.3"/>
<feComposite in2="hardAlpha" operator="out"/>
<feColorMatrix type="matrix" values="0 0 0 0 0.988235 0 0 0 0 0.94902 0 0 0 0 0.596078 0 0 0 0.18 0"/>
<feBlend mode="normal" in2="BackgroundImageFix" result="effect1_dropShadow_2299_11049"/>
<feBlend mode="normal" in="SourceGraphic" in2="effect1_dropShadow_2299_11049" result="shape"/>
</filter>
</defs>
</svg>
