<svg width="376" height="352" viewBox="0 0 376 352" fill="none" xmlns="http://www.w3.org/2000/svg">
<path fill-rule="evenodd" clip-rule="evenodd" d="M22.8079 55.7992C24.6525 60.027 23.7489 64.964 20.5497 68.1251C17.5163 71.1223 17.7826 76.2544 21.1222 78.9939C24.6356 81.8759 26.054 86.7153 24.6596 91.0786C23.3374 95.2159 25.8717 99.6695 30.0348 100.504C34.4126 101.382 37.8257 105.016 38.5554 109.58C39.2481 113.913 43.4731 116.663 47.5025 115.402C51.7437 114.074 56.3698 115.672 59.0545 119.391C61.6067 122.927 66.5509 123.341 69.5231 120.276C72.6559 117.045 77.4377 116.241 81.4621 118.265C85.289 120.19 89.8158 118.175 91.0529 114.009C92.3579 109.615 96.2003 106.592 100.644 106.457C104.866 106.33 107.941 102.353 107.161 98.0378C106.339 93.4887 108.359 88.9371 112.205 86.6737C115.854 84.5267 116.777 79.4964 114.156 76.0186C111.397 72.3576 111.131 67.3228 113.497 63.4478C115.74 59.7743 114.298 54.8379 110.434 52.9969C106.371 51.0609 103.883 46.6978 104.225 42.1004C104.549 37.7389 101.068 34.0281 96.8492 34.2481C92.4109 34.4795 88.2712 31.7857 86.5127 27.5205C84.842 23.4682 80.1195 21.8382 76.5142 24.0668C72.7166 26.4141 67.8722 26.0048 64.4174 23.0477C61.1321 20.2356 56.2547 21.0604 54.0875 24.7839C51.8019 28.7109 47.3606 30.6813 42.9999 29.7081C38.8549 28.783 34.941 31.8684 34.7054 36.2354C34.4569 40.8412 31.4374 44.7423 27.1681 45.9767C23.1156 47.1484 21.057 51.786 22.8079 55.7992ZM26.6678 44.1909C21.5716 45.6644 18.982 51.4981 21.1839 56.5449C22.7152 60.0545 21.9648 64.1515 19.3102 66.7744C15.4929 70.5462 15.8317 77.0002 20.0276 80.442C22.9455 82.8356 24.1219 86.8532 22.9649 90.4735C21.3012 95.6794 24.4907 101.275 29.7193 102.324C33.3555 103.053 36.1892 106.071 36.7948 109.859C37.6658 115.306 42.9753 118.762 48.0389 117.177C51.5602 116.075 55.4021 117.401 57.6316 120.49C60.8377 124.931 67.0509 125.455 70.7894 121.599C73.3892 118.918 77.3592 118.25 80.7019 119.931C85.5085 122.348 91.2021 119.82 92.7591 114.577C93.8418 110.931 97.0303 108.421 100.72 108.31C106.027 108.149 109.896 103.149 108.915 97.7199C108.233 93.9445 109.909 90.1674 113.101 88.289C117.691 85.5879 118.85 79.2601 115.556 74.8888C113.265 71.8489 113.045 67.6702 115.008 64.4551C117.831 59.8319 116.014 53.6267 111.16 51.3144C107.785 49.7063 105.72 46.0833 106.004 42.2681C106.412 36.782 102.036 32.1208 96.7356 32.3972C93.0497 32.5894 89.612 30.3521 88.152 26.8108C86.0525 21.7185 80.1187 19.6692 75.586 22.471C72.4338 24.4195 68.411 24.0803 65.5415 21.6242C61.4152 18.0924 55.2836 19.1244 52.5567 23.8098C50.6603 27.0681 46.9739 28.7048 43.3523 27.8965C38.1446 26.7342 33.2199 30.6112 32.9234 36.1067C32.7172 39.9285 30.2119 43.1662 26.6678 44.1909Z" fill="#E6C6AC"/>
<path d="M26.0515 58.1298C24.0852 53.6198 26.3997 48.4056 30.953 47.0878C34.1195 46.1713 36.3584 43.2772 36.5433 39.8616C36.8091 34.9501 41.2096 31.4842 45.8621 32.522C49.0975 33.2437 52.3912 31.7802 54.0861 28.8678C56.5232 24.6799 62.0015 23.7563 65.6873 26.912C68.2506 29.1066 71.8445 29.4089 74.6611 27.667C78.7112 25.1621 84.0122 26.9924 85.8871 31.5431C87.1909 34.7078 90.2618 36.7067 93.5548 36.5342C98.29 36.2862 102.199 40.4511 101.834 45.3543C101.579 48.764 103.424 52.0016 106.439 53.4381C110.775 55.5038 112.397 61.0492 109.874 65.1815C108.12 68.0553 108.315 71.7898 110.362 74.5063C113.305 78.4124 112.268 84.0678 108.167 86.4828C105.314 88.1622 103.816 91.5381 104.425 94.9122C105.301 99.7639 101.843 104.234 97.1019 104.378C93.8051 104.478 90.956 106.722 89.988 109.981C88.5961 114.667 83.5089 116.927 79.215 114.768C76.2288 113.266 72.6819 113.864 70.3587 116.261C67.018 119.707 61.4671 119.24 58.6035 115.272C56.6121 112.512 53.1799 111.327 50.0337 112.313C45.5096 113.731 40.7665 110.643 39.9894 105.775C39.4489 102.389 36.9178 99.6926 33.6693 99.0417C28.9982 98.1056 26.1496 93.1052 27.6368 88.4522C28.6712 85.2164 27.6208 81.626 25.0143 79.4874C21.2662 76.4122 20.9647 70.6441 24.3757 67.2725C26.7478 64.9278 27.419 61.2662 26.0515 58.1298Z" fill="#FCF298"/>
<path d="M87.3135 54.0401C88.0085 53.7816 88.648 53.7355 89.232 53.9016C89.8116 54.0557 90.3055 54.3374 90.7138 54.7469C91.122 55.1563 91.4295 55.6512 91.6361 56.2314C91.8385 56.7995 91.9122 57.3744 91.857 57.9562C91.8019 58.5379 91.6029 59.0842 91.2602 59.595C90.9131 60.0937 90.392 60.4722 89.697 60.7307C89.0251 60.9805 88.4051 61.0263 87.8371 60.8679C87.2647 60.6975 86.7744 60.4075 86.3662 59.9981C85.9696 59.5843 85.67 59.0934 85.4676 58.5252C85.261 57.945 85.1794 57.3662 85.2229 56.7888C85.278 56.207 85.4734 55.6689 85.8089 55.1746C86.1401 54.6681 86.6416 54.2899 87.3135 54.0401ZM89.9083 58.0649C89.89 57.8663 89.8407 57.6725 89.7602 57.4834C89.687 57.2779 89.5949 57.0931 89.484 56.929C89.3485 56.733 89.1979 56.5495 89.032 56.3784C88.8618 56.1953 88.6713 56.0471 88.4604 55.9339C88.329 55.8596 88.1787 55.8059 88.0095 55.773C87.8361 55.728 87.6784 55.7456 87.5364 55.8258C87.5016 55.8387 87.4538 55.8702 87.3929 55.9202C87.2986 56.0237 87.2361 56.1428 87.2053 56.2774C87.1862 56.4078 87.1865 56.5377 87.2064 56.6672C87.2247 56.8657 87.2704 57.0677 87.3436 57.2732C87.4241 57.4623 87.5198 57.6389 87.6307 57.803C87.7662 57.999 87.919 58.1886 88.0892 58.3717C88.255 58.5428 88.4434 58.6849 88.6543 58.7981C88.7857 58.8724 88.9382 58.9321 89.1116 58.9771C89.2808 59.01 89.4363 58.9864 89.5783 58.9062C89.6131 58.8933 89.6609 58.8618 89.7218 58.8118C89.8161 58.7083 89.8728 58.5914 89.892 58.4611C89.9227 58.3264 89.9282 58.1944 89.9083 58.0649ZM76.535 50.5741C77.23 50.3156 77.8695 50.2694 78.4534 50.4356C79.033 50.5896 79.527 50.8714 79.9352 51.2808C80.3434 51.6903 80.6509 52.1851 80.8576 52.7653C81.06 53.3334 81.1336 53.9084 81.0785 54.4901C81.0234 55.0719 80.8244 55.6182 80.4816 56.1289C80.1345 56.6276 79.6134 57.0062 78.9184 57.2646C78.2465 57.5145 77.6266 57.5602 77.0585 57.4019C76.4862 57.2314 75.9959 56.9415 75.5877 56.532C75.191 56.1183 74.8915 55.6273 74.6891 55.0592C74.4824 54.479 74.4008 53.9002 74.4444 53.3227C74.4995 52.741 74.6948 52.2029 75.0303 51.7085C75.3615 51.2021 75.8631 50.8239 76.535 50.5741ZM77.8584 55.3385C77.9898 55.4129 78.1422 55.4725 78.3157 55.5175C78.4848 55.5505 78.6404 55.5268 78.7824 55.4467C78.8171 55.4337 78.865 55.4023 78.9259 55.3522C79.0202 55.2487 79.0769 55.1318 79.0961 55.0015C79.1268 54.8668 79.1322 54.7348 79.1124 54.6053C79.0941 54.4067 79.0447 54.2129 78.9642 54.0238C78.891 53.8183 78.799 53.6335 78.688 53.4694C78.5526 53.2734 78.402 53.0899 78.2361 52.9188C78.0659 52.7357 77.8754 52.5875 77.6645 52.4743C77.5331 52.4 77.3828 52.3464 77.2136 52.3134C77.0402 52.2684 76.8824 52.286 76.7405 52.3662C76.7057 52.3791 76.6579 52.4106 76.597 52.4606C76.5027 52.5641 76.4402 52.6832 76.4094 52.8178C76.3902 52.9482 76.3906 53.0781 76.4105 53.2076C76.4288 53.4061 76.4745 53.6081 76.5477 53.8136C76.6282 54.0027 76.7239 54.1793 76.8348 54.3434C76.9702 54.5394 77.1231 54.729 77.2932 54.9121C77.4591 55.0832 77.6475 55.2253 77.8584 55.3385ZM85.5324 47.6594C85.5887 47.7069 85.6102 47.7674 85.597 47.8407L83.1669 62.7278C83.1537 62.8012 83.1123 62.8508 83.0428 62.8766L81.2357 63.5486C81.1662 63.5745 81.1033 63.5636 81.047 63.5161C80.9908 63.4686 80.9692 63.4082 80.9824 63.3348L83.4125 48.4477C83.4257 48.3744 83.4671 48.3247 83.5366 48.2989L85.3437 47.6269C85.4132 47.601 85.4761 47.6119 85.5324 47.6594Z" fill="#BE046A"/>
<path d="M66.0886 54.3139C67.1195 53.9305 68.092 53.7879 69.0059 53.8861C69.927 53.9679 70.7544 54.2283 71.488 54.6673C72.2289 55.0899 72.8689 55.6528 73.4079 56.3558C73.9585 57.0545 74.3824 57.8208 74.6795 58.6548C74.9723 59.4768 75.1276 60.3362 75.1454 61.233C75.1747 62.1256 75.0407 62.983 74.7434 63.8054C74.4533 64.6114 73.9891 65.3521 73.3508 66.0275C72.7082 66.6908 71.8714 67.2142 70.8404 67.5976C69.8327 67.9723 68.8855 68.1123 67.9991 68.0176C67.1084 67.9108 66.2984 67.644 65.5691 67.217C64.8471 66.7737 64.2166 66.2006 63.6775 65.4976C63.1501 64.7902 62.7399 64.0256 62.4471 63.2037C62.15 62.3696 61.981 61.5085 61.94 60.6203C61.9107 59.7278 62.0353 58.8806 62.3137 58.079C62.5995 57.2609 63.0521 56.5245 63.6716 55.8698C64.2867 55.203 65.0982 54.6822 66.106 54.3075L66.0886 54.3139ZM68.6304 64.9288C69.0203 65.1397 69.4517 65.301 69.9243 65.4127C70.4086 65.52 70.8622 65.4677 71.2852 65.2557C71.4662 65.1747 71.6264 65.0535 71.7657 64.8922C72.0298 64.6023 72.1985 64.2658 72.2719 63.8826C72.3409 63.4874 72.3594 63.0972 72.3272 62.7122C72.2737 62.1572 72.1486 61.6219 71.9519 61.1065C71.7509 60.5789 71.502 60.0829 71.2053 59.6183C70.8669 59.0734 70.4633 58.5664 69.9945 58.0974C69.5213 57.6162 69.0003 57.2214 68.4312 56.9128C68.0412 56.702 67.6041 56.5428 67.1199 56.4354C66.6472 56.3238 66.1993 56.3739 65.7764 56.586C65.5954 56.667 65.4352 56.7881 65.2959 56.9495C65.0318 57.2393 64.8652 57.5819 64.7962 57.9771C64.7228 58.3603 64.7022 58.7444 64.7344 59.1294C64.7878 59.6845 64.9151 60.2258 65.1161 60.7533C65.3129 61.2688 65.5596 61.7588 65.8563 62.2234C66.1947 62.7683 66.6005 63.2813 67.0736 63.7624C67.5424 64.2314 68.0613 64.6202 68.6304 64.9288Z" fill="#BE046A"/>
<path d="M52.7346 59.2807C53.7655 58.8973 54.738 58.7547 55.6519 58.8529C56.573 58.9347 57.4004 59.1951 58.134 59.6341C58.8749 60.0567 59.5148 60.6196 60.0539 61.3226C60.6045 62.0212 61.0284 62.7876 61.3255 63.6216C61.6183 64.4436 61.7736 65.303 61.7914 66.1998C61.8207 67.0924 61.6867 67.9498 61.3894 68.7722C61.0993 69.5782 60.6351 70.3189 59.9968 70.9943C59.3542 71.6576 58.5174 72.181 57.4864 72.5644C56.4786 72.9391 55.5315 73.0791 54.6451 72.9844C53.7544 72.8776 52.9444 72.6108 52.2151 72.1838C51.4931 71.7405 50.8626 71.1674 50.3235 70.4644C49.7961 69.757 49.3859 68.9924 49.0931 68.1705C48.796 67.3364 48.627 66.4753 48.586 65.5871C48.5567 64.6945 48.6812 63.8474 48.9597 63.0458C49.2455 62.2277 49.6981 61.4913 50.3176 60.8366C50.9327 60.1698 51.7442 59.649 52.752 59.2742L52.7346 59.2807ZM55.2764 69.8956C55.6663 70.1065 56.0977 70.2678 56.5703 70.3795C57.0546 70.4868 57.5082 70.4345 57.9312 70.2225C58.1122 70.1415 58.2724 70.0203 58.4117 69.859C58.6757 69.5691 58.8445 69.2326 58.9179 68.8494C58.9869 68.4542 59.0054 68.064 58.9732 67.679C58.9197 67.124 58.7946 66.5887 58.5979 66.0733C58.3969 65.5457 58.148 65.0497 57.8513 64.5851C57.5129 64.0402 57.1093 63.5332 56.6405 63.0642C56.1673 62.583 55.6463 62.1882 55.0772 61.8796C54.6872 61.6688 54.2501 61.5096 53.7658 61.4022C53.2932 61.2906 52.8453 61.3407 52.4224 61.5528C52.2413 61.6338 52.0812 61.7549 51.9419 61.9163C51.6778 62.2061 51.5112 62.5487 51.4422 62.9439C51.3688 63.3271 51.3482 63.7112 51.3804 64.0962C51.4338 64.6513 51.5611 65.1926 51.7621 65.7201C51.9589 66.2356 52.2056 66.7256 52.5023 67.1902C52.8407 67.7351 53.2464 68.2481 53.7196 68.7292C54.1884 69.1982 54.7073 69.587 55.2764 69.8956Z" fill="#BE046A"/>
<path d="M49.2811 73.6441L50.2023 74.7388C50.247 74.7906 50.2606 74.8472 50.2431 74.9085C50.2299 74.9818 50.1885 75.0314 50.119 75.0573L46.2616 76.4917C46.1921 76.5175 46.1293 76.5067 46.073 76.4592C46.021 76.4238 45.9958 76.3715 45.9975 76.3025L46.0145 74.8588L43.0369 66.5004L41.9075 66.9204C41.8264 66.9505 41.7555 66.9358 41.6949 66.8762C41.6344 66.8166 41.6223 66.7458 41.6586 66.6639L43.0584 63.4124C43.0802 63.3632 43.1143 63.33 43.1607 63.3128L45.07 62.5412C45.1279 62.5197 45.1807 62.5206 45.2284 62.5439C45.276 62.5672 45.3085 62.6031 45.3257 62.6514L49.2463 73.657L49.2811 73.6441Z" fill="#BE046A"/>
<path d="M95.352 76.5007C94.8468 76.6867 94.3601 76.7416 93.8917 76.6652C93.4233 76.5888 93.0075 76.3919 92.6444 76.0746C92.2813 75.7572 92.0075 75.337 91.8229 74.8139C91.6359 74.284 91.5774 73.7728 91.6472 73.2805C91.7238 72.7857 91.914 72.354 92.2178 71.9855C92.5259 71.6076 92.9427 71.322 93.4681 71.1285C93.9598 70.9474 94.4331 70.8976 94.888 70.9789C95.3429 71.0603 95.7428 71.2552 96.0875 71.5638C96.4366 71.863 96.6937 72.2466 96.8589 72.7146C96.8856 72.7903 96.9101 72.8707 96.9325 72.9557C96.9617 73.0383 96.9887 73.1256 97.0135 73.2176L93.2044 74.6202C93.3722 75.0094 93.6174 75.273 93.94 75.4108C94.2694 75.5462 94.6092 75.5494 94.9595 75.4204C95.2221 75.3237 95.4204 75.1846 95.5543 75.0031C95.6924 74.8122 95.7713 74.6043 95.7909 74.3794L97.1043 73.8957C97.1242 74.2539 97.0703 74.6082 96.9427 74.9584C96.8195 75.2993 96.6229 75.605 96.353 75.8755C96.0898 76.1435 95.7562 76.3519 95.352 76.5007ZM93.8469 72.2022C93.5303 72.3188 93.2835 72.5146 93.1066 72.7897C92.9273 73.058 92.8695 73.3903 92.9332 73.7868L95.4288 72.8679C95.2897 72.5381 95.0737 72.3143 94.781 72.1965C94.4883 72.0788 94.1769 72.0807 93.8469 72.2022Z" fill="#BE046A"/>
<path d="M89.3144 78.7243C88.8092 78.9104 88.3225 78.9652 87.8541 78.8888C87.3857 78.8124 86.9699 78.6155 86.6068 78.2982C86.2437 77.9808 85.9699 77.5606 85.7853 77.0376C85.5983 76.5076 85.5398 75.9964 85.6096 75.5041C85.6862 75.0093 85.8764 74.5776 86.1802 74.2091C86.4883 73.8313 86.9051 73.5456 87.4305 73.3521C87.9222 73.1711 88.3955 73.1212 88.8504 73.2026C89.3053 73.2839 89.7051 73.4789 90.0499 73.7874C90.399 74.0866 90.6562 74.4702 90.8213 74.9382C90.848 75.0139 90.8725 75.0943 90.8949 75.1794C90.9241 75.262 90.9511 75.3492 90.9759 75.4412L87.1668 76.8438C87.3346 77.2331 87.5798 77.4966 87.9024 77.6345C88.2318 77.7698 88.5716 77.773 88.9219 77.644C89.1846 77.5473 89.3828 77.4082 89.5167 77.2267C89.6548 77.0359 89.7337 76.8279 89.7533 76.603L91.0667 76.1193C91.0866 76.4775 91.0327 76.8318 90.9051 77.1821C90.7818 77.523 90.5853 77.8287 90.3154 78.0991C90.0522 78.3671 89.7186 78.5755 89.3144 78.7243ZM87.8093 74.4258C87.4927 74.5424 87.2459 74.7383 87.069 75.0134C86.8897 75.2816 86.8319 75.614 86.8956 76.0104L89.3912 75.0915C89.2521 74.7617 89.0361 74.5379 88.7434 74.4202C88.4507 74.3024 88.1393 74.3043 87.8093 74.4258Z" fill="#BE046A"/>
<path d="M82.9182 80.9392L81.1116 75.8185L82.2634 75.3943L82.7234 76.3098C82.7887 75.9125 82.9423 75.5604 83.1841 75.2536C83.4303 74.9374 83.7655 74.7012 84.1899 74.545L84.6816 75.9387L84.3179 76.0726C84.035 76.1768 83.7982 76.3146 83.6075 76.4859C83.4168 76.6572 83.2963 76.8766 83.246 77.1439C83.2024 77.4088 83.2499 77.7374 83.3883 78.1297L84.2115 80.463L82.9182 80.9392Z" fill="#BE046A"/>
<path d="M77.3837 82.9775L74.834 75.7507L79.4008 74.0691L79.776 75.1325L76.5024 76.3379L77.2163 78.3614L79.8635 77.3866L80.2314 78.4294L77.5842 79.4041L78.6769 82.5013L77.3837 82.9775Z" fill="#BE046A"/>
<path d="M68.7986 86.1386L66.992 81.0179L68.1337 80.5975L68.5407 81.4275C68.5887 81.0677 68.726 80.7449 68.9525 80.4593C69.1858 80.1712 69.5011 79.954 69.8985 79.8077C70.5182 79.5795 71.0702 79.6017 71.5546 79.8744C72.0389 80.1471 72.4171 80.6689 72.6891 81.4398L73.709 84.3305L72.4157 84.8067L71.4395 82.0399C71.2841 81.5994 71.0776 81.2944 70.8199 81.1249C70.5622 80.9553 70.2481 80.9388 69.8776 81.0752C69.5139 81.2091 69.2603 81.4503 69.1168 81.7986C68.9801 82.1445 68.9943 82.5515 69.1594 83.0195L70.0918 85.6624L68.7986 86.1386Z" fill="#BE046A"/>
<path d="M64.7153 80.958C64.4796 81.0448 64.2587 81.0445 64.0528 80.957C63.8536 80.867 63.7152 80.7119 63.6375 80.4917C63.5598 80.2714 63.5707 80.0652 63.6704 79.873C63.7743 79.6714 63.9441 79.5272 64.1799 79.4404C64.4156 79.3536 64.6331 79.3552 64.8323 79.4451C65.0358 79.5258 65.1764 79.6762 65.2541 79.8964C65.3318 80.1167 65.3187 80.3276 65.2147 80.5292C65.1175 80.7283 64.9511 80.8712 64.7153 80.958ZM66.1558 87.1118L64.3491 81.9911L65.6424 81.5149L67.449 86.6356L66.1558 87.1118Z" fill="#BE046A"/>
<path d="M59.9668 89.391L60.8821 86.1609L58.1602 84.2703L59.5444 83.7606L61.4585 85.1088L62.0804 82.8267L63.4747 82.3133L62.5492 85.5471L65.2813 87.434L63.887 87.9474L61.983 86.5955L61.351 88.8813L59.9668 89.391Z" fill="#BE046A"/>
<path d="M57.0287 90.6125C56.5438 90.791 56.0659 90.8387 55.5951 90.7554C55.131 90.6697 54.714 90.4694 54.3442 90.1545C53.9786 89.8303 53.7024 89.4032 53.5154 88.8732C53.3284 88.3432 53.279 87.8365 53.3672 87.353C53.4529 86.8626 53.6477 86.4331 53.9515 86.0646C54.2621 85.6936 54.6598 85.4188 55.1448 85.2403C55.623 85.0642 56.0942 85.019 56.5582 85.1047C57.0291 85.188 57.4472 85.3918 57.8128 85.716C58.1826 86.0308 58.4611 86.4533 58.648 86.9832C58.835 87.5132 58.8856 88.0234 58.7999 88.5138C58.7184 88.9948 58.5224 89.4208 58.2119 89.7918C57.9014 90.1628 57.507 90.4364 57.0287 90.6125ZM56.6244 89.4665C56.9612 89.3425 57.2093 89.1073 57.3687 88.7608C57.5256 88.4075 57.5143 87.9762 57.3346 87.4669C57.1549 86.9576 56.8955 86.6215 56.5564 86.4586C56.2149 86.2888 55.8791 86.2647 55.5491 86.3862C55.2056 86.5127 54.9553 86.7526 54.7984 87.1059C54.6457 87.4499 54.6593 87.8765 54.839 88.3858C55.0187 88.8951 55.2759 89.2359 55.6106 89.4082C55.9497 89.5711 56.2876 89.5905 56.6244 89.4665Z" fill="#BE046A"/>
<path d="M51.1963 92.6204L49.0218 86.457L46.9606 87.216L46.5854 86.1526L52.0111 84.1547L52.3863 85.2181L50.315 85.9808L52.4895 92.1442L51.1963 92.6204Z" fill="#BE046A"/>
<path fill-rule="evenodd" clip-rule="evenodd" d="M35.5935 244.506C34.5875 248.041 31.4661 250.557 27.7993 250.788C24.3226 251.006 21.8454 254.257 22.5586 257.677C23.3089 261.276 21.7161 264.956 18.5782 266.866C15.6029 268.678 14.9194 272.712 17.139 275.412C19.4732 278.251 19.772 282.252 17.8828 285.402C16.0893 288.394 17.3602 292.287 20.5758 293.646C23.9604 295.076 26.0812 298.482 25.8723 302.151C25.6738 305.638 28.6076 308.495 32.0805 308.203C35.7411 307.895 39.1995 309.927 40.7176 313.275C42.1613 316.458 46.0818 317.622 49.0177 315.749C52.1147 313.773 56.12 313.965 59.0182 316.225C61.7714 318.372 65.7797 317.582 67.5087 314.555C69.3313 311.364 72.9648 309.67 76.5805 310.325C80.0104 310.946 83.1923 308.383 83.3172 304.894C83.4488 301.221 85.8763 298.029 89.3807 296.927C92.7029 295.882 94.331 292.131 92.8207 288.979C91.2324 285.664 91.8984 281.708 94.4872 279.102C96.9431 276.629 96.641 272.546 93.8416 270.456C90.8969 268.258 89.6509 264.444 90.7311 260.932C91.7573 257.595 89.5916 254.119 86.1472 253.57C82.5192 252.992 79.6464 250.191 78.9721 246.579C78.3309 243.143 74.8007 241.073 71.5008 242.188C68.0206 243.364 64.1772 242.218 61.9031 239.331C59.7415 236.586 55.6588 236.394 53.2567 238.917C50.7232 241.578 46.7892 242.351 43.4348 240.85C40.2507 239.425 36.5486 241.151 35.5935 244.506ZM44.0373 239.504C40.0332 237.712 35.3762 239.883 34.1752 244.103C33.34 247.037 30.7494 249.125 27.7068 249.316C23.3317 249.591 20.2189 253.681 21.115 257.979C21.7381 260.967 20.415 264.022 17.8114 265.607C14.0676 267.886 13.2122 272.958 15.9999 276.349C17.9386 278.706 18.1862 282.029 16.618 284.644C14.3631 288.405 15.961 293.297 20.0019 295.004C22.812 296.192 24.5735 299.02 24.4 302.067C24.1506 306.448 27.8357 310.039 32.204 309.672C35.2418 309.417 38.1136 311.104 39.3746 313.884C41.1878 317.882 46.116 319.349 49.8109 316.992C52.3805 315.352 55.7048 315.511 58.1113 317.388C61.5718 320.086 66.614 319.094 68.7892 315.287C70.3018 312.639 73.317 311.233 76.3178 311.776C80.6328 312.557 84.634 309.332 84.791 304.947C84.9002 301.897 86.9156 299.248 89.8232 298.334C94.0042 297.019 96.0476 292.3 94.1506 288.341C92.8313 285.588 93.3852 282.304 95.5335 280.141C98.6227 277.031 98.2403 271.9 94.7238 269.274C92.2783 267.449 91.2438 264.281 92.1406 261.366C93.4303 257.173 90.7097 252.804 86.3793 252.114C83.3678 251.634 80.9818 249.309 80.4218 246.308C79.6165 241.993 75.1809 239.388 71.0287 240.791C68.1411 241.767 64.9503 240.817 63.0617 238.418C60.3459 234.97 55.2115 234.725 52.1886 237.9C50.0865 240.108 46.8219 240.75 44.0373 239.504Z" fill="#A4D792"/>
<path d="M36.4566 247.628C37.5307 243.858 41.6932 241.917 45.2714 243.517C47.7598 244.63 50.6776 244.056 52.5568 242.083C55.2589 239.246 59.8476 239.464 62.2741 242.544C63.9616 244.686 66.8131 245.535 69.394 244.662C73.1052 243.408 77.0689 245.735 77.7878 249.59C78.2878 252.27 80.4197 254.347 83.1111 254.776C86.9811 255.391 89.4118 259.294 88.2584 263.04C87.4564 265.645 88.3804 268.475 90.5656 270.106C93.7079 272.45 94.0487 277.035 91.2873 279.814C89.367 281.747 88.8714 284.681 90.0499 287.14C91.7446 290.677 89.9175 294.893 86.1806 296.069C83.5819 296.886 81.7802 299.253 81.682 301.978C81.5409 305.896 77.9644 308.778 74.1081 308.08C71.4264 307.596 68.7314 308.852 67.379 311.218C65.4344 314.621 60.9278 315.508 57.8356 313.097C55.6852 311.421 52.7142 311.28 50.4175 312.745C47.1148 314.852 42.7107 313.542 41.0908 309.97C39.9644 307.487 37.3981 305.98 34.6831 306.209C30.779 306.538 27.4862 303.33 27.7099 299.416C27.8654 296.694 26.2917 294.167 23.7804 293.107C20.1693 291.582 18.7422 287.212 20.7581 283.851C22.1601 281.514 21.9394 278.546 20.2072 276.44C17.7163 273.411 18.4817 268.879 21.8281 266.843C24.1553 265.426 25.3383 262.697 24.7819 260.027C23.9819 256.188 26.7646 252.533 30.6748 252.286C33.394 252.115 35.7097 250.249 36.4566 247.628Z" fill="#FCF298"/>
<path d="M28.9422 268.01L34.2209 261.738L35.7091 262.28L35.7217 270.477L34.3162 269.966L34.3468 268.081L31.5255 267.054L30.327 268.514L28.9422 268.01ZM32.2633 266.152L34.3613 266.916L34.4017 263.525L32.2633 266.152ZM38.8465 271.755C38.3229 271.564 37.9027 271.283 37.5858 270.91C37.269 270.537 37.0674 270.105 36.9811 269.613C36.9017 269.124 36.9573 268.617 37.1479 268.094C37.3384 267.57 37.6214 267.147 37.9967 266.823C38.3789 266.502 38.8112 266.3 39.2935 266.218C39.7759 266.136 40.2789 266.19 40.8025 266.381C41.457 266.619 41.9455 266.992 42.268 267.5C42.5929 268 42.7083 268.573 42.6142 269.217L41.219 268.71C41.2404 268.436 41.1728 268.193 41.0163 267.98C40.8691 267.763 40.6578 267.604 40.3822 267.504C40.017 267.371 39.6568 267.396 39.3016 267.579C38.9464 267.761 38.6797 268.097 38.5017 268.587C38.3236 269.076 38.3119 269.505 38.4665 269.873C38.6212 270.241 38.881 270.492 39.2462 270.625C39.5218 270.725 39.7846 270.743 40.0345 270.678C40.2914 270.615 40.5006 270.469 40.6623 270.239L42.0575 270.747C41.7228 271.28 41.2676 271.641 40.6919 271.83C40.1162 272.018 39.501 271.993 38.8465 271.755ZM45.0432 274.01C44.5196 273.82 44.0994 273.538 43.7825 273.165C43.4657 272.793 43.2641 272.36 43.1778 271.869C43.0984 271.379 43.154 270.873 43.3446 270.349C43.5351 269.826 43.8181 269.402 44.1934 269.078C44.5756 268.757 45.0079 268.555 45.4902 268.473C45.9726 268.392 46.4756 268.446 46.9992 268.636C47.6537 268.875 48.1422 269.248 48.4647 269.755C48.7896 270.256 48.905 270.828 48.8109 271.473L47.4157 270.965C47.4371 270.692 47.3695 270.449 47.213 270.236C47.0658 270.018 46.8545 269.859 46.5789 269.759C46.2137 269.626 45.8535 269.651 45.4983 269.834C45.1431 270.017 44.8764 270.353 44.6984 270.842C44.5203 271.331 44.5086 271.76 44.6632 272.128C44.8179 272.497 45.0777 272.747 45.4429 272.88C45.7185 272.981 45.9813 272.998 46.2312 272.933C46.4881 272.871 46.6973 272.724 46.859 272.494L48.2542 273.002C47.9195 273.536 47.4643 273.897 46.8886 274.085C46.3129 274.274 45.6978 274.249 45.0432 274.01ZM51.2193 276.258C50.7025 276.07 50.2845 275.793 49.9651 275.427C49.6458 275.061 49.4451 274.637 49.3632 274.155C49.2813 273.673 49.3356 273.17 49.5262 272.646C49.7193 272.115 50.0013 271.684 50.3723 271.351C50.7501 271.02 51.1767 270.812 51.6522 270.728C52.137 270.639 52.6482 270.693 53.1856 270.888C53.6885 271.071 54.0928 271.343 54.3984 271.704C54.7039 272.065 54.8933 272.477 54.9665 272.941C55.049 273.4 55.005 273.864 54.8345 274.332C54.8069 274.408 54.7746 274.486 54.7377 274.566C54.7076 274.649 54.6728 274.734 54.6333 274.821L50.7372 273.403C50.6193 273.812 50.643 274.176 50.8082 274.494C50.9804 274.814 51.2456 275.039 51.6039 275.169C51.8726 275.267 52.1178 275.29 52.3396 275.238C52.5707 275.182 52.7662 275.074 52.926 274.913L54.2695 275.402C54.0552 275.691 53.7854 275.928 53.4603 276.114C53.1445 276.296 52.7937 276.402 52.4078 276.433C52.0288 276.467 51.6326 276.409 51.2193 276.258ZM52.7944 271.963C52.4706 271.845 52.1508 271.834 51.8351 271.93C51.5218 272.019 51.2631 272.237 51.0587 272.583L53.6114 273.513C53.7136 273.167 53.6874 272.854 53.5327 272.571C53.3781 272.289 53.132 272.086 52.7944 271.963ZM57.0237 278.371C56.569 278.206 56.1957 277.988 55.9039 277.718C55.6146 277.441 55.4142 277.134 55.3028 276.797C55.1914 276.46 55.1778 276.111 55.2618 275.752L56.595 276.237C56.5636 276.452 56.6111 276.664 56.7376 276.874C56.8735 277.08 57.0861 277.235 57.3755 277.34C57.6648 277.446 57.8963 277.464 58.0698 277.394C58.2502 277.327 58.368 277.218 58.4232 277.066C58.5034 276.846 58.4609 276.663 58.2956 276.517C58.1328 276.364 57.8929 276.187 57.576 275.986C57.3731 275.857 57.1705 275.717 56.9682 275.565C56.7659 275.414 56.5871 275.251 56.4318 275.078C56.2859 274.9 56.1845 274.707 56.1276 274.499C56.0731 274.284 56.0911 274.052 56.1813 273.804C56.3468 273.35 56.6651 273.032 57.1363 272.853C57.6143 272.676 58.1805 272.706 58.835 272.944C59.4413 273.165 59.8722 273.482 60.1277 273.895C60.39 274.31 60.4653 274.778 60.3537 275.299L59.1032 274.844C59.1653 274.438 58.9484 274.144 58.4523 273.964C58.2043 273.873 57.9938 273.851 57.8209 273.898C57.6549 273.947 57.5456 274.043 57.4929 274.188C57.4377 274.34 57.4938 274.497 57.661 274.659C57.8282 274.821 58.0633 275 58.3664 275.196C58.6946 275.41 58.988 275.622 59.2467 275.833C59.5147 276.04 59.7019 276.276 59.8083 276.541C59.9173 276.799 59.9053 277.11 59.7724 277.475C59.6639 277.795 59.4772 278.051 59.2121 278.243C58.9471 278.435 58.6263 278.545 58.2499 278.572C57.8734 278.598 57.4647 278.532 57.0237 278.371ZM62.4534 280.347C61.9987 280.182 61.6254 279.964 61.3336 279.694C61.0443 279.417 60.8439 279.11 60.7325 278.773C60.6211 278.436 60.6075 278.088 60.6915 277.728L62.0247 278.213C61.9933 278.428 62.0408 278.64 62.1673 278.85C62.3032 279.056 62.5158 279.211 62.8051 279.317C63.0945 279.422 63.326 279.44 63.4995 279.37C63.6799 279.303 63.7977 279.194 63.8529 279.043C63.9331 278.822 63.8906 278.639 63.7253 278.493C63.5624 278.34 63.3226 278.163 63.0057 277.962C62.8028 277.833 62.6002 277.693 62.3979 277.542C62.1956 277.39 62.0168 277.227 61.8615 277.054C61.7156 276.876 61.6142 276.683 61.5572 276.475C61.5028 276.26 61.5207 276.029 61.611 275.781C61.7765 275.326 62.0948 275.009 62.5659 274.829C63.0439 274.652 63.6102 274.682 64.2647 274.921C64.871 275.141 65.3019 275.458 65.5573 275.871C65.8197 276.286 65.895 276.755 65.7834 277.276L64.5329 276.821C64.595 276.414 64.3781 276.121 63.882 275.94C63.634 275.85 63.4235 275.828 63.2506 275.874C63.0846 275.923 62.9753 276.02 62.9226 276.164C62.8674 276.316 62.9234 276.473 63.0906 276.635C63.2578 276.797 63.493 276.977 63.7961 277.173C64.1243 277.386 64.4177 277.598 64.6764 277.809C64.9444 278.016 65.1316 278.252 65.238 278.517C65.3469 278.775 65.335 279.087 65.202 279.452C65.0936 279.771 64.9068 280.027 64.6418 280.219C64.3768 280.411 64.056 280.521 63.6796 280.548C63.3031 280.575 62.8944 280.508 62.4534 280.347ZM68.6781 275.766C68.4369 275.678 68.2635 275.533 68.1577 275.331C68.0588 275.131 68.0494 274.921 68.1297 274.701C68.2099 274.48 68.3509 274.328 68.5526 274.246C68.7638 274.159 68.9899 274.159 69.231 274.247C69.4722 274.335 69.6422 274.479 69.7411 274.678C69.8494 274.874 69.8634 275.082 69.7832 275.302C69.703 275.523 69.5573 275.677 69.3461 275.764C69.1419 275.853 68.9192 275.854 68.6781 275.766ZM65.8613 281.447L67.727 276.321L69.0499 276.803L67.1842 281.929L65.8613 281.447ZM71.5581 283.661C71.1723 283.521 70.861 283.325 70.6243 283.075C70.3876 282.825 70.2273 282.537 70.1435 282.21L69.743 282.86L68.5649 282.431L71.2732 274.99L72.596 275.472L71.4863 278.52C71.7344 278.353 72.0242 278.232 72.3556 278.158C72.6939 278.086 73.08 278.129 73.5141 278.287C73.9964 278.463 74.3843 278.736 74.678 279.109C74.9717 279.481 75.1548 279.91 75.2273 280.397C75.2998 280.884 75.242 281.385 75.054 281.902C74.8659 282.419 74.5876 282.84 74.2192 283.167C73.8533 283.486 73.4382 283.694 72.9741 283.79C72.5124 283.88 72.0404 283.837 71.5581 283.661ZM71.7004 282.402C72.1206 282.555 72.52 282.54 72.8984 282.358C73.2768 282.176 73.5475 281.861 73.7105 281.413C73.8735 280.965 73.8698 280.547 73.6996 280.157C73.5293 279.767 73.234 279.496 72.8138 279.343C72.3866 279.188 71.9826 279.204 71.6016 279.393C71.2301 279.578 70.9629 279.894 70.7999 280.342C70.6369 280.79 70.6371 281.208 70.8005 281.595C70.9732 281.977 71.2732 282.247 71.7004 282.402ZM75.3066 284.885L78.0148 277.444L79.3377 277.926L76.6294 285.366L75.3066 284.885ZM80.4265 286.889C79.9098 286.701 79.4918 286.424 79.1724 286.058C78.853 285.692 78.6524 285.268 78.5705 284.786C78.4886 284.303 78.5429 283.8 78.7335 283.277C78.9266 282.746 79.2086 282.314 79.5795 281.981C79.9573 281.65 80.384 281.443 80.8595 281.359C81.3443 281.27 81.8554 281.323 82.3928 281.519C82.8958 281.702 83.3001 281.974 83.6056 282.335C83.9112 282.696 84.1006 283.108 84.1737 283.571C84.2563 284.031 84.2123 284.494 84.0418 284.963C84.0142 285.039 83.9819 285.117 83.9449 285.197C83.9148 285.279 83.88 285.364 83.8406 285.451L79.9444 284.033C79.8265 284.443 79.8502 284.807 80.0155 285.124C80.1877 285.444 80.4529 285.67 80.8112 285.8C81.0799 285.898 81.3251 285.921 81.5469 285.869C81.778 285.813 81.9735 285.704 82.1333 285.544L83.4768 286.033C83.2624 286.322 82.9927 286.559 82.6675 286.745C82.3518 286.926 82.001 287.033 81.6151 287.064C81.2361 287.098 80.8399 287.039 80.4265 286.889ZM82.0017 282.594C81.6778 282.476 81.3581 282.465 81.0423 282.56C80.7291 282.649 80.4703 282.867 80.266 283.214L82.8187 284.143C82.9209 283.798 82.8946 283.484 82.74 283.202C82.5854 282.919 82.3392 282.716 82.0017 282.594ZM36.5894 285.689L39.2225 278.454L43.8937 280.155L43.5063 281.219L40.1579 280L39.4206 282.026L42.1283 283.012L41.7484 284.055L39.0407 283.07L37.9123 286.17L36.5894 285.689ZM44.3925 288.669C43.8965 288.489 43.49 288.212 43.1732 287.839C42.8632 287.469 42.6638 287.041 42.575 286.556C42.4956 286.067 42.5524 285.557 42.7455 285.027C42.9386 284.496 43.225 284.074 43.6047 283.76C43.9869 283.438 44.4157 283.235 44.8912 283.151C45.3736 283.069 45.8628 283.118 46.3588 283.299C46.848 283.477 47.2476 283.751 47.5575 284.122C47.8744 284.494 48.0725 284.925 48.1519 285.415C48.2407 285.899 48.1886 286.407 47.9955 286.938C47.8024 287.468 47.5148 287.894 47.1326 288.215C46.7598 288.532 46.3322 288.732 45.8498 288.813C45.3675 288.895 44.8817 288.847 44.3925 288.669ZM44.8101 287.522C45.1545 287.647 45.5006 287.629 45.8483 287.467C46.1985 287.298 46.4664 286.959 46.652 286.449C46.8376 285.939 46.8493 285.51 46.6871 285.162C46.5275 284.808 46.2789 284.569 45.9413 284.446C45.5899 284.318 45.2391 284.339 44.8889 284.508C44.5481 284.672 44.2849 285.01 44.0994 285.52C43.9138 286.029 43.8974 286.46 44.0501 286.812C44.2123 287.16 44.4656 287.397 44.8101 287.522ZM48.2454 289.931L50.1111 284.805L51.2892 285.234L51.0634 286.24C51.3698 285.977 51.7166 285.807 52.1037 285.729C52.5003 285.647 52.9156 285.685 53.3496 285.843L52.8418 287.239L52.4698 287.103C52.1804 286.998 51.9057 286.949 51.6458 286.955C51.3858 286.962 51.1503 287.052 50.9391 287.225C50.7348 287.4 50.5612 287.684 50.4183 288.077L49.5682 290.413L48.2454 289.931ZM54.3714 292.161L59.6501 285.89L61.1382 286.431L61.1508 294.628L59.7453 294.117L59.776 292.232L56.9546 291.205L55.7562 292.665L54.3714 292.161ZM57.6925 290.303L59.7904 291.067L59.8309 287.676L57.6925 290.303ZM62.0517 294.956L64.76 287.515L66.0828 287.997L63.3746 295.438L62.0517 294.956ZM64.7262 295.93L67.4345 288.489L68.7573 288.97L66.049 296.411L64.7262 295.93Z" fill="#BE046A"/>
<path fill-rule="evenodd" clip-rule="evenodd" d="M258.901 60.7506C261.234 64.3989 260.849 69.1934 257.938 72.7212C255.178 76.066 256.004 80.8394 259.697 82.8287C263.581 84.9215 265.547 89.2187 264.601 93.5602C263.705 97.6768 266.764 101.417 271.087 101.473C275.634 101.533 279.498 104.349 280.734 108.508C281.907 112.456 286.501 114.301 290.462 112.413C294.631 110.425 299.508 111.117 302.641 114.141C305.619 117.015 310.691 116.54 313.382 113.142C316.218 109.56 320.994 107.97 325.305 109.168C329.405 110.307 333.79 107.624 334.598 103.495C335.449 99.1404 339.029 95.6295 343.534 94.7269C347.813 93.8696 350.509 89.5974 349.249 85.681C347.921 81.5523 349.483 76.9245 353.149 74.1268C356.627 71.4729 357.022 66.5874 353.98 63.7791C350.778 60.8229 349.963 56.1408 351.949 52.0882C353.833 48.2463 351.833 43.862 347.704 42.8082C343.363 41.6999 340.36 38.0371 340.21 33.6596C340.069 29.5066 336.127 26.6297 331.861 27.5736C327.373 28.5664 322.871 26.7598 320.622 23.0613C318.484 19.5474 313.506 18.8418 310.081 21.5647C306.473 24.4328 301.502 24.8948 297.669 22.7212C294.024 20.6542 289.154 22.281 287.353 26.1567C285.453 30.2442 281.15 32.8707 276.611 32.7186C272.295 32.574 268.649 36.1556 268.882 40.2981C269.128 44.6671 266.48 48.8585 262.272 50.7637C258.278 52.5722 256.686 57.2874 258.901 60.7506ZM261.57 49.174C256.547 51.4483 254.545 57.3796 257.33 61.7346C259.267 64.7632 258.947 68.742 256.532 71.6692C253.058 75.8785 254.101 81.8807 258.74 84.38C261.966 86.1181 263.597 89.6858 262.813 93.2881C261.684 98.468 265.533 103.166 270.963 103.237C274.74 103.287 277.948 105.626 278.974 109.078C280.449 114.042 286.222 116.359 291.2 113.986C294.661 112.335 298.712 112.91 301.313 115.421C305.054 119.032 311.429 118.438 314.813 114.164C317.167 111.192 321.131 109.87 324.712 110.865C329.862 112.296 335.378 108.927 336.394 103.731C337.1 100.117 340.071 97.2028 343.812 96.4533C349.19 95.3757 352.584 90.0032 350.999 85.076C349.896 81.6495 351.192 77.8092 354.235 75.4873C358.61 72.1485 359.104 66.0032 355.281 62.4735C352.622 60.0188 351.947 56.1326 353.595 52.7702C355.965 47.9351 353.446 42.4248 348.26 41.1012C344.654 40.1806 342.162 37.1388 342.038 33.5061C341.86 28.2824 336.905 24.6696 331.545 25.8552C327.818 26.6797 324.08 25.1791 322.212 22.1083C319.526 17.6927 313.27 16.8049 308.964 20.2282C305.969 22.6089 301.842 22.9932 298.658 21.1879C294.08 18.5919 287.957 20.6325 285.691 25.5093C284.115 28.9007 280.543 31.082 276.773 30.9557C271.351 30.774 266.763 35.2756 267.056 40.4886C267.26 44.1139 265.063 47.5924 261.57 49.174Z" fill="#A4D792"/>
<path d="M262.45 62.3718C259.962 58.4798 261.751 53.1784 266.239 51.1451C269.36 49.7311 271.323 46.6219 271.142 43.3817C270.881 38.7226 274.98 34.6987 279.824 34.8604C283.192 34.9729 286.383 33.0229 287.791 29.9916C289.816 25.6326 295.287 23.8081 299.377 26.1278C302.221 27.741 305.908 27.3969 308.584 25.2688C312.431 22.2087 318.02 23.0015 320.419 26.9477C322.087 29.692 325.426 31.0328 328.756 30.2954C333.545 29.2351 337.971 32.4636 338.129 37.1324C338.24 40.3792 340.466 43.0975 343.687 43.9198C348.32 45.1023 350.569 50.0269 348.451 54.3486C346.978 57.354 347.581 60.8273 349.956 63.0209C353.371 66.1752 352.929 71.6678 349.02 74.6524C346.301 76.7279 345.143 80.1604 346.127 83.2227C347.542 87.6263 344.51 92.4285 339.705 93.3923C336.363 94.0625 333.709 96.6678 333.077 99.8974C332.168 104.541 327.24 107.553 322.64 106.275C319.441 105.387 315.899 106.568 313.796 109.225C310.771 113.045 305.076 113.577 301.735 110.35C299.411 108.106 295.793 107.593 292.7 109.068C288.253 111.19 283.096 109.119 281.779 104.683C280.863 101.598 277.997 99.5076 274.623 99.4638C269.772 99.4009 266.334 95.2024 267.343 90.5726C268.045 87.3529 266.588 84.1645 263.706 82.6114C259.562 80.3781 258.631 75.0137 261.735 71.2512C263.893 68.6346 264.18 65.0785 262.45 62.3718Z" fill="#FCF298"/>
<path d="M344.767 59.7084C344.244 59.977 343.76 60.0647 343.314 59.9716C342.868 59.8784 342.478 59.5064 342.143 58.8555L341.027 56.6814L340.172 57.1205L339.619 56.0435L340.474 55.6045L339.937 54.1883L341.073 53.6047L341.761 54.9434L343.108 54.2513L343.661 55.3282L342.314 56.0203L343.436 58.2045C343.56 58.446 343.696 58.588 343.845 58.6303C343.997 58.6624 344.2 58.613 344.455 58.4822L345.079 58.162L345.642 59.2591L344.767 59.7084Z" fill="#BE046A"/>
<path d="M336.428 63.9913L333.864 58.999L335 58.4153L335.535 59.2091C335.537 58.8347 335.638 58.4862 335.837 58.1637C336.042 57.8377 336.342 57.5732 336.738 57.37C337.355 57.0532 337.934 57.0016 338.476 57.2152C339.017 57.4288 339.481 57.9113 339.867 58.6629L341.314 61.4811L340.027 62.1422L338.642 59.4448C338.422 59.0153 338.166 58.7313 337.874 58.5927C337.583 58.4541 337.253 58.4794 336.884 58.6688C336.522 58.8547 336.289 59.1355 336.185 59.511C336.088 59.883 336.157 60.2972 336.391 60.7535L337.715 63.3301L336.428 63.9913Z" fill="#BE046A"/>
<path d="M332.903 65.9546C332.4 66.2128 331.899 66.3344 331.4 66.3194C330.901 66.3044 330.441 66.1591 330.02 65.8836C329.599 65.608 329.257 65.2153 328.995 64.7053C328.73 64.1886 328.601 63.6739 328.609 63.1611C328.624 62.6449 328.765 62.1779 329.033 61.7602C329.305 61.3323 329.702 60.9841 330.225 60.7155C330.715 60.4642 331.202 60.3495 331.688 60.3714C332.173 60.3933 332.617 60.5387 333.017 60.8077C333.421 61.0666 333.741 61.4242 333.975 61.8805C334.013 61.9543 334.049 62.0332 334.084 62.1171C334.125 62.1977 334.165 62.2833 334.203 62.3739L330.412 64.3211C330.639 64.6965 330.93 64.933 331.285 65.0304C331.646 65.1245 332.002 65.082 332.35 64.9029C332.612 64.7686 332.8 64.5997 332.916 64.3961C333.035 64.1823 333.09 63.9591 333.08 63.7265L334.388 63.055C334.456 63.4186 334.446 63.7881 334.359 64.1634C334.276 64.5286 334.111 64.8676 333.865 65.1805C333.626 65.49 333.305 65.748 332.903 65.9546ZM330.763 61.7623C330.448 61.9242 330.216 62.1576 330.068 62.4628C329.916 62.7612 329.9 63.1088 330.019 63.5056L332.502 62.2298C332.313 61.9114 332.058 61.7117 331.737 61.6307C331.416 61.5497 331.091 61.5936 330.763 61.7623Z" fill="#BE046A"/>
<path d="M321.001 71.9153L318.437 66.923L319.573 66.3394L320.03 66.9569C320.067 66.6327 320.18 66.333 320.369 66.0578C320.561 65.7725 320.832 65.5403 321.18 65.3612C321.951 64.9653 322.651 64.9832 323.28 65.4152C323.319 65.0471 323.449 64.705 323.668 64.389C323.893 64.0696 324.187 63.8169 324.549 63.631C325.199 63.297 325.799 63.2351 326.347 63.4452C326.896 63.6553 327.363 64.1362 327.749 64.8877L329.196 67.7059L327.909 68.367L326.524 65.6696C326.303 65.2401 326.05 64.9544 325.766 64.8123C325.488 64.6668 325.178 64.6819 324.836 64.8575C324.487 65.0365 324.271 65.3086 324.188 65.6738C324.111 66.0355 324.189 66.4445 324.424 66.9008L325.747 69.4775L324.46 70.1386L323.075 67.4411C322.854 67.0117 322.601 66.7259 322.317 66.5839C322.032 66.4418 321.715 66.4603 321.367 66.6394C321.025 66.815 320.812 67.0854 320.728 67.4505C320.652 67.8123 320.73 68.2213 320.965 68.6775L322.288 71.2542L321.001 71.9153Z" fill="#BE046A"/>
<path d="M317.013 73.9639L314.449 68.9716L315.595 68.3828L316.196 69.2569C316.212 68.8418 316.326 68.4612 316.538 68.1149C316.753 67.7585 317.072 67.4718 317.494 67.2549L318.192 68.6137L317.83 68.7996C317.548 68.9442 317.319 69.117 317.143 69.3178C316.966 69.5187 316.87 69.7592 316.852 70.0393C316.842 70.316 316.935 70.6456 317.131 71.0281L318.3 73.3028L317.013 73.9639Z" fill="#BE046A"/>
<path d="M313.489 75.9263C312.986 76.1845 312.485 76.3061 311.986 76.2911C311.487 76.2761 311.027 76.1308 310.606 75.8553C310.185 75.5797 309.843 75.1869 309.581 74.677C309.316 74.1603 309.187 73.6456 309.195 73.1328C309.209 72.6165 309.351 72.1496 309.619 71.7319C309.891 71.304 310.288 70.9558 310.811 70.6872C311.3 70.4359 311.788 70.3211 312.274 70.343C312.759 70.3649 313.203 70.5104 313.603 70.7794C314.007 71.0383 314.327 71.3959 314.561 71.8522C314.599 71.926 314.635 72.0049 314.67 72.0888C314.711 72.1693 314.751 72.2549 314.789 72.3456L310.998 74.2928C311.225 74.6682 311.516 74.9046 311.871 75.0021C312.232 75.0961 312.587 75.0536 312.936 74.8746C313.198 74.7403 313.386 74.5714 313.502 74.3678C313.621 74.154 313.676 73.9308 313.666 73.6982L314.973 73.0267C315.042 73.3903 315.032 73.7598 314.945 74.1351C314.862 74.5002 314.697 74.8393 314.451 75.1522C314.212 75.4616 313.891 75.7197 313.489 75.9263ZM311.349 71.734C311.034 71.8958 310.802 72.1293 310.654 72.4344C310.502 72.7329 310.486 73.0805 310.605 73.4772L313.088 72.2015C312.899 71.883 312.644 71.6833 312.323 71.6024C312.002 71.5214 311.677 71.5653 311.349 71.734Z" fill="#BE046A"/>
<path d="M304.094 80.5993L300.072 76.356L301.349 75.7L304.059 78.8491L303.22 74.7393L304.647 74.0059L307.498 77.0827L306.528 73.0401L307.805 72.3841L308.901 78.1305L307.563 78.8175L304.58 75.6308L305.431 79.9124L304.094 80.5993Z" fill="#BE046A"/>
<path d="M299.653 83.034C299.17 83.2819 298.678 83.395 298.175 83.3733C297.679 83.3482 297.218 83.1995 296.79 82.9274C296.365 82.6451 296.02 82.2457 295.755 81.729C295.49 81.2123 295.371 80.7008 295.399 80.1946C295.424 79.6816 295.57 79.2163 295.839 78.7986C296.114 78.3775 296.493 78.0429 296.975 77.795C297.451 77.5505 297.937 77.4409 298.433 77.466C298.935 77.4878 299.399 77.6398 299.824 77.922C300.251 78.1941 300.598 78.5885 300.863 79.1052C301.129 79.6219 301.249 80.1367 301.224 80.6497C301.203 81.1525 301.055 81.6145 300.78 82.0356C300.505 82.4568 300.129 82.7896 299.653 83.034ZM299.079 81.9168C299.414 81.7446 299.642 81.4707 299.763 81.095C299.88 80.7127 299.811 80.2732 299.556 79.7767C299.301 79.2801 298.986 78.9714 298.61 78.8505C298.231 78.7229 297.877 78.7435 297.549 78.9122C297.207 79.0878 296.978 79.3668 296.861 79.7492C296.747 80.1215 296.817 80.5558 297.072 81.0524C297.327 81.5489 297.641 81.8627 298.013 81.9937C298.389 82.1146 298.744 82.089 299.079 81.9168Z" fill="#BE046A"/>
<path d="M291.775 89.7249L288.074 82.5182L289.22 81.9294L289.728 82.5718C289.775 82.2677 289.886 81.9646 290.062 81.6626C290.244 81.3571 290.546 81.0959 290.968 80.879C291.437 80.6379 291.915 80.5368 292.401 80.5756C292.887 80.6143 293.338 80.7766 293.756 81.0623C294.174 81.348 294.512 81.7425 294.771 82.2457C295.029 82.749 295.153 83.2537 295.141 83.7597C295.127 84.2591 294.994 84.7176 294.742 85.1351C294.487 85.5459 294.125 85.8718 293.656 86.1128C293.28 86.3057 292.916 86.4039 292.562 86.4076C292.208 86.4113 291.878 86.3305 291.573 86.165L293.062 89.0638L291.775 89.7249ZM292.805 85.125C293.214 84.915 293.482 84.6035 293.609 84.1907C293.736 83.7778 293.687 83.3533 293.463 82.9172C293.239 82.481 292.921 82.1909 292.508 82.0468C292.095 81.9027 291.684 81.9357 291.275 82.1457C290.86 82.3592 290.59 82.6757 290.467 83.0953C290.347 83.5047 290.399 83.9275 290.623 84.3636C290.847 84.7998 291.162 85.0916 291.568 85.2391C291.977 85.3765 292.39 85.3385 292.805 85.125Z" fill="#BE046A"/>
<path d="M281.221 92.3487L278.657 87.3564L279.793 86.7727L280.25 87.3903C280.287 87.0661 280.4 86.7664 280.589 86.4912C280.781 86.2058 281.052 85.9736 281.4 85.7946C282.171 85.3986 282.871 85.4166 283.499 85.8485C283.539 85.4804 283.668 85.1384 283.887 84.8224C284.113 84.503 284.407 84.2503 284.769 84.0643C285.419 83.7303 286.018 83.6684 286.567 83.8785C287.115 84.0887 287.582 84.5695 287.968 85.321L289.416 88.1393L288.129 88.8004L286.743 86.1029C286.523 85.6735 286.27 85.3877 285.985 85.2457C285.707 85.1002 285.397 85.1152 285.055 85.2908C284.707 85.4699 284.491 85.742 284.407 86.1072C284.33 86.4689 284.409 86.8779 284.643 87.3342L285.967 89.9108L284.68 90.5719L283.294 87.8745C283.074 87.445 282.821 87.1593 282.536 87.0172C282.252 86.8752 281.935 86.8937 281.586 87.0727C281.244 87.2483 281.032 87.5187 280.948 87.8839C280.871 88.2456 280.95 88.6546 281.184 89.1109L282.508 91.6876L281.221 92.3487Z" fill="#BE046A"/>
<path d="M275.438 95.3185L271.819 88.2729L276.415 85.9126L276.947 86.9493L273.639 88.6485L274.631 90.5811L277.638 89.0367L278.155 90.0433L275.148 91.5876L276.192 93.6207L279.5 91.9215L280.033 92.9582L275.438 95.3185Z" fill="#BE046A"/>
<path d="M328.841 54.0524L328.689 50.9119L328.388 51.0669L324.054 47.4036L325.451 46.6856L328.653 49.4804L328.307 45.2188L329.675 44.5164L330.208 53.35L328.841 54.0524Z" fill="#BE046A"/>
<path d="M325.071 53.1908C324.548 53.4594 324.064 53.5471 323.617 53.454C323.171 53.3608 322.781 52.9888 322.447 52.3379L321.331 50.1639L320.476 50.6029L319.923 49.5259L320.778 49.0869L320.241 47.6708L321.377 47.0871L322.065 48.4258L323.412 47.7337L323.965 48.8107L322.618 49.5028L323.739 51.6869C323.863 51.9285 324 52.0704 324.149 52.1127C324.301 52.1448 324.504 52.0955 324.759 51.9646L325.382 51.6444L325.946 52.7415L325.071 53.1908Z" fill="#BE046A"/>
<path d="M317.899 49.5862C317.665 49.7067 317.434 49.7361 317.207 49.6744C316.988 49.6092 316.823 49.4693 316.712 49.2545C316.602 49.0398 316.586 48.8275 316.665 48.6175C316.747 48.3974 316.905 48.2271 317.139 48.1066C317.374 47.9861 317.601 47.9584 317.821 48.0236C318.044 48.0786 318.211 48.2134 318.321 48.4281C318.431 48.6429 318.446 48.8603 318.364 49.0804C318.289 49.2971 318.134 49.4656 317.899 49.5862ZM320.217 55.684L317.654 50.6917L318.941 50.0306L321.505 55.0229L320.217 55.684Z" fill="#BE046A"/>
<path d="M314.05 58.8511L311.486 53.8588L312.622 53.2752L313.157 54.069C313.159 53.6946 313.26 53.3461 313.459 53.0236C313.664 52.6976 313.964 52.433 314.36 52.2299C314.977 51.9131 315.556 51.8615 316.098 52.0751C316.639 52.2887 317.103 52.7712 317.489 53.5227L318.937 56.341L317.649 57.0021L316.264 54.3046C316.044 53.8752 315.788 53.5912 315.496 53.4525C315.205 53.3139 314.875 53.3393 314.506 53.5287C314.144 53.7146 313.911 53.9953 313.807 54.3708C313.71 54.7429 313.779 55.1571 314.013 55.6133L315.337 58.19L314.05 58.8511Z" fill="#BE046A"/>
<path d="M309.865 61.1548C309.241 61.475 308.659 61.5283 308.117 61.3148C307.582 61.0977 307.121 60.6135 306.735 59.8619L305.288 57.0437L306.565 56.3878L307.95 59.0852C308.171 59.5147 308.427 59.7987 308.718 59.9373C309.01 60.0759 309.343 60.0488 309.719 59.856C310.074 59.6735 310.3 59.3962 310.397 59.0242C310.501 58.6487 310.435 58.2328 310.201 57.7765L308.878 55.1998L310.165 54.5387L312.729 59.531L311.592 60.1147L311.058 59.3208C311.055 59.6953 310.951 60.0455 310.746 60.3714C310.547 60.694 310.253 60.9551 309.865 61.1548Z" fill="#BE046A"/>
<path d="M298.514 66.8313L295.951 61.839L297.087 61.2554L297.544 61.873C297.581 61.5488 297.694 61.2491 297.883 60.9739C298.075 60.6885 298.346 60.4563 298.694 60.2773C299.465 59.8813 300.165 59.8992 300.793 60.3312C300.833 59.9631 300.962 59.621 301.181 59.3051C301.407 58.9856 301.701 58.7329 302.063 58.547C302.713 58.213 303.312 58.1511 303.861 58.3612C304.409 58.5713 304.876 59.0522 305.262 59.8037L306.71 62.6219L305.423 63.283L304.037 60.5856C303.817 60.1562 303.564 59.8704 303.279 59.7283C303.001 59.5828 302.691 59.5979 302.349 59.7735C302.001 59.9525 301.785 60.2247 301.701 60.5898C301.624 60.9515 301.703 61.3605 301.937 61.8168L303.261 64.3935L301.974 65.0546L300.588 62.3572C300.368 61.9277 300.115 61.642 299.83 61.4999C299.546 61.3578 299.229 61.3763 298.88 61.5554C298.538 61.731 298.326 62.0014 298.242 62.3665C298.165 62.7283 298.244 63.1373 298.478 63.5936L299.802 66.1702L298.514 66.8313Z" fill="#BE046A"/>
<path d="M289.097 71.6678L286.534 66.6755L287.67 66.0918L288.127 66.7094C288.164 66.3852 288.277 66.0855 288.466 65.8103C288.658 65.5249 288.929 65.2927 289.277 65.1137C290.048 64.7177 290.748 64.7357 291.376 65.1676C291.416 64.7995 291.545 64.4575 291.764 64.1415C291.99 63.8221 292.284 63.5694 292.646 63.3834C293.296 63.0494 293.895 62.9875 294.444 63.1976C294.992 63.4078 295.459 63.8886 295.845 64.6401L297.293 67.4584L296.006 68.1195L294.62 65.422C294.4 64.9926 294.147 64.7068 293.862 64.5648C293.584 64.4193 293.274 64.4343 292.932 64.6099C292.584 64.789 292.368 65.0611 292.284 65.4262C292.207 65.788 292.286 66.197 292.52 66.6533L293.844 69.2299L292.557 69.891L291.171 67.1936C290.951 66.7641 290.698 66.4784 290.413 66.3363C290.129 66.1943 289.812 66.2128 289.463 66.3918C289.121 66.5674 288.909 66.8378 288.825 67.203C288.748 67.5647 288.827 67.9737 289.061 68.43L290.385 71.0067L289.097 71.6678Z" fill="#BE046A"/>
<path d="M285.455 73.6918C284.972 73.9397 284.48 74.0528 283.977 74.031C283.481 74.0059 283.019 73.8572 282.592 73.5851C282.167 73.3029 281.822 72.9034 281.557 72.3867C281.291 71.87 281.173 71.3586 281.201 70.8523C281.225 70.3393 281.372 69.874 281.64 69.4563C281.915 69.0352 282.294 68.7006 282.777 68.4527C283.253 68.2082 283.739 68.0986 284.235 68.1238C284.737 68.1455 285.201 68.2975 285.625 68.5797C286.053 68.8519 286.4 69.2463 286.665 69.7629C286.93 70.2796 287.051 70.7944 287.026 71.3074C287.005 71.8102 286.856 72.2722 286.581 72.6933C286.306 73.1145 285.931 73.4473 285.455 73.6918ZM284.881 72.5745C285.216 72.4024 285.444 72.1284 285.565 71.7528C285.682 71.3704 285.613 70.9309 285.358 70.4344C285.103 69.9378 284.787 69.6291 284.412 69.5082C284.033 69.3807 283.679 69.4012 283.351 69.57C283.009 69.7456 282.779 70.0246 282.662 70.4069C282.548 70.7792 282.619 71.2136 282.874 71.7101C283.129 72.2066 283.443 72.5204 283.815 72.6515C284.191 72.7723 284.546 72.7467 284.881 72.5745Z" fill="#BE046A"/>
<path d="M278.865 77.0765C278.155 77.4415 277.467 77.6038 276.803 77.5636C276.135 77.5166 275.524 77.2919 274.97 76.8896C274.412 76.4805 273.949 75.917 273.58 75.199C273.212 74.4811 273.023 73.7764 273.016 73.085C273.008 72.3936 273.18 71.7627 273.531 71.1923C273.882 70.622 274.412 70.1543 275.123 69.7893C275.968 69.3555 276.767 69.2122 277.52 69.3595C278.277 69.4966 278.917 69.9098 279.44 70.5992L278.022 71.3275C277.739 70.9898 277.398 70.7876 276.999 70.7209C276.604 70.6441 276.172 70.7262 275.702 70.9672C275.052 71.3012 274.656 71.7843 274.515 72.4166C274.374 73.0488 274.501 73.7508 274.898 74.5224C275.294 75.2941 275.79 75.8067 276.386 76.0602C276.979 76.3069 277.6 76.2633 278.251 75.9293C278.72 75.6883 279.044 75.3948 279.222 75.0489C279.403 74.6928 279.445 74.3112 279.346 73.9041L280.763 73.1759C281.001 73.9694 280.954 74.7103 280.621 75.3985C280.295 76.0833 279.71 76.6426 278.865 77.0765Z" fill="#BE046A"/>
<path fill-rule="evenodd" clip-rule="evenodd" d="M285.704 242.055C284.44 246.496 280.518 249.658 275.91 249.948C271.542 250.222 268.429 254.307 269.325 258.605C270.268 263.126 268.266 267.752 264.323 270.152C260.585 272.427 259.726 277.497 262.515 280.89C265.448 284.457 265.823 289.484 263.449 293.443C261.196 297.202 262.793 302.095 266.833 303.802C271.086 305.599 273.751 309.879 273.489 314.489C273.239 318.871 276.926 322.46 281.29 322.093C285.89 321.707 290.235 324.261 292.143 328.467C293.957 332.466 298.883 333.929 302.572 331.575C306.464 329.092 311.497 329.334 315.139 332.174C318.598 334.872 323.635 333.878 325.807 330.075C328.098 326.066 332.663 323.937 337.207 324.76C341.517 325.54 345.515 322.32 345.672 317.936C345.837 313.32 348.887 309.31 353.291 307.925C357.465 306.612 359.511 301.898 357.614 297.937C355.618 293.772 356.455 288.802 359.708 285.526C362.794 282.419 362.414 277.288 358.896 274.662C355.196 271.9 353.63 267.108 354.988 262.695C356.277 258.502 353.556 254.134 349.228 253.444C344.669 252.718 341.059 249.199 340.212 244.659C339.406 240.342 334.97 237.741 330.824 239.142C326.451 240.62 321.621 239.18 318.764 235.552C316.048 232.102 310.917 231.861 307.899 235.031C304.715 238.375 299.772 239.347 295.557 237.46C291.556 235.67 286.904 237.839 285.704 242.055ZM296.314 235.769C291.283 233.517 285.431 236.246 283.922 241.548C282.872 245.235 279.617 247.858 275.794 248.098C270.296 248.444 266.385 253.584 267.511 258.983C268.294 262.738 266.631 266.577 263.36 268.569C258.655 271.432 257.581 277.806 261.084 282.066C263.52 285.029 263.831 289.204 261.86 292.49C259.027 297.216 261.035 303.364 266.112 305.509C269.643 307.001 271.857 310.555 271.639 314.383C271.325 319.889 275.956 324.401 281.445 323.94C285.262 323.619 288.871 325.738 290.455 329.232C292.734 334.256 298.926 336.1 303.569 333.137C306.798 331.077 310.975 331.277 313.999 333.635C318.347 337.026 324.683 335.779 327.416 330.995C329.317 327.667 333.106 325.9 336.877 326.583C342.299 327.565 347.326 323.513 347.524 318.002C347.661 314.17 350.193 310.842 353.847 309.693C359.101 308.04 361.668 302.111 359.285 297.136C357.627 293.677 358.323 289.55 361.022 286.832C364.904 282.924 364.424 276.476 360.005 273.177C356.932 270.884 355.632 266.903 356.759 263.239C358.38 257.971 354.961 252.481 349.52 251.614C345.735 251.011 342.737 248.089 342.034 244.319C341.022 238.897 335.448 235.623 330.231 237.386C326.602 238.613 322.593 237.419 320.22 234.405C316.807 230.072 310.355 229.764 306.557 233.753C303.915 236.528 299.813 237.335 296.314 235.769Z" fill="#A4D792"/>
<path d="M286.787 245.977C288.137 241.24 293.367 238.801 297.864 240.812C300.991 242.211 304.657 241.489 307.018 239.009C310.414 235.445 316.18 235.718 319.229 239.589C321.349 242.281 324.932 243.347 328.175 242.251C332.839 240.675 337.819 243.598 338.723 248.442C339.351 251.811 342.03 254.421 345.412 254.959C350.275 255.732 353.329 260.636 351.88 265.344C350.872 268.617 352.033 272.173 354.779 274.222C358.727 277.168 359.155 282.929 355.686 286.421C353.272 288.85 352.65 292.537 354.131 295.627C356.26 300.071 353.964 305.369 349.269 306.846C346.003 307.874 343.739 310.847 343.616 314.271C343.439 319.195 338.944 322.816 334.099 321.94C330.729 321.33 327.343 322.91 325.643 325.883C323.2 330.158 317.537 331.273 313.651 328.244C310.949 326.138 307.216 325.96 304.33 327.801C300.18 330.449 294.646 328.802 292.611 324.315C291.195 321.194 287.97 319.301 284.559 319.588C279.653 320.001 275.515 315.97 275.797 311.052C275.992 307.631 274.015 304.456 270.859 303.124C266.321 301.209 264.528 295.717 267.061 291.494C268.823 288.558 268.546 284.828 266.369 282.181C263.239 278.376 264.201 272.681 268.406 270.122C271.33 268.342 272.816 264.912 272.117 261.557C271.112 256.734 274.609 252.141 279.522 251.831C282.939 251.616 285.849 249.271 286.787 245.977Z" fill="#FCF298"/>
<path d="M286.646 293.828C285.725 293.493 284.992 292.997 284.446 292.342C283.909 291.69 283.572 290.937 283.436 290.083C283.312 289.223 283.421 288.324 283.762 287.386C284.104 286.448 284.597 285.694 285.241 285.124C285.897 284.548 286.641 284.184 287.472 284.029C288.311 283.878 289.191 283.97 290.112 284.305C291.024 284.637 291.753 285.131 292.299 285.786C292.845 286.442 293.18 287.199 293.304 288.059C293.431 288.909 293.324 289.804 292.983 290.742C292.641 291.68 292.147 292.439 291.499 293.017C290.855 293.587 290.113 293.948 289.273 294.099C288.434 294.25 287.558 294.16 286.646 293.828ZM287.197 292.315C288.074 292.634 288.876 292.599 289.604 292.208C290.341 291.821 290.893 291.123 291.26 290.115C291.627 289.106 291.652 288.217 291.337 287.447C291.03 286.68 290.438 286.137 289.562 285.818C288.685 285.498 287.878 285.532 287.141 285.92C286.404 286.307 285.852 287.005 285.485 288.013C285.118 289.022 285.093 289.911 285.408 290.681C285.724 291.451 286.32 291.996 287.197 292.315ZM292.754 295.872L295.129 289.348L296.628 289.894L296.341 291.175C296.731 290.84 297.172 290.623 297.665 290.525C298.169 290.42 298.698 290.469 299.25 290.67L298.604 292.445L298.131 292.273C297.762 292.139 297.413 292.076 297.082 292.085C296.751 292.094 296.451 292.208 296.183 292.428C295.923 292.651 295.702 293.013 295.52 293.512L294.438 296.485L292.754 295.872ZM301.286 296.773C300.97 296.658 300.689 296.516 300.443 296.347L299.779 296.656C299.899 296.79 300.077 296.929 300.312 297.074C300.547 297.219 300.94 297.422 301.491 297.682C302.331 298.077 302.887 298.513 303.16 298.989C303.433 299.466 303.463 299.998 303.249 300.586C303.109 300.972 302.871 301.297 302.536 301.563C302.198 301.837 301.772 301.999 301.257 302.05C300.738 302.11 300.137 302.015 299.453 301.766C298.524 301.428 297.838 300.98 297.396 300.422C296.95 299.872 296.853 299.251 297.106 298.558C297.319 297.971 297.79 297.566 298.516 297.344C298.369 297.201 298.246 297.062 298.147 296.926C298.056 296.794 297.98 296.662 297.918 296.53L298.028 296.228L299.613 295.434C299.267 294.802 299.222 294.135 299.477 293.434C299.637 292.995 299.887 292.634 300.229 292.352C300.579 292.072 300.989 291.898 301.461 291.832C301.932 291.765 302.448 291.834 303.009 292.038C303.377 292.172 303.7 292.349 303.978 292.569L306.45 293.469L306.077 294.495L304.93 294.167C304.984 294.564 304.938 294.964 304.791 295.368C304.632 295.806 304.381 296.167 304.04 296.45C303.699 296.733 303.288 296.906 302.808 296.97C302.337 297.036 301.829 296.971 301.286 296.773ZM301.755 295.484C302.097 295.608 302.411 295.618 302.697 295.514C302.992 295.413 303.202 295.191 303.326 294.849C303.451 294.507 303.433 294.203 303.272 293.936C303.119 293.672 302.872 293.478 302.53 293.353C302.171 293.222 301.848 293.209 301.562 293.313C301.276 293.418 301.07 293.641 300.946 293.983C300.821 294.325 300.835 294.628 300.987 294.892C301.139 295.156 301.395 295.353 301.755 295.484ZM298.707 298.947C298.589 299.272 298.65 299.567 298.891 299.834C299.137 300.112 299.479 300.331 299.918 300.49C300.339 300.644 300.713 300.68 301.039 300.601C301.363 300.53 301.578 300.35 301.683 300.06C301.769 299.824 301.753 299.595 301.635 299.373C301.526 299.154 301.224 298.935 300.728 298.715C300.378 298.558 300.059 298.397 299.771 298.233C299.466 298.28 299.226 298.367 299.051 298.492C298.885 298.62 298.771 298.772 298.707 298.947ZM307.495 301.416C306.934 301.212 306.506 300.957 306.21 300.651C305.917 300.336 305.738 299.997 305.671 299.635C305.604 299.273 305.636 298.912 305.767 298.553C305.987 297.948 306.403 297.543 307.013 297.338C307.624 297.134 308.403 297.204 309.35 297.548L311.007 298.151L311.065 297.994C311.228 297.546 311.22 297.171 311.042 296.868C310.865 296.565 310.587 296.345 310.21 296.208C309.868 296.083 309.54 296.058 309.225 296.132C308.913 296.198 308.669 296.377 308.493 296.67L306.849 296.072C307.065 295.614 307.373 295.26 307.772 295.008C308.18 294.759 308.637 294.623 309.143 294.598C309.651 294.565 310.178 294.647 310.721 294.845C311.651 295.183 312.298 295.682 312.664 296.341C313.03 297.001 313.058 297.756 312.748 298.606L311.288 302.618L309.855 302.096L310.08 300.987C309.759 301.267 309.382 301.458 308.948 301.558C308.523 301.661 308.039 301.614 307.495 301.416ZM308.355 300.24C308.838 300.415 309.268 300.393 309.646 300.173C310.033 299.957 310.346 299.629 310.585 299.189L309.151 298.668C308.704 298.505 308.354 298.472 308.1 298.568C307.85 298.656 307.681 298.818 307.595 299.055C307.503 299.309 307.527 299.541 307.669 299.752C307.811 299.962 308.04 300.125 308.355 300.24ZM312.895 303.203L315.269 296.679L316.756 297.22L316.485 298.373C316.827 298.06 317.228 297.859 317.688 297.768C318.157 297.68 318.65 297.731 319.168 297.919C319.974 298.213 320.509 298.695 320.771 299.366C321.033 300.038 320.985 300.865 320.628 301.847L319.287 305.53L317.604 304.917L318.887 301.392C319.091 300.83 319.133 300.359 319.014 299.978C318.894 299.597 318.593 299.319 318.111 299.143C317.638 298.971 317.187 298.995 316.759 299.217C316.339 299.442 316.021 299.852 315.804 300.448L314.578 303.816L312.895 303.203ZM324.548 298.909C324.241 298.797 324.02 298.613 323.886 298.355C323.76 298.101 323.748 297.833 323.85 297.553C323.952 297.272 324.131 297.079 324.388 296.974C324.657 296.863 324.945 296.864 325.252 296.976C325.559 297.087 325.775 297.27 325.901 297.525C326.039 297.773 326.057 298.038 325.954 298.319C325.852 298.599 325.667 298.795 325.398 298.906C325.138 299.02 324.855 299.021 324.548 298.909ZM320.963 306.139L323.337 299.615L325.021 300.228L322.647 306.752L320.963 306.139ZM327.543 308.713C326.876 308.47 326.341 308.112 325.938 307.637C325.535 307.163 325.278 306.613 325.168 305.987C325.067 305.364 325.138 304.72 325.381 304.053C325.623 303.387 325.983 302.848 326.461 302.436C326.947 302.027 327.498 301.77 328.111 301.666C328.725 301.562 329.366 301.631 330.032 301.873C330.865 302.177 331.487 302.651 331.897 303.297C332.311 303.934 332.458 304.663 332.338 305.483L330.562 304.837C330.589 304.489 330.503 304.18 330.304 303.909C330.117 303.632 329.848 303.43 329.497 303.302C329.032 303.133 328.574 303.165 328.122 303.397C327.67 303.63 327.33 304.058 327.104 304.68C326.877 305.303 326.862 305.849 327.059 306.317C327.256 306.786 327.586 307.105 328.051 307.274C328.402 307.402 328.736 307.425 329.055 307.342C329.381 307.262 329.648 307.076 329.854 306.783L331.629 307.43C331.203 308.109 330.624 308.568 329.891 308.808C329.158 309.048 328.376 309.016 327.543 308.713Z" fill="#BE046A"/>
<path d="M337.174 286.398C337.932 286.674 338.5 287.081 338.877 287.619C339.258 288.144 339.481 288.712 339.545 289.322C339.609 289.932 339.531 290.541 339.31 291.147C339.094 291.741 338.765 292.251 338.323 292.678C337.882 293.104 337.344 293.402 336.71 293.572C336.08 293.729 335.386 293.67 334.628 293.394C333.895 293.127 333.344 292.733 332.975 292.212C332.611 291.679 332.397 291.107 332.332 290.497C332.281 289.892 332.363 289.292 332.58 288.698C332.8 288.091 333.125 287.572 333.554 287.141C333.995 286.715 334.525 286.421 335.142 286.259C335.763 286.085 336.441 286.131 337.174 286.398ZM336.616 291.412C336.735 291.241 336.825 291.052 336.886 290.845C336.965 290.63 337.013 290.419 337.031 290.211C337.051 289.96 337.049 289.709 337.026 289.457C337.008 289.193 336.949 288.943 336.849 288.706C336.789 288.555 336.7 288.408 336.58 288.264C336.465 288.108 336.321 288.013 336.148 287.978C336.11 287.964 336.048 287.956 335.963 287.954C335.814 287.971 335.681 288.023 335.563 288.109C335.459 288.2 335.371 288.304 335.3 288.421C335.18 288.592 335.081 288.785 335.003 289C334.942 289.207 334.902 289.414 334.884 289.622C334.864 289.873 334.864 290.13 334.882 290.394C334.905 290.646 334.966 290.89 335.066 291.127C335.126 291.278 335.213 291.431 335.328 291.587C335.447 291.731 335.594 291.82 335.767 291.855C335.805 291.868 335.867 291.877 335.952 291.879C336.101 291.862 336.228 291.808 336.333 291.717C336.45 291.631 336.544 291.529 336.616 291.412ZM330.491 276.15C331.249 276.426 331.817 276.833 332.193 277.371C332.575 277.896 332.797 278.464 332.862 279.074C332.926 279.685 332.847 280.293 332.627 280.9C332.41 281.494 332.082 282.004 331.64 282.43C331.199 282.856 330.661 283.154 330.027 283.324C329.397 283.481 328.703 283.422 327.944 283.146C327.211 282.879 326.66 282.485 326.292 281.965C325.928 281.431 325.713 280.86 325.649 280.249C325.598 279.644 325.68 279.044 325.896 278.45C326.117 277.843 326.442 277.325 326.871 276.894C327.312 276.468 327.841 276.174 328.458 276.012C329.08 275.837 329.758 275.883 330.491 276.15ZM328.364 280.873C328.424 281.023 328.511 281.177 328.626 281.333C328.745 281.477 328.892 281.566 329.065 281.6C329.103 281.614 329.165 281.622 329.25 281.624C329.399 281.607 329.526 281.553 329.631 281.462C329.748 281.376 329.842 281.275 329.913 281.157C330.033 280.986 330.123 280.797 330.184 280.59C330.262 280.376 330.311 280.164 330.329 279.956C330.349 279.706 330.347 279.454 330.324 279.203C330.306 278.939 330.247 278.688 330.147 278.451C330.087 278.301 329.998 278.154 329.878 278.01C329.763 277.854 329.619 277.758 329.446 277.724C329.408 277.71 329.346 277.702 329.261 277.699C329.112 277.717 328.978 277.768 328.861 277.854C328.757 277.945 328.669 278.049 328.597 278.166C328.478 278.338 328.379 278.531 328.301 278.745C328.24 278.952 328.2 279.16 328.182 279.368C328.162 279.618 328.161 279.876 328.18 280.14C328.203 280.392 328.264 280.636 328.364 280.873ZM340.015 280.068C340.03 280.145 340.007 280.208 339.946 280.257L327.796 290.456C327.735 290.506 327.666 290.516 327.591 290.489L325.619 289.771C325.543 289.744 325.498 289.691 325.483 289.614C325.468 289.537 325.491 289.474 325.552 289.425L337.702 279.226C337.763 279.176 337.831 279.165 337.907 279.193L339.879 279.911C339.954 279.938 340 279.991 340.015 280.068Z" fill="#BE046A"/>
<path d="M319.19 271.887C320.315 272.296 321.227 272.857 321.926 273.57C322.643 274.274 323.16 275.056 323.477 275.916C323.811 276.768 323.965 277.661 323.94 278.596C323.927 279.536 323.762 280.442 323.444 281.314C323.132 282.173 322.678 282.967 322.084 283.696C321.502 284.429 320.807 285.02 319.999 285.47C319.209 285.912 318.316 286.182 317.323 286.278C316.333 286.361 315.276 286.199 314.151 285.789C313.052 285.389 312.163 284.843 311.484 284.153C310.81 283.449 310.312 282.674 309.99 281.827C309.686 280.972 309.547 280.077 309.572 279.142C309.61 278.211 309.786 277.316 310.099 276.457C310.416 275.585 310.859 274.78 311.428 274.042C312.01 273.31 312.69 272.72 313.468 272.273C314.263 271.818 315.143 271.544 316.107 271.452C317.075 271.346 318.109 271.494 319.209 271.894L319.19 271.887ZM314.111 282.125C314.295 282.564 314.547 282.992 314.867 283.409C315.2 283.831 315.616 284.104 316.115 284.228C316.322 284.289 316.538 284.304 316.765 284.271C317.183 284.223 317.553 284.072 317.875 283.817C318.201 283.549 318.482 283.25 318.716 282.921C319.048 282.441 319.307 281.926 319.492 281.378C319.682 280.818 319.81 280.249 319.877 279.672C319.963 279.002 319.969 278.318 319.895 277.618C319.825 276.905 319.656 276.229 319.389 275.587C319.205 275.148 318.947 274.718 318.614 274.296C318.293 273.879 317.884 273.608 317.385 273.484C317.178 273.423 316.962 273.409 316.735 273.441C316.317 273.489 315.945 273.647 315.618 273.914C315.296 274.169 315.018 274.462 314.784 274.791C314.452 275.272 314.191 275.792 314.001 276.353C313.816 276.901 313.69 277.463 313.623 278.04C313.536 278.71 313.528 279.401 313.598 280.113C313.673 280.813 313.844 281.484 314.111 282.125Z" fill="#BE046A"/>
<path d="M304.62 266.584C305.744 266.994 306.657 267.555 307.356 268.267C308.073 268.972 308.59 269.754 308.907 270.614C309.241 271.465 309.395 272.358 309.369 273.294C309.357 274.234 309.191 275.14 308.874 276.012C308.561 276.871 308.108 277.665 307.513 278.393C306.932 279.126 306.237 279.718 305.429 280.168C304.638 280.61 303.746 280.879 302.752 280.975C301.763 281.059 300.706 280.896 299.581 280.487C298.482 280.086 297.592 279.541 296.914 278.85C296.239 278.147 295.741 277.372 295.42 276.525C295.116 275.67 294.976 274.775 295.002 273.839C295.04 272.909 295.216 272.014 295.528 271.154C295.846 270.282 296.289 269.477 296.858 268.74C297.44 268.007 298.119 267.417 298.897 266.97C299.693 266.516 300.572 266.242 301.536 266.149C302.505 266.044 303.539 266.191 304.639 266.591L304.62 266.584ZM299.541 276.822C299.725 277.261 299.977 277.689 300.297 278.107C300.63 278.528 301.046 278.801 301.545 278.926C301.751 278.987 301.968 279.001 302.194 278.969C302.613 278.921 302.983 278.769 303.305 278.514C303.631 278.247 303.911 277.948 304.146 277.618C304.478 277.138 304.737 276.624 304.922 276.076C305.112 275.515 305.24 274.947 305.307 274.37C305.393 273.7 305.399 273.015 305.325 272.315C305.255 271.603 305.086 270.926 304.818 270.285C304.635 269.846 304.376 269.415 304.043 268.994C303.723 268.576 303.313 268.306 302.815 268.182C302.608 268.121 302.391 268.106 302.165 268.138C301.747 268.186 301.374 268.344 301.048 268.612C300.726 268.867 300.448 269.159 300.213 269.489C299.881 269.969 299.62 270.49 299.43 271.05C299.245 271.598 299.119 272.161 299.053 272.737C298.966 273.407 298.958 274.098 299.028 274.811C299.102 275.511 299.273 276.181 299.541 276.822Z" fill="#BE046A"/>
<path d="M291.968 275.655L291.996 277.168C291.999 277.241 291.972 277.295 291.915 277.332C291.855 277.381 291.786 277.392 291.71 277.365L287.502 275.833C287.426 275.805 287.381 275.753 287.366 275.676C287.346 275.612 287.361 275.553 287.409 275.499L288.404 274.358L291.585 265.619L290.352 265.17C290.264 265.138 290.214 265.077 290.204 264.988C290.194 264.898 290.232 264.833 290.318 264.793L293.7 263.169C293.752 263.144 293.803 263.142 293.853 263.16L295.978 263.869C296.042 263.892 296.085 263.929 296.109 263.981C296.133 264.033 296.136 264.084 296.118 264.134L291.93 275.641L291.968 275.655Z" fill="#BE046A"/>
</svg>
