<svg width="1920" height="63" viewBox="0 0 1920 63" fill="none" xmlns="http://www.w3.org/2000/svg">
	<path d="M120.916 45.9561L103.431 27.5481C90.4906 13.9239 69.5094 13.924 56.5685 27.5481C35.6933 49.5256 0 33.9602 0 2.87939V0.5H1920V2.87939C1920 33.9603 1884.31 49.5256 1863.43 27.5481C1850.49 13.924 1829.51 13.924 1816.57 27.5481L1799.08 45.9561C1777.5 68.6813 1742.5 68.6813 1720.92 45.9561L1719.08 44.0269C1697.5 21.3018 1662.5 21.3018 1640.92 44.0269L1639.08 45.9561C1617.5 68.6813 1582.5 68.6813 1560.92 45.9561L1559.08 44.0269C1537.5 21.3018 1502.5 21.3018 1480.92 44.0269L1479.08 45.9561C1457.5 68.6813 1422.5 68.6813 1400.92 45.9561L1399.08 44.0269C1377.5 21.3018 1342.5 21.3018 1320.92 44.0269L1319.08 45.9561C1297.5 68.6813 1262.5 68.6813 1240.92 45.9561L1239.08 44.0269C1217.5 21.3018 1182.5 21.3018 1160.92 44.0269L1159.08 45.9561C1137.5 68.6813 1102.5 68.6813 1080.92 45.9561L1079.08 44.0269C1057.5 21.3018 1022.5 21.3018 1000.92 44.0269L999.084 45.9561C977.498 68.6813 942.502 68.6813 920.916 45.9561L919.084 44.0269C897.498 21.3018 862.502 21.3018 840.916 44.0269L839.084 45.9561C817.498 68.6813 782.502 68.6813 760.916 45.9561L759.084 44.0269C737.498 21.3018 702.502 21.3018 680.916 44.0269L679.084 45.9561C657.498 68.6813 622.502 68.6813 600.916 45.9561L599.084 44.0269C577.498 21.3018 542.502 21.3018 520.916 44.0269L519.084 45.9561C497.498 68.6813 462.502 68.6813 440.916 45.9561L439.084 44.0269C417.498 21.3018 382.502 21.3018 360.916 44.0269L359.084 45.9561C337.498 68.6813 302.502 68.6813 280.916 45.9561L279.084 44.0269C257.498 21.3018 222.502 21.3018 200.916 44.0269L199.084 45.9561C177.498 68.6813 142.502 68.6813 120.916 45.9561Z" fill="#FFCFE2" />
</svg>
