<svg width="1980" height="92" viewBox="0 0 1980 92" fill="none" xmlns="http://www.w3.org/2000/svg">
	<path d="M1855.31 25.3572L1873.34 52.7437C1886.68 73.0131 1908.32 73.013 1921.66 52.7437C1943.19 20.0468 1980 43.2041 1980 89.4445L1980 92L0 91.9998L0.000366434 89.4443C0.000370477 43.2038 36.8088 20.0467 58.3364 52.7436C71.6816 73.0129 93.3186 73.0129 106.664 52.7436L124.695 25.357C146.955 -8.4522 183.045 -8.4522 205.305 25.357L207.195 28.2272C229.455 62.0365 265.545 62.0365 287.805 28.2272L289.695 25.3571C311.955 -8.45219 348.045 -8.45218 370.305 25.3571L372.195 28.2273C394.455 62.0365 430.545 62.0365 452.805 28.2273L454.695 25.3571C476.955 -8.45217 513.045 -8.45217 535.305 25.3571L537.195 28.2273C559.455 62.0365 595.545 62.0365 617.805 28.2273L619.695 25.3571C641.955 -8.45216 678.045 -8.45216 700.305 25.3571L702.195 28.2273C724.455 62.0365 760.545 62.0365 782.805 28.2273L784.695 25.3571C806.955 -8.45214 843.045 -8.45214 865.305 25.3571L867.195 28.2273C889.455 62.0365 925.545 62.0365 947.805 28.2273L949.695 25.3571C971.955 -8.45213 1008.05 -8.45213 1030.31 25.3571L1032.2 28.2273C1054.46 62.0366 1090.55 62.0366 1112.81 28.2273L1114.7 25.3571C1136.96 -8.45212 1173.05 -8.45211 1195.31 25.3571L1197.2 28.2273C1219.46 62.0366 1255.55 62.0366 1277.81 28.2273L1279.7 25.3571C1301.96 -8.4521 1338.05 -8.4521 1360.31 25.3571L1362.2 28.2273C1384.46 62.0366 1420.55 62.0366 1442.81 28.2273L1444.7 25.3572C1466.96 -8.45209 1503.05 -8.45208 1525.31 25.3572L1527.2 28.2274C1549.46 62.0366 1585.55 62.0366 1607.81 28.2274L1609.7 25.3572C1631.96 -8.45207 1668.05 -8.45207 1690.31 25.3572L1692.2 28.2274C1714.46 62.0366 1750.55 62.0366 1772.81 28.2274L1774.7 25.3572C1796.96 -8.45206 1833.05 -8.45205 1855.31 25.3572Z" fill="#ED35CB" fill-opacity="0.1" />
</svg>
