<svg width="1958" height="49" viewBox="0 0 1958 49" fill="none" xmlns="http://www.w3.org/2000/svg">
	<path
		d="M1958 9.99997L1945.65 4.69809C1927.09 -3.26974 1905.55 0.714935 1891.07 14.7976L1870.61 34.6897C1853.19 51.6329 1826.1 53.5927 1806.42 39.3344L1774.97 16.5462C1755.08 2.13705 1727.66 4.30795 1710.29 21.6685L1703.27 28.686C1683.74 48.1938 1652.11 48.1938 1632.58 28.686L1630.75 26.852C1611.23 7.34421 1579.59 7.34421 1560.07 26.852L1558.23 28.686C1538.71 48.1938 1507.07 48.1938 1487.55 28.686L1485.71 26.852C1466.19 7.34421 1434.55 7.34415 1415.03 26.852L1413.19 28.686C1393.67 48.1938 1362.03 48.1938 1342.51 28.686L1340.68 26.852C1321.15 7.34421 1289.52 7.34421 1269.99 26.852L1268.16 28.686C1248.63 48.1938 1217 48.1938 1197.47 28.686L1195.64 26.852C1176.11 7.34421 1144.48 7.34421 1124.96 26.852L1123.12 28.686C1103.6 48.1938 1071.96 48.1938 1052.44 28.6861L1050.6 26.852C1031.08 7.34421 999.441 7.34421 979.918 26.852L978.083 28.686C958.56 48.1938 926.923 48.1938 907.4 28.6861L905.564 26.852C886.041 7.34421 854.404 7.34415 834.881 26.852L833.046 28.686C813.522 48.1938 781.885 48.1938 762.362 28.686L760.527 26.852C741.004 7.34421 709.367 7.34421 689.844 26.852L688.009 28.686C668.485 48.1938 636.849 48.1939 617.325 28.6861L615.49 26.852C595.967 7.34421 564.33 7.34415 544.807 26.852L542.971 28.686C523.448 48.1938 491.811 48.1938 472.288 28.686L470.453 26.852C450.93 7.34421 419.293 7.34421 399.77 26.852L397.934 28.686C378.411 48.1938 346.774 48.1939 327.251 28.6861L325.416 26.852C305.893 7.34421 274.256 7.34421 254.733 26.852L252.897 28.686C233.374 48.1938 201.737 48.1938 182.214 28.686L180.379 26.852C160.856 7.34421 129.219 7.34415 109.696 26.852L103.477 33.0659C103.463 33.0802 103.448 33.0946 103.434 33.109L103.076 33.4669C85.5258 51.0032 57.771 53.0183 37.8721 38.2008L0 9.99997L0.000244141 0.5H1958V9.99997Z"
		fill="#FFCFE2" />
</svg>