<svg width="1958" height="61" viewBox="0 0 1958 61" fill="none" xmlns="http://www.w3.org/2000/svg">
	<path
		d="M1958 22L1945.65 16.6981C1927.09 8.73029 1905.55 12.715 1891.07 26.7976L1870.61 46.6897C1853.19 63.6329 1826.1 65.5927 1806.42 51.3344L1774.97 28.5463C1755.08 14.1371 1727.66 16.308 1710.29 33.6685L1703.27 40.686C1683.74 60.1938 1652.11 60.1938 1632.58 40.686L1630.75 38.8521C1611.23 19.3442 1579.59 19.3442 1560.07 38.8521L1558.23 40.686C1538.71 60.1938 1507.07 60.1938 1487.55 40.686L1485.71 38.8521C1466.19 19.3442 1434.55 19.3442 1415.03 38.852L1413.19 40.686C1393.67 60.1938 1362.03 60.1938 1342.51 40.686L1340.68 38.8521C1321.15 19.3442 1289.52 19.3442 1269.99 38.852L1268.16 40.686C1248.63 60.1938 1217 60.1938 1197.47 40.686L1195.64 38.8521C1176.11 19.3442 1144.48 19.3442 1124.96 38.8521L1123.12 40.686C1103.6 60.1938 1071.96 60.1938 1052.44 40.6861L1050.6 38.8521C1031.08 19.3442 999.441 19.3442 979.918 38.8521L978.083 40.686C958.56 60.1938 926.923 60.1938 907.4 40.6861L905.564 38.8521C886.041 19.3442 854.404 19.3442 834.881 38.852L833.046 40.686C813.522 60.1938 781.885 60.1938 762.362 40.686L760.527 38.8521C741.004 19.3442 709.367 19.3442 689.844 38.8521L688.009 40.686C668.485 60.1938 636.849 60.1939 617.325 40.6861L615.49 38.8521C595.967 19.3442 564.33 19.3442 544.807 38.852L542.971 40.686C523.448 60.1938 491.811 60.1938 472.288 40.686L470.453 38.8521C450.93 19.3442 419.293 19.3442 399.77 38.8521L397.934 40.686C378.411 60.1938 346.774 60.1939 327.251 40.6861L325.416 38.8521C305.893 19.3442 274.256 19.3442 254.733 38.8521L252.897 40.686C233.374 60.1938 201.737 60.1938 182.214 40.686L180.379 38.8521C160.856 19.3442 129.219 19.3442 109.696 38.852L103.477 45.0659C103.463 45.0803 103.448 45.0947 103.434 45.109L103.076 45.4669C85.5258 63.0032 57.771 65.0183 37.8721 50.2009L0 22L0.000244141 0.5H1958V22Z"
		fill="#FFCFE2" />
</svg>